<?xml version="1.0" encoding="utf-8"?>
<!-- Generator: Adobe Illustrator 27.9.0, SVG Export Plug-In . SVG Version: 6.00 Build 0)  -->
<svg version="1.1" xmlns="http://www.w3.org/2000/svg" xmlns:xlink="http://www.w3.org/1999/xlink" x="0px" y="0px"
	 viewBox="0 0 512 512" style="enable-background:new 0 0 512 512;" xml:space="preserve">
<style type="text/css">
	
		.st0{clip-path:url(#SVGID_00000169544719741337410510000008916960858006876585_);fill-rule:evenodd;clip-rule:evenodd;fill:#FFFFFF;stroke:#000000;stroke-width:0.4;stroke-miterlimit:19.9999;}
	
		.st1{clip-path:url(#SVGID_00000168820434311416583570000013238243461335065234_);fill-rule:evenodd;clip-rule:evenodd;fill:#FFFFFF;stroke:#808080;stroke-miterlimit:19.9999;}
	
		.st2{clip-path:url(#SVGID_00000163791480638376071320000017837959442532100742_);fill-rule:evenodd;clip-rule:evenodd;fill:#FFFFFF;stroke:#808080;stroke-miterlimit:19.9999;}
	
		.st3{clip-path:url(#SVGID_00000010293935373533142220000012009448700450077075_);fill-rule:evenodd;clip-rule:evenodd;fill:#FFFFFF;stroke:#808080;stroke-miterlimit:19.9999;}
	
		.st4{clip-path:url(#path2588_00000137831967502781248240000013501602204585020336_);fill:#808080;stroke:#808080;stroke-miterlimit:10;}
</style>
<g id="Capa_1">
</g>
<g id="Capa_2">
	<g>
		<defs>
			<rect id="SVGID_1_" x="-1193.56" y="-37.49" width="3888.7" height="2066.38"/>
		</defs>
		<clipPath id="SVGID_00000163771621729118859460000009999887902538038713_">
			<use xlink:href="#SVGID_1_"  style="overflow:visible;"/>
		</clipPath>
		
			<path id="path2588" style="clip-path:url(#SVGID_00000163771621729118859460000009999887902538038713_);fill-rule:evenodd;clip-rule:evenodd;fill:#FFFFFF;stroke:#000000;stroke-width:0.4;stroke-miterlimit:19.9999;" d="
			M246.4,244.54l-1.2-1.2l-1.2,1.2h-1.2l-1.2,1.2h-1.2l-1.2,1.2H238v-1.2h-1.2v-1.2h1.2h-1.2l-1.2-2.4h-1.2h-1.2l-1.2,1.2h-1.2h-1.2
			v1.2l-1.2-1.2v-1.2l-2.4,1.2h-1.2h-1.2v-1.2h-1.2v-1.2h-1.2H220v-1.2l-2.4,2.4l-1.2,1.2h-1.2v-1.2l-1.2,1.2l1.2,1.2l1.2,1.2
			l-1.2,1.2h-2.4l-1.2-1.2v-1.2l-1.2,1.2h-1.2l1.2-1.2h-1.2H208l-1.2,1.2l-1.2,1.2v1.2l-1.2,1.2l-1.2-1.2l-1.2-1.2v-1.2h1.2
			l-1.2-1.2h-1.2h-1.2l1.2-1.2l-1.2-1.2l-1.2,1.2v1.2l-1.2-2.4v1.2l-1.2-1.2l-1.2,1.2v1.2h1.2h1.2v1.2v1.2v1.2v2.4H196l1.2,1.2H196
			l-2.4,1.2v1.2v1.2l-1.2-1.2l-1.2-1.2l-1.2,1.2l-1.2-1.2h-1.2v1.2v1.2l-1.2-1.2l-1.2,1.2v1.2H184v1.2l1.2,1.2H184h-1.2l-1.2,1.2
			l-1.2,1.2l-1.2-1.2H178h-1.2l-1.2,1.2l-2.4-2.4l-1.2-1.2h-2.4l-1.2,1.2h-1.2v-1.2H166v1.2h-1.2v-1.2l-1.2-1.2h-1.2v1.2v1.2h-1.2
			l-1.2,1.2h-1.2h-1.2h-1.2l-1.2,3.6v1.2H154h-1.2h-1.2v-1.2h-2.4v-1.2H148v1.2h-2.4h-1.2v1.2l-4.8,1.2h-1.2l-1.2,1.2v1.2v1.2H136
			v1.2v1.2l-1.2,1.2l-1.2,1.2v-1.2v1.2l-1.2,1.2v1.2h-1.2H130v-1.2l-1.2,1.2l-1.2,1.2h-1.2l-1.2,1.2H124v-1.2v1.2l-1.2-1.2v-1.2
			h-1.2v-1.2l1.2-1.2v-1.2h-1.2h-1.2v-2.4l-1.2-1.2v-1.2v1.2v1.2v-1.2v1.2v2.4H118v1.2l-1.2,2.4h-1.2l1.2,1.2h1.2l1.2,1.2v1.2H118
			h-1.2h-1.2v1.2v1.2v1.2v1.2l-1.2-1.2v1.2v-1.2l-1.2-1.2H112l-1.2,1.2v-1.2h1.2v-1.2v-1.2h1.2v-1.2v-1.2l-2.4-1.2h-1.2h1.2h-1.2
			v1.2v1.2h-1.2l-1.2,1.2l-1.2,1.2l-1.2,1.2v-1.2v1.2l-1.2,1.2h1.2h-1.2l1.2,1.2l1.2,1.2v1.2h-1.2l-1.2,1.2v-1.2l-1.2,1.2v-1.2h-1.2
			l-1.2,1.2v1.2v1.2h-1.2h-2.4l-1.2,1.2v1.2v-1.2v1.2l1.2,1.2v1.2l-1.2,1.2l-1.2,1.2h-1.2l-1.2,1.2l1.2,2.4l-1.2-1.2v-1.2h-1.2v1.2
			h-1.2l-1.2-1.2v1.2l-1.2-1.2v1.2v-1.2v-1.2H88l-1.2-1.2H88v-1.2h1.2v-1.2l-1.2-2.4l-1.2-3.6h-1.2h-1.2h-1.2v1.2H82l-1.2-1.2v-1.2
			H82l1.2-1.2v-1.2H82l1.2-1.2h1.2l1.2-1.2v-1.2v-1.2v-1.2v1.2l1.2-1.2H88l1.2-3.6v-1.2v-1.2v-1.2v-1.2v-1.2h1.2v-1.2l1.2-3.6h-1.2
			h1.2v-1.2l1.2-1.2H94l1.2-2.4v-1.2h1.2l1.2-1.2v-1.2l1.2-1.2h1.2v1.2h1.2l1.2-1.2l1.2-1.2v-1.2h1.2l1.2-1.2v-1.2v-1.2h1.2v-1.2
			l2.4-1.2h1.2v1.2h1.2h1.2v1.2v-2.4H112h1.2v-1.2H112v-1.2l1.2-1.2v-1.2h1.2h1.2v-1.2v-1.2v2.4h-1.2l-1.2-1.2v-1.2H112h1.2
			l-1.2,1.2l-1.2,3.6l-1.2,1.2h-1.2v-1.2h-1.2v-1.2v1.2H106l-1.2,1.2h1.2l-1.2,1.2v1.2h-1.2l-1.2,1.2v-1.2v-1.2h-1.2v-1.2l-1.2,1.2
			v1.2h-1.2v1.2v-1.2h-1.2h-1.2v-1.2v1.2l-1.2-1.2v1.2v-2.4v-1.2l-1.2-1.2v1.2h-1.2v1.2h-1.2h-1.2v1.2v-1.2h-1.2l-1.2,1.2v-1.2
			l-1.2,1.2H88v1.2h1.2v1.2v1.2l-1.2,1.2h-1.2h-1.2l-1.2,1.2l1.2,1.2v1.2h-1.2h-1.2v-1.2l-1.2-2.4h-1.2h-1.2v1.2v-1.2v-1.2l-1.2-1.2
			v-1.2v-1.2l-1.2-2.4H76v-1.2h-1.2H76h-1.2v-1.2H76l1.2-1.2v1.2h1.2l1.2-1.2h1.2l1.2-1.2v-1.2v-2.4v-1.2l-1.2-1.2h-1.2v-1.2
			l-1.2,1.2v-1.2h-1.2v-1.2v-1.2H76l1.2-1.2H76v-1.2l1.2-1.2H76l1.2-1.2l1.2-1.2h-1.2v-1.2h1.2l1.2-1.2h1.2h-1.2v-1.2h-1.2h-1.2
			v-1.2l-1.2,1.2v-1.2h-1.2v-1.2v-1.2h-1.2v-1.2v-1.2v-1.2l-1.2-1.2v1.2v-1.2l-1.2-2.4v1.2v1.2v1.2v1.2l1.2,1.2l-1.2,1.2l1.2,1.2
			h-1.2H70h-1.2h-1.2l1.2-2.4h-1.2h-1.2l1.2-1.2l-1.2-1.2h-1.2l-1.2,1.2h1.2l-1.2,1.2h-1.2l-2.4,1.2l-1.2,1.2l1.2,1.2v1.2l-1.2,1.2
			v2.4l-1.2,1.2v-2.4h-1.2v-1.2l1.2-2.4v-1.2l-1.2-1.2h-1.2v-1.2h-1.2l1.2-1.2v-1.2h1.2l-1.2-1.2l1.2,1.2v-1.2H58v-2.4l1.2-1.2
			l1.2-2.4h1.2l-1.2-1.2l1.2-1.2v-1.2v-1.2v-1.2v-1.2l-1.2-1.2v1.2h-1.2v-1.2v-4.8l-1.2-1.2h-1.2v-1.2v-1.2l1.2-1.2v1.2v2.4l1.2-1.2
			v1.2h1.2v-1.2h1.2l1.2-1.2l1.2-2.4v-1.2v-1.2v-1.2v-1.2h1.2v1.2l1.2-1.2l1.2,1.2h1.2v-1.2v-1.2v-1.2v-1.2l1.2,1.2v1.2h1.2h1.2v1.2
			v1.2h1.2h1.2v-2.4h-1.2h1.2H76h1.2v-1.2l1.2-2.4v-1.2h-1.2v-1.2l1.2-2.4v-1.2l-1.2,1.2v1.2H76v1.2h-1.2v1.2h-1.2v1.2l-1.2-1.2
			v-1.2v1.2l-1.2-1.2h1.2v-2.4l-1.2-1.2v-1.2v-1.2h1.2l-1.2,1.2h1.2h1.2v-1.2h1.2v-1.2H76v-2.4l1.2-1.2v-1.2v1.2h1.2v1.2v-1.2v1.2
			h1.2l1.2-1.2v-1.2H82h1.2v-1.2l1.2,1.2h1.2v1.2l1.2,1.2l1.2-1.2h-1.2H88h1.2v2.4v-1.2h1.2v1.2h1.2v-1.2h1.2H94l3.6-1.2v-2.4v-1.2
			l1.2-1.2v1.2h1.2v-1.2l1.2-1.2h1.2l-1.2-1.2v-1.2l1.2,1.2l1.2,1.2l-1.2,1.2h1.2l1.2,1.2v-1.2h1.2v-1.2h1.2h1.2h1.2h1.2v-1.2v1.2
			h1.2l1.2-1.2l-1.2-1.2v-1.2l-1.2,1.2v-2.4v-1.2v-1.2h-1.2h-1.2h-1.2v-1.2l-1.2-1.2v-1.2l2.4-1.2h1.2l1.2-1.2h1.2l1.2,1.2l1.2,1.2
			h1.2l-1.2-1.2l1.2-1.2h1.2h1.2v-1.2v-1.2v-1.2v-1.2h1.2h1.2h1.2l1.2,1.2h1.2v-1.2h1.2v1.2l1.2-1.2v1.2v-1.2l1.2,1.2v-1.2v-1.2
			v-2.4h1.2v-1.2h1.2v1.2v2.4h1.2l1.2,1.2h1.2h-1.2l1.2,1.2v1.2h1.2v1.2v-1.2l1.2,1.2v1.2h1.2h1.2h1.2l1.2,1.2l1.2,1.2h2.4l1.2-1.2
			v1.2l1.2,1.2h2.4l3.6-2.4h2.4l2.4-1.2l2.4-1.2h1.2h1.2v-1.2l1.2,1.2l1.2-1.2v1.2h1.2h2.4v1.2h1.2h2.4l3.6-1.2v-1.2h1.2h1.2v-1.2
			l1.2-1.2l1.2-2.4h-1.2h1.2h-1.2l1.2-1.2h1.2l-1.2,1.2h1.2h1.2v-1.2h1.2h-1.2h1.2h1.2v-1.2v-1.2h1.2h1.2v-1.2l1.2-1.2v1.2h1.2h1.2
			v1.2l1.2,1.2l1.2-1.2v-1.2h-1.2v-1.2h1.2h-1.2h1.2h1.2l-1.2-1.2l2.4,1.2l-1.2,1.2v1.2l1.2,1.2v1.2v-1.2h-1.2h-1.2v1.2h1.2v1.2
			l1.2,1.2v1.2v1.2h1.2l1.2-1.2v1.2h1.2v-1.2h1.2h1.2l-1.2-1.2h1.2l-1.2-1.2h1.2h-1.2l1.2-1.2l1.2-1.2H202h1.2v-2.4H202h-1.2
			l1.2-1.2h1.2l-1.2-1.2l1.2-1.2h1.2h-1.2h1.2h1.2h1.2h1.2l1.2,1.2v-1.2v1.2v1.2v1.2h1.2h1.2h1.2h1.2v1.2v1.2l1.2,1.2l1.2,1.2v1.2
			h-1.2l1.2,2.4v-1.2l1.2,1.2l1.2,1.2l1.2,1.2l1.2,1.2h1.2l-1.2-2.4l1.2,1.2l-1.2-2.4l-1.2-1.2l1.2-1.2h1.2v-1.2h-1.2v-1.2v-1.2
			v-1.2l-1.2-1.2h1.2v-1.2l1.2-1.2v-1.2h1.2l1.2-1.2h1.2h2.4v-1.2h-1.2H226v-1.2h-1.2h-1.2v1.2h-1.2l-1.2-1.2l-2.4-1.2l-1.2,1.2
			l1.2,1.2h-1.2l-1.2-1.2h-1.2h1.2l-1.2-1.2l-2.4-1.2v-1.2h-1.2v1.2v-1.2h-1.2H208l-1.2-1.2h1.2h1.2v-1.2H208v-1.2h1.2h2.4l1.2-1.2
			v1.2l1.2-1.2v1.2h1.2v-1.2h1.2h1.2l1.2,1.2v-1.2l1.2,1.2h1.2h1.2h1.2h1.2v-1.2v1.2h1.2v-1.2h1.2v-1.2h1.2l1.2-1.2v-1.2l1.2-1.2
			v-1.2h-1.2h1.2v-1.2h1.2h-1.2l1.2-1.2v-1.2h-1.2h-1.2v1.2v-1.2l1.2,1.2l-1.2,1.2v1.2h-1.2l-1.2,1.2l-1.2,1.2l-1.2-1.2v1.2h1.2v1.2
			h-1.2h-1.2v-1.2h-1.2v1.2h-1.2H220v1.2l-1.2-1.2h1.2v-1.2l-1.2,1.2h-1.2v-1.2l1.2-1.2v-1.2h-1.2v1.2h-1.2v1.2v1.2h-1.2v1.2h-2.4
			v1.2h-1.2h-1.2v-1.2h-1.2H208v-1.2l-1.2,1.2h-1.2l-1.2,1.2l-1.2-1.2h1.2l-1.2-1.2h1.2v-1.2h1.2l1.2-1.2v-1.2l1.2-2.4h-1.2v-1.2
			h-1.2h1.2v-1.2h-1.2l1.2-2.4h1.2h1.2h1.2l1.2-1.2v-1.2l-1.2-1.2h-1.2v-1.2v-1.2H208v-1.2v-1.2h1.2h1.2v1.2l1.2,1.2h2.4v-1.2v1.2
			l1.2,1.2l2.4-1.2l1.2-1.2h1.2l1.2-1.2l1.2-1.2l1.2-1.2v-1.2h1.2v-1.2h1.2v-1.2h1.2l1.2-1.2h-1.2v-1.2h1.2v1.2v-1.2v-1.2h1.2v1.2
			l1.2,1.2l2.4-1.2h1.2v-1.2v-1.2h1.2l1.2-1.2h1.2v-1.2h1.2h1.2v-1.2l1.2,1.2v-1.2v-1.2h1.2v-1.2v-1.2h1.2l-1.2,1.2h1.2v1.2v1.2v1.2
			h1.2h1.2v-1.2h2.4v-2.4l-1.2,1.2l-1.2-1.2v1.2l-1.2-1.2h1.2h-1.2l1.2-1.2h-1.2h1.2l-1.2-1.2h1.2v-1.2v-1.2l1.2,1.2v-1.2h-1.2
			l1.2-1.2l-1.2-1.2l1.2,1.2v-1.2v-1.2h1.2v-1.2h1.2h1.2h1.2h1.2h1.2l1.2,1.2h1.2h1.2l2.4-1.2v-1.2h2.4l1.2-1.2l1.2-1.2l-1.2-1.2
			h2.4h1.2h1.2v-1.2h1.2l-1.2-1.2l1.2-1.2l1.2-1.2v-1.2l1.2,1.2h1.2h2.4l1.2-1.2l1.2,2.4h-1.2v1.2v1.2v1.2v1.2h-1.2v1.2l1.2,1.2h1.2
			v1.2v1.2v1.2l-1.2-1.2h-1.2l-1.2-1.2v-1.2v1.2v1.2h1.2v1.2h-1.2v1.2v1.2H274v1.2h1.2H274h-1.2v1.2h2.4v1.2v1.2l-1.2-1.2h-1.2
			l-1.2,1.2h-1.2l1.2,1.2h1.2h1.2l1.2,1.2v-1.2l1.2,1.2v-1.2l1.2-1.2h1.2v1.2h1.2v-1.2v-1.2h-1.2v-1.2h-1.2v-1.2l-1.2-2.4l2.4-1.2
			l1.2,1.2h1.2h1.2h-1.2H280l1.2,1.2H280h1.2v1.2v-1.2h2.4h-1.2l1.2,1.2h-1.2l2.4-1.2v1.2v-1.2h-1.2v-1.2h-1.2v-1.2v-1.2h1.2h1.2
			h1.2l-1.2-1.2v-1.2h1.2v1.2h1.2v-1.2l1.2-1.2h1.2h1.2v-1.2h1.2h1.2l1.2-1.2h1.2h1.2h1.2v-1.2h1.2v-2.4h1.2l2.4-1.2h1.2v-3.6v1.2
			h1.2l2.4,2.4h-1.2v1.2v-1.2l-1.2,1.2v1.2l-2.4,1.2l1.2,1.2h-1.2l1.2,1.2h-1.2l-1.2,1.2v2.4v1.2v1.2h-1.2v1.2v1.2v1.2h1.2l-1.2,1.2
			v1.2h-1.2l-1.2-1.2l1.2,2.4v1.2l1.2,1.2l1.2,2.4v1.2l-1.2,1.2l-1.2-1.2v1.2l-1.2-1.2v1.2v1.2l-1.2,1.2v1.2h-1.2h-1.2l1.2,1.2
			l1.2,1.2h-1.2l1.2,1.2h-1.2v1.2h1.2v2.4v1.2v1.2l-1.2-1.2h-2.4l-1.2,1.2h1.2v1.2l-1.2,1.2v1.2h-1.2l1.2,1.2h-1.2h1.2h-1.2v1.2h1.2
			v1.2l-1.2,1.2h1.2v1.2v1.2v1.2v1.2h-1.2l-1.2,1.2l1.2,1.2l-2.4,2.4v2.4h-1.2v1.2v1.2l-1.2,2.4v1.2h-1.2v-1.2l-2.4,2.4l-1.2,1.2
			h1.2h-1.2l1.2,1.2l-1.2,1.2l-1.2,3.6h-2.4h-1.2l-2.4-1.2l-1.2-1.2v1.2l-1.2-1.2l-2.4,2.4v1.2H268v1.2h1.2l1.2,2.4l-1.2,1.2
			l1.2,3.6l-1.2,2.4l-1.2,1.2l-1.2,1.2l-1.2,2.4l-1.2,1.2l-2.4,1.2l-1.2,2.4h-1.2l1.2,2.4h2.4v1.2l-1.2,6l-2.4,3.6v1.2l-3.6,4.8
			l1.2,2.4l1.2,1.2l-1.2,2.4l1.2,4.8v2.4l1.2,3.6l1.2,2.4l1.2,1.2v1.2l-1.2,1.2l-3.6,2.4l1.2,1.2l1.2,2.4v1.2v2.4l1.2,4.8v2.4
			l1.2,2.4v2.4v4.8l-2.4,3.6l-2.4,1.2l-1.2,1.2l1.2,3.6l-3.6,2.4v1.2l-1.2,1.2H250v1.2h-1.2v1.2l-1.2,1.2v1.2L246.4,244.54z"/>
	</g>
	<g>
		<defs>
			
				<rect id="SVGID_00000041282818125729402690000005836940903334535335_" x="-1193.56" y="-37.49" width="3888.7" height="2066.38"/>
		</defs>
		<clipPath id="SVGID_00000044898224714044177100000012534183558781452207_">
			<use xlink:href="#SVGID_00000041282818125729402690000005836940903334535335_"  style="overflow:visible;"/>
		</clipPath>
		
			<path id="path2626" style="clip-path:url(#SVGID_00000044898224714044177100000012534183558781452207_);fill-rule:evenodd;clip-rule:evenodd;fill:#FFFFFF;stroke:#808080;stroke-miterlimit:19.9999;" d="
			M121.6,366.95l1.2-1.2v-2.4l1.2-1.2v1.2h1.2l1.2-1.2v-1.2l1.2,1.2v-1.2v1.2h-1.2v1.2v-1.2v1.2l1.2-1.2v1.2v-1.2h1.2v-1.2v-1.2v1.2
			l1.2-1.2v1.2v-1.2h1.2h1.2h1.2v-1.2v-1.2v-1.2h1.2v1.2h1.2v-1.2v1.2v-1.2h1.2h1.2l1.2-2.4v-1.2h1.2v-1.2h1.2h1.2h1.2l1.2,1.2v-1.2
			h1.2l1.2,1.2v-1.2h-1.2v-1.2h1.2v-1.2v-1.2l-1.2-1.2v1.2v-1.2l1.2-2.4h1.2l-1.2-1.2l1.2-1.2l-1.2-1.2l1.2-1.2H148h-1.2v-1.2
			l-1.2,1.2l-1.2,1.2v1.2h1.2v2.4h-2.4v1.2l-1.2-1.2l-1.2,1.2v1.2h1.2v1.2v1.2l-1.2,1.2h-2.4v1.2h-1.2l-1.2,1.2l-1.2-1.2v1.2h-1.2
			h-1.2v-2.4v1.2h-1.2H130v-1.2v1.2l-1.2,1.2h1.2l-1.2,1.2h-2.4v1.2l-1.2,1.2l-1.2-1.2h-2.4h1.2h-1.2v1.2h1.2h-1.2v1.2h-1.2v1.2
			v-1.2h-1.2l-1.2-2.4h-1.2v1.2l-1.2,1.2l-1.2-1.2l-1.2-1.2h-2.4v1.2l-1.2,1.2v-1.2h-1.2l1.2-3.6v-1.2l1.2-2.4l1.2-2.4l-1.2-1.2h1.2
			v-1.2v1.2l1.2,1.2v1.2l1.2,1.2l1.2,1.2v1.2l1.2,1.2v-1.2v-1.2v-1.2v-1.2v-1.2l1.2-2.4h-1.2v-1.2v-1.2h-1.2l1.2-1.2h-1.2v-1.2h-1.2
			l1.2-1.2h1.2v1.2h1.2h1.2h1.2v1.2l1.2,1.2h1.2h1.2l1.2-1.2h1.2v-1.2h1.2v-1.2l1.2-1.2v-1.2v-1.2h1.2l1.2-2.4v1.2v-1.2l1.2-1.2h1.2
			v-1.2l2.4-1.2l1.2,1.2v-1.2h1.2l-1.2-1.2v1.2v-1.2h1.2v-1.2l1.2,1.2l2.4-3.6h1.2l1.2-1.2h-1.2v1.2v-1.2v1.2H142h-1.2h-1.2h-1.2
			l1.2-1.2l-1.2-1.2v-1.2l-1.2,1.2H136v1.2l-1.2,1.2h-1.2l-2.4,1.2H130l-1.2,2.4h-1.2v1.2h-1.2l-1.2,1.2l-1.2-1.2l-1.2-1.2h-1.2
			h-1.2l-1.2-1.2v1.2H118v1.2l-1.2,1.2v-1.2l-1.2,1.2h-1.2l1.2-1.2h-1.2v-1.2h-1.2v-1.2l-1.2-2.4h-1.2h-1.2v-1.2v-1.2h1.2v-1.2h-1.2
			h1.2v-1.2v-2.4l-1.2-1.2v-1.2h-1.2h-1.2l-1.2-1.2h-1.2v1.2l-1.2,1.2h-1.2v-1.2v1.2l-1.2-2.4l1.2-1.2v-1.2h-1.2l1.2-1.2h1.2
			l1.2,1.2v-1.2v1.2h1.2l2.4-1.2v-1.2l1.2,1.2v-1.2h1.2l-1.2-1.2v1.2v-1.2l1.2-1.2v1.2l1.2-1.2v1.2l1.2-1.2v1.2l1.2,1.2l-1.2,1.2
			l1.2,1.2l-1.2,1.2h1.2h-1.2l-1.2,1.2v1.2h-1.2l1.2,2.4h1.2l1.2-1.2v-1.2v1.2h1.2l-1.2-1.2h1.2v1.2h1.2v-1.2v1.2l1.2-1.2v1.2
			l1.2,1.2v-1.2v-1.2v-1.2H118v-1.2v-1.2v-1.2h1.2l-1.2-1.2l1.2-1.2v1.2h1.2h1.2v-1.2h1.2h-1.2h-1.2v-1.2v-1.2l-1.2,1.2v-1.2h1.2
			v-1.2v-1.2h1.2h-1.2l1.2-1.2h-1.2l-1.2,1.2v1.2v-1.2v-2.4v-1.2v-1.2l-1.2-1.2v-1.2v-1.2h1.2l1.2,1.2l-1.2,1.2h1.2v-1.2v-1.2
			l-1.2,1.2v-1.2v-1.2v-1.2h1.2v-1.2v1.2h2.4l1.2-1.2l1.2,1.2l-1.2-1.2l1.2-1.2v1.2v-1.2h1.2v-1.2v-1.2v1.2h1.2h1.2v-1.2v1.2v-1.2
			v-1.2l-1.2-1.2l1.2-1.2v-1.2h1.2v-1.2l1.2-1.2v-1.2h1.2l1.2-1.2l1.2-2.4l1.2-1.2l1.2-2.4H136v-1.2h1.2v-1.2v-1.2l1.2-1.2h1.2
			l4.8-1.2v-1.2h1.2h2.4v-1.2h1.2v1.2h2.4v1.2h1.2h1.2h1.2v-1.2l1.2-3.6h1.2h1.2h1.2l1.2-1.2h1.2v-1.2v-1.2h1.2l1.2,1.2v1.2h1.2
			v-1.2h1.2v1.2h1.2l1.2-1.2h2.4l1.2,1.2l2.4,2.4l1.2-1.2h1.2h1.2l1.2,1.2l1.2-1.2l1.2-1.2h1.2h1.2l-1.2-1.2v-1.2h1.2v-1.2l1.2-1.2
			l1.2,1.2v-1.2v-1.2h1.2l1.2,1.2l1.2-1.2l1.2,1.2l1.2,1.2v-1.2v-1.2l2.4-1.2h1.2l-1.2-1.2h1.2v-2.4v-1.2v-1.2v-1.2H196h-1.2v-1.2
			l1.2-1.2l1.2,1.2v-1.2l1.2,2.4v-1.2l1.2-1.2l1.2,1.2l-1.2,1.2h1.2h1.2l1.2,1.2H202v1.2l1.2,1.2l1.2,1.2l1.2-1.2v-1.2l1.2-1.2
			l1.2-1.2h1.2h1.2l-1.2,1.2h1.2l1.2-1.2v1.2l1.2,1.2h2.4l1.2-1.2l-1.2-1.2l-1.2-1.2l1.2-1.2v1.2h1.2l1.2-1.2l2.4-2.4v1.2h1.2h1.2
			v1.2h1.2v1.2h1.2h1.2l2.4-1.2v1.2l1.2,1.2v-1.2h1.2h1.2l1.2-1.2h1.2h1.2l1.2,2.4h1.2h-1.2v1.2h1.2v1.2h1.2l1.2-1.2h1.2l1.2-1.2
			h1.2l1.2-1.2l1.2,1.2h1.2l1.2,1.2l1.2-1.2h1.2l1.2,1.2h1.2l-2.4,2.4l-1.2,2.4l-1.2,1.2v4.8v1.2l2.4,2.4l1.2,3.6h1.2v1.2l1.2,1.2
			l2.4,1.2l2.4,1.2l4.8,2.4h1.2l-1.2,1.2l1.2,2.4l-1.2,1.2h-1.2v1.2l-1.2,1.2l-1.2,1.2v1.2v2.4l-1.2,4.8v1.2v2.4h-1.2v1.2l-1.2,1.2
			v1.2v1.2l-1.2,2.4l-2.4,1.2h-2.4v1.2h-2.4h-1.2l-2.4-1.2H244l-1.2,1.2v1.2l-1.2,1.2v2.4h-1.2h-1.2l-1.2-1.2l-1.2-1.2h-1.2
			l-1.2,1.2l-1.2-1.2H232l-2.4-1.2l-1.2,1.2l-2.4-1.2h-2.4h-1.2l-1.2,1.2l-2.4-2.4v-1.2l-1.2-1.2l-1.2,1.2h-1.2v1.2l-2.4,1.2
			l-2.4,3.6l-1.2-1.2H208h-1.2l-1.2,1.2l-2.4,1.2v1.2H202v1.2v1.2h-2.4v1.2l-1.2,1.2l-1.2,1.2l-1.2-1.2h-2.4h-1.2h-1.2v1.2l-1.2,1.2
			l-2.4-1.2l2.4,3.6h1.2v2.4v1.2v2.4v1.2l1.2,2.4l1.2,8.4v1.2l-1.2,1.2l1.2,2.4l-1.2,1.2v1.2h1.2l1.2,1.2v1.2l2.4,1.2v1.2v1.2h1.2
			h1.2h1.2v2.4l-1.2,1.2v2.4l-1.2,1.2l1.2,2.4v1.2v2.4h1.2l1.2,1.2h1.2v1.2l1.2,1.2h1.2h2.4l1.2-1.2h2.4h2.4h1.2l-1.2,1.2v1.2
			l1.2,1.2l-1.2,1.2h-1.2l-1.2,1.2h-1.2v1.2h1.2l1.2,1.2v1.2v2.4l1.2,1.2v1.2h-1.2l-1.2,1.2v1.2l-3.6,1.2v1.2l-1.2,1.2l-1.2,1.2
			h-1.2h-1.2l-1.2-1.2l-2.4,1.2v1.2v1.2h-1.2h-1.2l-2.4,1.2h-1.2v1.2h-1.2l-2.4,1.2v-1.2l-1.2,1.2v2.4l-1.2,1.2l-1.2-1.2H184h-2.4
			l-1.2,2.4h-1.2l-1.2-1.2h-1.2l-2.4,1.2h-1.2l-2.4-2.4h-1.2H166h-1.2h-2.4h-4.8v1.2l1.2,1.2l-3.6,2.4H154h-1.2h-2.4H148h-6
			l-1.2,1.2l-1.2,1.2l-1.2,1.2l-1.2,1.2v1.2v3.6l-3.6,2.4h-1.2l-1.2,1.2h-2.4l-2.4,1.2l-2.4,2.4l-1.2,1.2l1.2,1.2l-1.2,1.2l-1.2,1.2
			l-2.4,2.4l-2.4,1.2l-6,2.4l-1.2,1.2l-1.2,1.2v1.2l-1.2,1.2l-2.4,1.2h-1.2l-1.2-2.4v-1.2v-1.2h1.2l-1.2-1.2h1.2h-1.2l1.2-1.2
			l-1.2-1.2v-1.2v-2.4v-1.2v-1.2v-2.4v-1.2v-1.2v-2.4v-2.4h1.2v-1.2l1.2-1.2h-1.2v-1.2v-1.2h-1.2h1.2v-1.2v-1.2h-1.2l1.2-1.2
			l1.2-1.2l-1.2-1.2v-1.2v-2.4l-1.2-1.2v-1.2v-1.2l1.2-1.2v-3.6h-1.2v-1.2v-1.2h2.4v1.2l1.2-1.2h1.2l1.2-1.2h1.2v-1.2h1.2v1.2
			l1.2,1.2v1.2h1.2l1.2-1.2l-1.2-1.2h1.2v-1.2l1.2-1.2l-1.2-1.2l-1.2-1.2H112l-1.2-1.2v-1.2h1.2l1.2,1.2l1.2-1.2l1.2-1.2l1.2-2.4
			l-1.2-2.4h1.2h1.2v-1.2l1.2,1.2v-1.2h1.2L121.6,366.95z M116.8,351.35h1.2H116.8z"/>
	</g>
	<g>
		<defs>
			
				<rect id="SVGID_00000109716512015042923340000017875974528020220823_" x="-1193.56" y="-37.49" width="3888.7" height="2066.38"/>
		</defs>
		<clipPath id="SVGID_00000142149868307368762000000004618775788539458221_">
			<use xlink:href="#SVGID_00000109716512015042923340000017875974528020220823_"  style="overflow:visible;"/>
		</clipPath>
		
			<path id="path2662" style="clip-path:url(#SVGID_00000142149868307368762000000004618775788539458221_);fill-rule:evenodd;clip-rule:evenodd;fill:#FFFFFF;stroke:#808080;stroke-miterlimit:19.9999;" d="
			M421.59,374.15v-1.2l-1.2,1.2v1.2l-1.2,1.2v1.2l1.2,1.2v2.4h1.2l-1.2,1.2l-1.2-2.4h-2.4l-2.4-1.2h-1.2h-2.4h-1.2h-1.2l-2.4,2.4
			l-1.2,1.2l1.2,1.2l-2.4,2.4h-1.2l-3.6,2.4h-1.2v1.2l-1.2,4.8v1.2l-1.2,2.4h-1.2h-1.2h-1.2h-1.2v1.2v1.2h-1.2h1.2v1.2h-1.2v1.2
			h-1.2v1.2v1.2v1.2h-1.2h-1.2l-2.4,1.2v1.2v1.2l1.2,1.2l1.2,1.2h2.4h3.6v3.6l1.2,1.2l1.2,1.2h-1.2l-1.2,2.4l-1.2,1.2v1.2l-1.2,1.2
			v1.2h-1.2v1.2l1.2,2.4l-1.2,1.2h-1.2l-1.2,2.4h-1.2h-3.6v-1.2h-1.2v1.2h-1.2h-1.2h-2.4v-2.4l-1.2-2.4l-3.6-2.4h-1.2l-1.2-1.2h-1.2
			h-2.4v2.4h-1.2l-2.4-1.2l-1.2,2.4v1.2v1.2v1.2l-1.2,1.2h1.2l-1.2,1.2h1.2v1.2l1.2,2.4h-1.2l1.2,1.2l-1.2,1.2v1.2h-1.2v1.2
			l-1.2,3.6h-1.2h-1.2l-1.2,1.2l-2.4,1.2h-1.2h-2.4l-2.4,1.2l-1.2,1.2H340l-1.2,1.2l-1.2,1.2v-1.2h-2.4H334l-2.4,1.2l-1.2-2.4
			l-3.6,1.2v1.2l-1.2,1.2v1.2h-1.2v1.2l-1.2,1.2H322l-1.2,1.2v-1.2l1.2-1.2l-1.2-1.2l1.2-1.2h-1.2l-2.4-2.4v-1.2v-1.2v-1.2l-1.2-1.2
			H316h-1.2h-2.4v-1.2H310h-1.2v1.2v1.2l1.2,1.2l-2.4,1.2l-3.6,1.2h-1.2v1.2l-1.2-1.2l-2.4,1.2l-3.6-1.2l-2.4,1.2v-1.2v-2.4h1.2
			v-1.2l1.2-1.2v-1.2v-1.2h1.2l1.2-1.2v-1.2l-1.2,1.2v-1.2l-2.4,1.2l-1.2-1.2H292h-1.2h-3.6l-1.2-1.2l-1.2-1.2h-1.2l-1.2-2.4
			l-1.2-1.2H280l-4.8,2.4H274h-1.2v-1.2h-1.2l-2.4,2.4h-2.4l-1.2,1.2h-1.2h-3.6h-2.4v2.4l-1.2,1.2H256h-1.2v1.2l-1.2,1.2l-1.2-1.2
			l-1.2-1.2l1.2-1.2v-3.6v-4.8l1.2-2.4v-1.2h-1.2l-2.4-1.2v1.2l-1.2,3.6l-1.2,4.8h-1.2l-1.2,1.2H244l-1.2,1.2l-1.2-1.2h-2.4H238
			l-1.2,1.2v1.2h-1.2v1.2l-1.2,1.2l-1.2,2.4l-1.2,1.2h-2.4h-1.2v1.2h-1.2H226v1.2h-1.2h-1.2h-1.2l-1.2,1.2v-1.2l-1.2,1.2h-1.2v-1.2
			h-1.2h-1.2l-1.2,1.2l-3.6-2.4h-2.4l1.2-8.4v-1.2l-1.2-2.4H208h-1.2h-2.4v-1.2h1.2h-1.2l1.2-1.2l-1.2-1.2l-1.2-1.2v-1.2v-2.4
			l1.2-1.2l1.2-3.6l3.6-2.4v-1.2l1.2-1.2l1.2-2.4v-1.2l3.6-1.2l2.4-2.4v-1.2l1.2,1.2l1.2-1.2h1.2h1.2l1.2-1.2l1.2-2.4v-3.6l-1.2-1.2
			l-1.2-3.6l-1.2-1.2l-1.2-1.2h-1.2l-2.4,1.2l-1.2-1.2H214l-2.4,2.4h-1.2l-1.2-2.4v-2.4v-1.2v-7.2v-1.2v-1.2h1.2h-1.2l-1.2-2.4
			l3.6-1.2v-1.2l1.2-1.2h1.2v-1.2l-1.2-1.2v-2.4v-1.2l-1.2-1.2h-1.2v-1.2h1.2l1.2-1.2h1.2l1.2-1.2l-1.2-1.2v-1.2l1.2-1.2H214h-2.4
			h-2.4l-1.2,1.2h-2.4h-1.2l-1.2-1.2v-1.2H202l-1.2-1.2h-1.2v-2.4v-1.2l-1.2-2.4l1.2-1.2v-2.4l1.2-1.2v-2.4h-1.2h-1.2h-1.2v-1.2
			v-1.2l-2.4-1.2v-1.2l-1.2-1.2h-1.2v-1.2l1.2-1.2l-1.2-2.4l1.2-1.2v-1.2l-1.2-8.4l-1.2-2.4v-1.2v-2.4v-1.2v-2.4H190l-2.4-3.6
			l2.4,1.2l1.2-1.2v-1.2h1.2h1.2h2.4l1.2,1.2l1.2-1.2l1.2-1.2v-1.2h2.4v-1.2v-1.2h1.2v-1.2l2.4-1.2l1.2-1.2h1.2h1.2l1.2,1.2l2.4-3.6
			l2.4-1.2v-1.2h1.2l1.2-1.2l1.2,1.2v1.2l2.4,2.4l1.2-1.2h1.2h2.4l2.4,1.2l1.2-1.2l2.4,1.2h1.2l1.2,1.2l1.2-1.2h1.2l1.2,1.2l1.2,1.2
			h1.2h1.2v-2.4l1.2-1.2v-1.2l1.2-1.2h1.2l2.4,1.2h1.2h2.4v-1.2h2.4h1.2l1.2,2.4v1.2l3.6,2.4v2.4l-1.2-1.2l-1.2,1.2l1.2,1.2h-1.2
			H256l-2.4,1.2h3.6v2.4H256l2.4,1.2l1.2-1.2h1.2v1.2v1.2h2.4l2.4,1.2v1.2h2.4h1.2l1.2,1.2l1.2,1.2h1.2l1.2-1.2l1.2-1.2h1.2h1.2v1.2
			h1.2l1.2,1.2v1.2h-1.2h-1.2h-1.2l-1.2,1.2l-1.2-1.2v1.2v1.2v-1.2h1.2v1.2l2.4,1.2v1.2h1.2l2.4-1.2l1.2,1.2h2.4l1.2,2.4v2.4
			l1.2,1.2l2.4,1.2h1.2h1.2l1.2,1.2h1.2l1.2,1.2l1.2,1.2v2.4h1.2v1.2h2.4l1.2-2.4l3.6-1.2l1.2,1.2l2.4,2.4l1.2,1.2h1.2l4.8-1.2
			l3.6-1.2l1.2-1.2h1.2h2.4l1.2-2.4h2.4l1.2-1.2l2.4-1.2v-1.2l1.2,1.2h1.2l2.4,2.4l1.2-1.2h1.2h1.2h-1.2h1.2h1.2h1.2h1.2h2.4
			l1.2,1.2v1.2l2.4,1.2h1.2l1.2,1.2v1.2h1.2v1.2l1.2,1.2h1.2l2.4,1.2l-1.2,1.2v1.2l-1.2,2.4l2.4,4.8l2.4,2.4v-1.2l1.2-2.4v-1.2v-2.4
			l2.4-1.2l-1.2-1.2h1.2l1.2-1.2l1.2-2.4v-1.2v-1.2v-1.2h1.2l1.2-2.4v-1.2v-1.2l2.4-1.2h1.2v-1.2h1.2v-1.2l1.2-1.2h2.4v-1.2l1.2-1.2
			v-2.4l1.2-1.2l1.2-1.2v-2.4h2.4h1.2h1.2l1.2,1.2l1.2,1.2h1.2l2.4-1.2v1.2h1.2l2.4,1.2h1.2l1.2-3.6v-1.2h4.8h1.2l1.2,2.4h1.2
			l1.2,1.2l3.6,1.2l2.4,2.4h1.2h1.2l1.2-1.2h1.2v1.2l1.2,1.2v1.2l1.2,1.2v2.4l-2.4,1.2v2.4v1.2l1.2,1.2h-1.2v1.2l-1.2,1.2v1.2h-1.2
			l-1.2,1.2l1.2,1.2l2.4,1.2v1.2h1.2h1.2v1.2h1.2h1.2l2.4,1.2v1.2v1.2h2.4h1.2l1.2,1.2v2.4v1.2l-1.2,2.4l1.2,1.2v1.2l-1.2-1.2
			l1.2,1.2v1.2l-1.2,1.2v1.2l-1.2,2.4l-1.2,1.2l-1.2,2.4v2.4h-1.2v1.2l-1.2-1.2L421.59,374.15z"/>
	</g>
	<g>
		<defs>
			
				<rect id="SVGID_00000002360608324141808490000016014928303626180497_" x="-1193.56" y="-37.49" width="3888.7" height="2066.38"/>
		</defs>
		<clipPath id="SVGID_00000159468071991487368940000009395965390611592364_">
			<use xlink:href="#SVGID_00000002360608324141808490000016014928303626180497_"  style="overflow:visible;"/>
		</clipPath>
		
			<path id="path2996" style="clip-path:url(#SVGID_00000159468071991487368940000009395965390611592364_);fill-rule:evenodd;clip-rule:evenodd;fill:#FFFFFF;stroke:#808080;stroke-miterlimit:19.9999;" d="
			M301.6,66.92l1.2,1.2c0.6,0,1.8,0,2.4,0c0-0.6,0-1.8,0-2.4l1.2-1.2v1.2c0.6,0,1.8,0,2.4,0v-1.2h2.4c0,1.5,0,3.3,0,4.8h1.2
			l-1.2,1.2l1.2,1.2c0.6,0,1.8,0,2.4,0v1.2h-1.2h1.2l-1.2,1.2v1.2h1.2v1.2l-1.2,1.2v2.4l1.2,1.2h1.2v-1.2c0,0.8,0,2.83,0,3.6
			c0-1.34,0-3.46,0-4.8h1.2v-1.2h1.2l1.2-1.2h-1.2c0-1.07,0-2.53,0-3.6c1.34,0,3.46,0,4.8,0c0-1.07,0-2.53,0-3.6h1.2l1.2,1.2
			l1.2-2.4c0.41,0.78,1.49,2.67,1.2,3.6h1.2v-1.2l1.2,1.2l1.2-1.2l1.2,1.2h2.4v1.2H334h1.2H334l-1.2,1.2l1.2,1.2h1.2v1.2
			c1.07,0,2.53,0,3.6,0v1.2h-1.2h1.2v-1.2h1.2l-1.2,1.2c0.6,0,1.8,0,2.4,0v1.2c0.6,0,1.8,0,2.4,0v1.2h1.2h-1.2h1.2
			c0.61,0.92,2.61,1.98,3.6,2.4v-1.2l1.2,1.2h1.2v2.4l1.2,1.2l-1.2-1.2v1.2l1.2,1.2v1.2h1.2v1.2h1.2v1.2h-1.2l1.2,1.2v-1.2v1.2h1.2
			v1.2c0.92,0.6,1.98,2.62,2.4,3.6c0,0,1.2,1.2,1.2,1.2v1.2h1.2l1.2,1.2h1.2v1.2c0.78,0.41,2.67,1.49,3.6,1.2l-1.2,1.2h1.2l-2.4,1.2
			v1.2h-1.2v-1.2l1.2,1.2h1.2v1.2h-1.2v1.2l2.4-1.2c0-0.6,0-1.8,0-2.4h1.2v-1.2c0.99,0.42,2.99,1.48,3.6,2.4c1.5,0,3.3,0,4.8,0v1.2
			c0.6,0,1.8,0,2.4,0v1.2l4.8-1.2l1.2,1.2v-1.2h1.2h-1.2l1.2-1.2l1.2,1.2h1.2l1.2,1.2v-1.2h1.2l1.2,1.2h1.2v-1.2l1.2,1.2l-1.2-1.2
			h1.2v1.2h1.2v1.2v-1.2h1.2l1.2,1.2h-1.2v1.2h1.2c0.29,0.92-0.8,2.83-1.2,3.6c-0.6,1.2-1.8,3.61-2.4,4.8l1.2,1.2l-1.2,1.2v2.4
			l-1.2,1.2h-1.2l-1.2,1.2h-1.2l-1.2,2.4c0,0.6,0,1.8,0,2.4v-1.2l-1.2,1.2v1.2h-1.2v1.2c-0.6,0-1.8,0-2.4,0l-1.2,1.2v-1.2l-2.4-1.2
			l-1.2,1.2l-1.2-1.2h-1.2l-1.2,1.2l1.2,1.2l-1.2,1.2l1.2,1.2v1.2l-1.2-1.2v1.2l-1.2,1.2v1.2h1.2v1.2c0.6,0.6,1.8,1.8,2.4,2.4
			c0.6-0.6,1.8-1.8,2.4-2.4h1.2v1.2l1.2,1.2l-1.2,2.4c0,1.82,0,4.17,0,6h1.2l1.2,1.2v2.4h1.2v2.4h1.2l1.2,1.2h1.2l1.2-1.2h1.2
			c0,0.76,0,2.81,0,3.6l-1.2,1.2c0,1.5,0,4.47,0,6c0.6,0.6,1.8,1.8,2.4,2.4v1.2l1.2,1.2h1.2l2.4,3.6c0-0.6,0-1.8,0-2.4h1.2l1.2,3.6
			h1.2l1.2,1.2l2.4-1.2c0,0.8,0,2.83,0,3.6c-0.6,1.2-1.8,3.61-2.4,4.8l1.2,3.6h1.2l1.2,1.2v1.2l2.4,1.2v-1.2l1.2-1.2h1.2l1.2-1.2
			h1.2l1.2-1.2c0.6,0,1.8,0,2.4,0c0-0.6,0-1.8,0-2.4l1.2-1.2v-2.4h1.2v-1.2v2.4h1.2l1.2,2.4h1.2l1.2,1.2v1.2l1.2,1.2v1.2l1.2,1.2
			h-1.2c0,1.07,0,2.53,0,3.6c-0.99,0.42-2.99,1.48-3.6,2.4h-1.2v1.2h-1.2l-1.2,2.4c-0.8,0-2.83,0-3.6,0
			c-1.07,1.07-2.53,2.53-3.6,3.6l-1.2-2.4h-1.2v-1.2l-1.2,1.2v1.2h-1.2v2.4l-1.2-1.2c0,0.6,0,1.8,0,2.4h-1.2c0,1.34,0,3.45,0,4.8
			h-1.2v1.2v-1.2l-1.2-1.2l-1.2,2.4h-1.2v1.2l1.2,1.2v2.4h1.2v1.2h1.2v1.2l1.2,1.2v-1.2h1.2l-1.2-1.2c0-1.92,0-4.08,0-6h1.2v-1.2
			l1.2,1.2l1.2,3.6c0.6,0.6,1.8,1.8,2.4,2.4c0,0,1.2,2.4,1.2,2.4c1.73,0,4.28,0,6,0l1.2,1.2v1.2l3.6,4.8v3.6l-1.2,2.4l1.2,2.4h1.2
			h-3.6c0.92,0.6,1.98,2.62,2.4,3.6c0,0,1.2,1.2,1.2,1.2v2.4l1.2,2.4l-2.4-1.2v-1.2h-1.2h1.2l-6,1.2l2.4,4.8v2.4l1.2,1.2h1.2
			l-1.2,1.2h1.2l-2.4,1.2v1.2c-0.6,0.6-1.8,1.8-2.4,2.4l1.2,1.2c-1.07,1.07-2.53,2.53-3.6,3.6h-1.2l-1.2,1.2v1.2
			c-0.67,0.93-5.02,4.05-6,4.8h-1.2l-1.2-3.6h-1.2l-1.2,1.2l1.2,1.2l-1.2,1.2c0,0.6,0,1.8,0,2.4l-2.4,1.2l-1.2-1.2
			c-0.6,0-1.8,0-2.4,0l-2.4,2.4h1.2c-0.6,0-1.8,0-2.4,0c-0.42,0.99-1.48,2.99-2.4,3.6l2.4,2.4v1.2l1.2,1.2v1.2h1.2l-1.2,1.2h1.2
			l-1.2,1.2c0.6,0.6,1.8,1.8,2.4,2.4h-1.2l-1.2-1.2v1.2h-1.2l-1.2,1.2h-1.2l-1.2,1.2l1.2,1.2l-1.2,2.4l1.2,1.2l-1.2,1.2l1.2,2.4h1.2
			v1.2c-0.99,0.42-2.99,1.48-3.6,2.4c0.29,0.92-0.8,2.83-1.2,3.6l-1.2-1.2l1.2,1.2l-1.2,2.4h1.2v2.4l-1.2,1.2v1.2l-1.2,1.2v2.4
			c-0.6,0.6-1.8,1.8-2.4,2.4v2.4l-1.2,1.2v1.2h-2.4l-1.2,1.2v1.2h-1.2v1.2c-0.92-0.29-2.83,0.8-3.6,1.2c0,0.6,0,1.8,0,2.4
			c0,0-1.2,2.4-1.2,2.4h-1.2c0,1.07,0,2.53,0,3.6c-0.42,0.99-1.48,2.99-2.4,3.6h-1.2l1.2,1.2l-2.4,1.2c0,0.8,0,2.83,0,3.6
			c-0.4,0.77-1.49,2.68-1.2,3.6l-2.4-2.4l-2.4-4.8c0.41-0.78,1.49-2.67,1.2-3.6l1.2-1.2c-0.78-0.41-2.67-1.49-3.6-1.2l-1.2-1.2v-1.2
			h-1.2v-1.2l-1.2-1.2c-0.92,0.29-2.83-0.8-3.6-1.2v-1.2l-1.2-1.2c-2.28,0-4.93,0-7.2,0h1.2c-0.6,0-1.8,0-2.4,0l-1.2,1.2l-2.4-2.4
			h-1.2l-1.2-1.2v1.2c-0.99,0.42-2.99,1.48-3.6,2.4h-2.4l-1.2,2.4c-0.8,0-2.83,0-3.6,0l-1.2,1.2l-3.6,1.2
			c-0.86,0.19-5.18,1.44-6,1.2c-1.34-1.34-3.46-3.46-4.8-4.8l-3.6,1.2l-1.2,2.4H298v-1.2h-1.2v-2.4c-0.6-0.6-1.8-1.8-2.4-2.4h-1.2
			l-1.2-1.2c-0.6,0-1.8,0-2.4,0c-0.99-0.42-2.99-1.48-3.6-2.4v-2.4l-1.2-2.4h-2.4l-1.2-1.2c-0.78,0.41-2.67,1.49-3.6,1.2v-1.2
			l-2.4-1.2v-1.2H274v1.2c0-0.6,0-1.8,0-2.4l1.2,1.2l1.2-1.2c1.07,0,2.53,0,3.6,0v-1.2l-1.2-1.2h-1.2v-1.2c-0.6,0-1.8,0-2.4,0
			c-0.6,0.6-1.8,1.8-2.4,2.4h-1.2c-0.6-0.6-1.8-1.8-2.4-2.4c-0.76,0-2.81,0-3.6,0v-1.2l-2.4-1.2h-2.4c0-0.6,0-1.8,0-2.4h-1.2
			l-1.2,1.2l-2.4-1.2h1.2v-2.4h-3.6l2.4-1.2c0.6,0,1.8,0,2.4,0l-1.2-1.2l1.2-1.2l1.2,1.2v-2.4l-3.6-2.4c0.29-0.92-0.8-2.83-1.2-3.6
			h-1.2l2.4-1.2l1.2-2.4c0-0.6,0-1.8,0-2.4l1.2-1.2v-1.2h1.2c0-0.81,0-2.82,0-3.6c0,0,1.2-4.8,1.2-4.8c0-0.78,0-2.84,0-3.6
			c0.6-0.6,1.8-1.8,2.4-2.4v-1.2h1.2l1.2-1.2l-1.2-2.4l1.2-1.2c-0.92,0.48-5.18-2.06-6-2.4c-1.79-1.01-4.69-1.94-6-3.6v-1.2h-1.2
			l-1.2-3.6l-2.4-2.4c0-0.77,0-5.13,0-6c0.92-0.6,1.98-2.62,2.4-3.6c0,0,2.4-2.4,2.4-2.4h-1.2l-1.2-1.2H250l-1.2,1.2l-1.2-1.2h-1.2
			l1.2-1.2v-1.2l1.2-1.2v-1.2h1.2v-1.2h2.4l1.2-1.2v-1.2l3.6-2.4l-1.2-3.6c0.6-0.92,2.62-1.99,3.6-2.4c0,0,2.4-3.6,2.4-3.6
			c-0.01-1.62,0-5.64,0-7.2c0,0-1.2-2.4-1.2-2.4v-2.4l-1.2-4.8c0-0.78,0-2.84,0-3.6c-0.41-0.97-1.48-3.01-2.4-3.6
			c1.01-0.67,4.12-2.63,4.8-3.6v-1.2c-1.93-1.47-2.86-5.01-3.6-7.2c0.31-1.61-0.77-5.64-1.2-7.2l1.2-2.4
			c-0.92-0.61-1.98-2.61-2.4-3.6l3.6-4.8v-1.2l2.4-3.6c0.14-0.86,1.43-6.45,1.2-7.2h-2.4l-1.2-2.4h1.2l1.2-2.4
			c2.66-1.09,3.71-2.15,4.8-4.8c0.6-0.6,1.8-1.8,2.4-2.4c0,0,1.2-2.4,1.2-2.4l-1.2-3.6l1.2-1.2l-1.2-2.4H268v-1.2h1.2v-1.2l2.4-2.4
			l1.2,1.2v-1.2c0.6,0.92,2.62,1.98,3.6,2.4c0.77,0,2.81,0,3.6,0l1.2-3.6l1.2-1.2l-1.2-1.2h1.2h-1.2c0.76-0.76,2.81-2.81,3.6-3.6
			v1.2h1.2c-0.29-0.92,0.8-2.83,1.2-3.6c0-0.6,0-1.8,0-2.4h1.2v-2.4l2.4-2.4l-1.2-1.2l1.2-1.2h1.2c0-1.5,0-3.3,0-4.8h-1.2l1.2-1.2
			v-1.2h-1.2v-1.2h1.2h-1.2h1.2l-1.2-1.2h1.2v-1.2l1.2-1.2v-1.2H292l1.2-1.2h2.4l1.2,1.2c0-1.34,0-3.45,0-4.8h-1.2v-1.2h1.2
			l-1.2-1.2h1.2c-0.6-0.6-1.8-1.8-2.4-2.4c0.6,0,1.8,0,2.4,0v-1.2l1.2-1.2c0-0.6,0-1.8,0-2.4l1.2,1.2v-1.2l1.2,1.2l1.2-1.2
			c0.23-1.62-1.22-3.8-2.4-4.8c0.29-0.92-0.8-2.83-1.2-3.6l1.2,1.2h1.2v-1.2l1.2-1.2h-1.2c0-1.07,0-2.53,0-3.6h1.2
			C301.6,70.38,301.6,68.28,301.6,66.92z"/>
	</g>
	<g>
		<defs>
			<path id="path2588_00000103981558221530495360000011004776029027728567_" d="M246.4,244.54c-0.93-1.22-1.48-1.22-2.4,0
				c-0.92-0.29-1.88,0.54-2.4,1.2c-0.92-0.29-1.88,0.54-2.4,1.2c-1.06,0.15-1.36-0.13-1.2-1.2c-1.68,0.44-1.69-1.64,0-1.2
				c-2.44,0.27-1.33-3.37-4.8-2.4c-0.64,0.69-1.39,1.47-2.4,1.2c-1.21-0.13-1.25,0.11-1.2,1.2c-2.84-3.94-0.62-1.27-4.8-1.2
				c-1.19,0.19-1.27-0.16-1.2-1.2c-1.19,0.2-1.27-0.16-1.2-1.2c-1.2-0.12-2.83,0.57-2.4-1.2c-1.38,0.98-2.92,3.99-4.8,3.6
				c0.37-2.41-2.12,0.3,0,1.2c3.13,2.2-2.55,3.54-3.6,1.2c0.13-2.02-0.34-0.59-1.2,0c-2.11,0.23-0.52-0.41,0-1.2
				c-2.15-0.49-3.49,0.9-4.8,2.4c0.35,3.91-3.92,1.22-3.6-1.2c2,0.22,0.61-0.41,0-1.2c-0.6,0-1.8,0-2.4,0
				c2.1-1.23,0.06-3.33-1.2-1.2c0.32,3.06-0.79-0.89-1.2-1.2c0.12,2.61-0.97-1.43-2.4,1.2c-0.27,2.86,3.26-0.82,2.4,3.6
				c0.02,0.75-0.02,2.82,0,3.6c-2.07-0.2-0.55,0.39,0,1.2c-2.2-0.17-4.24,1.26-3.6,3.6c-3.4-4.49-2.59,0.33-4.8-2.4
				c-1.78-0.46-1.07,1.25-1.2,2.4c-1.07-1.87-2.64-0.55-2.4,1.2c-1.05-0.17-1.36,0.15-1.2,1.2c2.83,2.3-1.67,0.21-2.4,2.4
				c-1.64,2.31-1.99-0.78-4.8,0c-2.15,3.08-3.9-3.97-7.2-2.4c-2.8,3.1-1.6-0.41-3.6,0c0.23,1.05-0.19,1.37-1.2,1.2
				c0.32-0.92-0.56-1.88-1.2-2.4c-2.53-0.67,0.13,3.07-2.4,2.4c-1,1.7-3.13,1.13-4.8,1.2c-1.36,3.33-0.29,5.54-4.8,4.8
				c0.65-1.8-1.49-1.03-2.4-1.2c0.29-1.1-0.23-1.33-1.2-1.2c0.64,2.09-2.45,0.91-3.6,1.2c0.78,2.05-4.88,2.23-6,2.4
				c-2.01,0.77-0.16,4.09-2.4,3.6c0.89,1.66-2.8,6.45-2.4,3.6c0.44,1.48-1.64,2.12-1.2,3.6c-1.15-0.13-2.86,0.58-2.4-1.2
				c-0.84,1.08-6.67,5.72-6,2.4c0.2,2.03-0.39,0.58-1.2,0c0.16-1.08-0.13-1.35-1.2-1.2c-0.45-1.48,1.65-2.12,1.2-3.6
				c-2.18,0.33-2.69-0.28-2.4-2.4c-0.66-0.5-1.5-1.49-1.2-2.4c0,0.6,0,1.8,0,2.4v-1.2c-0.29,1.16,0.89,4.24-1.2,3.6
				c0.11,1.23-0.74,4.16-2.4,3.6c0.85,1.4,2.75,1,3.6,2.4c0.55,2.1-2.32,0.91-3.6,1.2c0.49,8.31-1.24,1.67-1.2,4.8
				c0.38-2.31-2.45-3.28-3.6-1.2c-0.25-2.34,1.77,0.14,1.2-3.6c3.28-0.05-0.01-4.38-2.4-3.6h1.2c-1.79-0.46-1.06,1.25-1.2,2.4
				c-1.91-0.99-4.99,5.54-4.8,2.4c0.77,1.42-2.63,2.7,0,2.4c-2.99-0.3,2.15,1.94,1.2,3.6c-1.42-0.77-2.7,2.63-2.4,0
				c-2.45,2.58,0.12-0.63-2.4,0c-1.29,0.78-1.31,2.25-1.2,3.6c-1.84-0.05-5.29-0.42-4.8,2.4v-1.2c-0.45,1.49,1.65,2.12,1.2,3.6
				c-1.71,2.93-6.57,1.98-3.6,6c-0.67-0.52-1.49-1.48-1.2-2.4c-1.07-0.16-1.35,0.13-1.2,1.2c-1.42,0.77-2.7-2.63-2.4,0
				c-0.8-0.58-1.41-2.04-1.2,0c-0.7-3.92,2.36-1.34,0-3.6c1.06,0.13,1.36-0.12,1.2-1.2c2.59,0.58,0.42-2.58,0-3.6
				c-0.62-3.1-1.52-4.12-4.8-3.6c0.43,2.18-1.69,1.03-2.4,0c-0.14-1.06,0.13-1.36,1.2-1.2c1.04-0.71,2.18-2.84,0-2.4
				c3.09-2.5,4.03-0.82,3.6-6c-0.3,2.63,0.98-0.77,2.4,0c0.9-2.02,1.45-5.03,1.2-7.2c0.13-1.15-0.58-2.86,1.2-2.4
				c-0.72-1.18,2.69-5.56,0-4.8c1.1,0.12,1.33-0.11,1.2-1.2c1.22-1.32,3.19-1.42,3.6-3.6c-0.5-1.83,3.13-1.08,2.4-3.6
				c2.81-3.63,1.99,2.43,4.8-1.2c0.66-0.52,1.49-1.48,1.2-2.4c0.92,0.3,1.89-0.54,2.4-1.2c0.13-1.14-0.58-2.86,1.2-2.4
				c-0.75-1.65,4.33-3.81,3.6-1.2c1.14,0.14,2.87-0.59,2.4,1.2c-0.15-0.97,0.58-2.98-1.2-2.4c1.07,0.15,1.35-0.13,1.2-1.2
				c-2.18,0.43-1.03-1.68,0-2.4c-0.28-2.88,3.26,0.83,2.4-3.6c0.41,2.37-0.75,3.35-2.4,1.2c0.16-1.06-0.14-1.36-1.2-1.2
				c2.04-0.19,0.58,0.39,0,1.2c-0.37,1.15-1.2,4.2-2.4,4.8c-1.06,0.15-1.36-0.13-1.2-1.2c-1.06,0.15-1.36-0.13-1.2-1.2
				c0.46,1.71-1.72,0.96-2.4,2.4c2.63-0.3-0.77,0.98,0,2.4c-0.92-0.3-1.88,0.54-2.4,1.2c0.57-3.77-1.45-1.24-1.2-3.6
				c-0.66,0.52-1.5,1.48-1.2,2.4c-1.05-0.16-1.37,0.14-1.2,1.2c0.67-2.54-3.07,0.14-2.4-2.4c0.34,2.93-1.53-1.73-1.2,1.2
				c0.57-1.29-1.04-6.87-1.2-3.6c-1.07-0.16-1.36,0.13-1.2,1.2c-1.15,0.13-2.86-0.58-2.4,1.2c0.42-2.18-1.68-1.03-2.4,0
				c0.2-2.03-0.39-0.58-1.2,0c1.06-0.15,1.36,0.13,1.2,1.2c1.06-0.15,1.36,0.13,1.2,1.2c1.15,3.6-7.39,1.49-3.6,4.8
				c0.67,1.78-3.07,1.78-2.4,0c-0.22-2.02-3.78-3.95-3.6-1.2c0.63-2.03-1.29-3.06-1.2-4.8c0.11-1.23-0.74-4.15-2.4-3.6
				c0.16-1.05-0.14-1.37-1.2-1.2H76c-1.06,0.12-1.36-0.11-1.2-1.2c0.92,0.28,1.88-0.53,2.4-1.2c-0.27,3.12,2.24-0.55,3.6,0
				c1.85-1.41,1.85-5.79,0-7.2c-2.32,0.58-0.2-2.42-2.4,0c0.16-1.07-0.14-1.36-1.2-1.2c-0.13-1.15,0.58-2.86-1.2-2.4
				c2.64-1.97-2.24-0.49,1.2-3.6c-2.63,0.42,0.7-1.53,1.2-2.4c-1.68,0.45-1.68-1.65,0-1.2c0.51-0.63,1.48-1.51,2.4-1.2
				c-1.08,0.15-1.35-0.13-1.2-1.2c-1.15-0.14-2.86,0.58-2.4-1.2c-2.19,2.42-0.08-0.58-2.4,0c-0.13-1.15,0.58-2.86-1.2-2.4
				c0.56-1.45-1.03-6.82-1.2-3.6c-0.47-3.75-1.6-4.37-1.2,0c-0.4,1.77,2.24,2.26,0,3.6c1.98,1.67,0.42,1.08-1.2,1.2
				c-2.78,0.32-2.3-0.39-1.2-2.4c-0.6,0-1.8,0-2.4,0c2.7-1.75-1.23-3.57-2.4-1.2c3.59,0.13-4.33,1.97-4.8,3.6c1.55,1,1.53,2.6,0,3.6
				c0.53,2.26-1.66,5.47-1.2,1.2c-3.64,0.33,3.18-6.37-2.4-6c0.19-1.06-0.16-1.36-1.2-1.2c0.69-0.51,1.47-1.49,1.2-2.4
				c2.07,0.21,0.56-0.4,0-1.2c2.3,2.53,0.04-0.62,2.4,0c-0.6-2.32,1.67-3.99,2.4-6c2.05,0.16,0.57-0.36,0-1.2
				c1.99-1.28,0.97-3.98,1.2-6c-0.79-0.61-1.41-2.02-1.2,0c-2.98,0.43,0.43-6.26-2.4-7.2c-3.29,0.61,0.89-8.02,0,0
				c2.32-2.53,0,0.6,2.4,0c-0.41-1.63,3.88-1.65,3.6-6c0-1.07,0-2.53,0-3.6c1.06-0.13,1.36,0.11,1.2,1.2c1.34-2.23,1.83,0.39,3.6,0
				c0-1.5,0-3.3,0-4.8c1.88,1.53,0.48,2.88,3.6,2.4c-0.32,2.2,0.23,2.69,2.4,2.4c-0.2-0.92,0.62-3.01-1.2-2.4c1.07,0,2.53,0,3.6,0
				c-0.36-1.51,1.56-3.29,1.2-4.8c-3.11,0.42,0.62-3.35,0-4.8c-1.45,0.69-0.69,2.85-2.4,2.4c0.16,1.07-0.14,1.35-1.2,1.2
				c0.16,1.07-0.14,1.36-1.2,1.2c0.41,2.45-1.58-0.12-1.2-1.2c0.7,2.54-2.54-0.7,0,0c0.55-2.33-1.75-3.68-1.2-6
				c2.05-0.2,0.57,0.39,0,1.2c1.15-0.13,2.86,0.58,2.4-1.2c1.88,0.48,0.52-1.68,2.4-1.2c-0.65-1.92,1.32-3.17,1.2-4.8
				c-0.48,1.88,1.68,0.52,1.2,2.4v-1.2c-0.47,2.67,3.05,0.49,2.4-1.2c1.15-0.13,2.86,0.58,2.4-1.2c0.52,0.67,1.48,1.49,2.4,1.2
				c-0.3,0.92,0.54,1.88,1.2,2.4c0.56-0.81,2.06-1.4,0-1.2c2.18-0.32,2.69,0.28,2.4,2.4c-0.12-1.08,0.11-1.34,1.2-1.2
				c-0.12,1.05,0.11,1.37,1.2,1.2c-0.33-2.84,7.39,0.25,6-4.8c-0.29-0.92,0.54-1.88,1.2-2.4c-0.15,1.07,0.13,1.36,1.2,1.2
				c-0.74-2.96,3.89-1.63,1.2-3.6c-0.21-2.03,0.4-0.58,1.2,0c1.21,0.92,1.23,1.49,0,2.4c0.91-0.29,1.89,0.54,2.4,1.2
				c-0.17-1.06,0.15-1.36,1.2-1.2c-0.73-3.07,5.53,0.67,4.8-2.4c-0.42,2.17,1.68,1.04,2.4,0c-1.88-0.86-0.38-3.59-2.4-1.2
				c-0.07-3.74,1.04-5.43-3.6-4.8c-0.2-2.73-3.11-3.26,1.2-4.8c3.62-0.78,2.64-2.65,6,1.2c0,0,1.2,0,1.2,0
				c-2.55-1.73,0.58-2.73,2.4-2.4c0-1.5,0-3.3,0-4.8c3.92-0.57,3.46,0.96,6,1.2c-0.45-1.67,1.65-1.69,1.2,0
				c0.75-0.55,1.44-2.06,1.2,0c-0.34-2.94,1.54,1.74,1.2-1.2c0.29-1.16-0.89-4.24,1.2-3.6c-0.16-1.06,0.14-1.36,1.2-1.2
				c0,0.76,0,2.82,0,3.6c1.48-0.45,2.12,1.65,3.6,1.2c-2.63-0.3,0.77,0.98,0,2.4c1.06-0.16,1.36,0.14,1.2,1.2
				c-0.13-2.04,0.34-0.58,1.2,0c-0.08,1.07,0.08,1.36,1.2,1.2c3.24-0.97,5.55,5.09,8.4,1.2c-0.11,4.51,5.41,1.65,7.2,0
				c3.43,0.67,6.18-3.07,9.6-2.4c-0.1-2.63,0.95,1.44,2.4-1.2c-0.63,2.09,2.42,0.91,3.6,1.2c-0.64,2.09,2.42,0.91,3.6,1.2
				c0,0,3.6-1.2,3.6-1.2c-0.48-1.78,1.27-1.07,2.4-1.2c-0.69-1.45,4.31-5.13,1.2-4.8h1.2c-2.44,0.41,0.12-1.58,1.2-1.2
				c-2,1.67-0.4,1.08,1.2,1.2c-0.16-1.07,0.14-1.36,1.2-1.2h-1.2c2.19,0.29,2.69-0.22,2.4-2.4c3.13,0.48,1.72-0.87,3.6-2.4
				c-0.46,1.78,1.25,1.06,2.4,1.2c-0.3,0.92,0.54,1.88,1.2,2.4c1.02-0.72,2.19-2.83,0-2.4c-0.17-1.06,0.14-1.36,1.2-1.2h-1.2
				c1.61-0.12,3.19,0.47,1.2-1.2c3.71,1.51,1.18,1.01,1.2,3.6c0.66,0.51,1.49,1.48,1.2,2.4c0.67-1.78-3.07-1.78-2.4,0
				c1.71-0.46,0.96,1.72,2.4,2.4c-0.43,2.41,0.8,3.3,2.4,1.2c-0.44,1.68,1.64,1.69,1.2,0c0.6,0,1.8,0,2.4,0
				c-0.6-0.81-2.03-1.4,0-1.2c-0.6-0.8-2.03-1.4,0-1.2c-3.61,0.52,3.61-2.92,0-2.4c1.78,0.58,1.05-1.43,1.2-2.4c-0.6,0-1.8,0-2.4,0
				c0.52-0.66,1.48-1.49,2.4-1.2c-1.87-1.07-0.55-2.64,1.2-2.4h-1.2c1.5,0,3.3,0,4.8,0c0.8,0.58,1.41,2.04,1.2,0
				c0,1.07,0,2.53,0,3.6c1.47,0.4,5.3-1.1,4.8,1.2c-0.55,2.09,2.95,2.71,2.4,4.8c-2.61-1.23,0.76,4.41,0,1.2
				c1.56,1.7,7.77,8.16,4.8,2.4l1.2,1.2c-0.31-1.88-3.57-3.51-1.2-4.8c1.07,0.13,1.36-0.12,1.2-1.2c-2.63,0.42,0.06-3.89-2.4-4.8
				c1.07,0.15,1.35-0.13,1.2-1.2c0.66-0.52,1.49-1.48,1.2-2.4c2.28-0.28,2.79-1.79,6-1.2c0.45-1.78-1.25-1.07-2.4-1.2
				c0.15-1.05-0.13-1.37-1.2-1.2c0,0-1.2,0-1.2,0c0.29,3.28-3.33-1.05-4.8-1.2c-1.21,0.93-1.23,1.48,0,2.4
				c-1.48,0.45-2.12-1.65-3.6-1.2c3,0.34-1.56-2.04-2.4-2.4c0.44-1.68-1.64-1.68-1.2,0c0.63-2.09-2.42-0.91-3.6-1.2
				c-1.98-1.67-0.41-1.07,1.2-1.2c0.18-1.07-0.15-1.35-1.2-1.2c-0.46-2.61,3.94,0.03,4.8-2.4c-0.2,2.05,0.39,0.57,1.2,0
				c-0.16,1.07,0.14,1.35,1.2,1.2c-0.16-1.06,0.14-1.36,1.2-1.2c1.42-0.77,2.7,2.63,2.4,0c0.56,1.51,6.89,2.09,6,0
				c-0.43,1.68,1.63,1.69,1.2,0c1.07,0.15,1.35-0.13,1.2-1.2c1.36,0.32,2.72-1.04,2.4-2.4c1.02-0.71,2.19-2.83,0-2.4
				c1.88,0.48,0.52-1.68,2.4-1.2c-2.63,0.3,0.78-0.98,0-2.4c-1.15,0.14-2.86-0.58-2.4,1.2c-0.33-2.41,2.1,0.29,0,1.2
				c0.11,1.08-0.1,1.35-1.2,1.2c-0.6,0.6-1.8,1.8-2.4,2.4c-0.85-0.57-1.37-2.04-1.2,0c1.03-0.16,1.38,0.14,1.2,1.2
				c-3.63,0.59-1.32-1.43-3.6-1.2c0.67,2.54-3.07-0.14-2.4,2.4c-0.59-0.82-2.03-1.39,0-1.2c0.3-2.63-0.98,0.77-2.4,0
				c-0.55-1.36,3.13-3.87,0-3.6c0.15,1.07-0.13,1.35-1.2,1.2c-0.13,1.15,0.58,2.86-1.2,2.4c0.59,1.78-1.44,1.05-2.4,1.2
				c0.46,1.78-1.25,1.07-2.4,1.2c0.18-1.08-0.15-1.35-1.2-1.2c-1.04,0.15-1.38-0.13-1.2-1.2c-0.49,0.66-1.5,1.5-2.4,1.2
				c-0.87,1.21-1.52,1.23-2.4,0c2.08,0.2,0.54-0.39,0-1.2c1.88,0.48,0.52-1.68,2.4-1.2c1.44-0.95,1.35-3.43,2.4-4.8
				c-1.87,0.48-0.53-1.68-2.4-1.2c1.08,0.13,1.35-0.12,1.2-1.2c-2.45,0.57-0.06-1.53,0-2.4c1.9,0.04,5.25,0.44,4.8-2.4
				c-1.53-1.88-2.88-0.48-2.4-3.6c-1.78,0.46-1.07-1.25-1.2-2.4c1.15,0.14,2.86-0.59,2.4,1.2c0.64,1.23,4.18,2.19,3.6,0
				c-0.85,5.66,10.24-2.33,9.6-4.8c1.87,0.48,0.52-1.68,2.4-1.2c-0.46-1.71,1.72-0.95,2.4-2.4c-3.1,0.45,0.45-3.1,0,0
				c-0.08-4.62,0.81-1.78,2.4,0c0.79-0.42,2.68-1.49,3.6-1.2c0.14-1.15-0.59-2.86,1.2-2.4c0.53-0.67,1.47-1.49,2.4-1.2
				c-0.46-1.78,1.25-1.07,2.4-1.2c-0.2-2.04,0.4-0.57,1.2,0c-0.51-4.01,1.71-0.79,1.2-4.8c2.9-0.33-1.71,1.53,1.2,1.2
				c0,1.07,0,2.53,0,3.6c1.14-0.13,2.86,0.58,2.4-1.2c2.11,0.32,2.73-0.27,2.4-2.4c-0.94,1.23-1.47,1.21-2.4,0
				c0.7,2.54-2.54-0.7,0,0c-2.93,0.33,1.73-1.54-1.2-1.2c2.05,0.19,0.57-0.39,0-1.2c1.78,0.46,1.06-1.25,1.2-2.4
				c1.52,2.25,1.93-0.42,0,0c1.22-0.9,1.22-1.5,0-2.4c1.72,1.98,1.04,0.41,1.2-1.2c1.88,0.48,0.52-1.68,2.4-1.2
				c5.49-0.93,6.12,3.04,10.8,0c-0.54-2.23,2.88-0.39,3.6-2.4c2.82-2.44-3.07-2.52,4.8-2.4c-0.17-1.06,0.14-1.36,1.2-1.2
				c-1.23-0.9-1.21-1.5,0-2.4c0.65-0.5,1.5-1.49,1.2-2.4c0.5,0.68,1.49,1.48,2.4,1.2c1.16,0.16,2.99,0,3.6-1.2
				c-0.01,0.9,2.5,2.95,0,2.4c0,1.5,0,3.3,0,4.8c-1.1-0.16-1.33,0.14-1.2,1.2c2.67,2.32,2.56,0.46,2.4,4.8
				c-0.96-1.59-4.14-1.04-3.6-3.6c-0.57,3.78,1.45,1.24,1.2,3.6c-1.78-0.46-1.07,1.25-1.2,2.4c-1.68-0.44-1.68,1.64,0,1.2
				c-3.31-0.5-3.21,1.72,0,1.2c-0.12,1.61,0.46,3.19-1.2,1.2c-1.48-0.45-2.12,1.65-3.6,1.2c1.11,1.98,3.69,0.42,4.8,2.4
				c-0.2-2.06,0.39-0.57,1.2,0c-0.29-0.92,0.54-1.88,1.2-2.4c1.87-0.48,0.52,1.68,2.4,1.2c0.57-3.77-1.45-1.24-1.2-3.6
				c-1.07,0.16-1.35-0.14-1.2-1.2c-1.38-1.96-1.08-2.86,1.2-3.6c0.77,1.3,2.26,1.3,3.6,1.2c-0.6,0-1.8,0-2.4,0
				c0.58,0.81,2.04,1.4,0,1.2c1.07-0.16,1.36,0.14,1.2,1.2c-0.58-1.78,1.44-1.05,2.4-1.2c-2.04-0.2-0.57,0.39,0,1.2
				c-3.21,0.76,2.43-2.61,1.2,0c0.48-1.88-1.68-0.52-1.2-2.4c-1.77,0.45-1.07-1.25-1.2-2.4c1.07,0,2.53,0,3.6,0
				c-1.02-0.72-2.19-2.83,0-2.4c-0.14,1.06,0.12,1.36,1.2,1.2c-0.42-2.17,1.92-2.64,3.6-2.4c-0.46-1.78,1.25-1.07,2.4-1.2
				c1.02-1.71,3.12-1.12,4.8-1.2c-0.21-2.11,1.82-0.25,1.2-3.6c1.51,0.36,3.29-1.56,4.8-1.2c0,0,0-3.6,0-3.6
				c-0.15,1.07,0.13,1.35,1.2,1.2c0,0,2.4,2.4,2.4,2.4c-1.07-0.16-1.35,0.14-1.2,1.2c0.41-2.44-1.58,0.12-1.2,1.2
				c-1.2,0.84-3.42,0.91-1.2,2.4c-2.05-0.19-0.57,0.39,0,1.2c-2.15-0.47-2.65,2-2.4,3.6c0.57,3.75-1.45,1.25-1.2,3.6
				c0.14,1.14-0.58,2.86,1.2,2.4c-1.63,1.37-1.3,4.01-3.6,1.2c0.81,2.9,3.4,5.39,3.6,8.4c-0.93,1.25-1.48,1.2-2.4,0
				c0.19,2.07-0.39,0.56-1.2,0c0.11,1.35,0.09,2.82-1.2,3.6c0.46,1.79-1.25,1.06-2.4,1.2c0.5,0.87,3.83,2.82,1.2,2.4
				c0.58,0.8,2.04,1.4,0,1.2c-0.16,1.06,0.13,1.36,1.2,1.2c0,1.35,0,3.46,0,4.8c-1.03-1.68-3.77-1.67-4.8,0
				c1.08-0.18,1.35,0.15,1.2,1.2c-1.44,0.67-0.69,2.86-2.4,2.4c0.6,0.75,2.02,1.44,0,1.2h1.2c-1.07-0.12-1.35,0.11-1.2,1.2
				c1.06-0.12,1.36,0.11,1.2,1.2c-2.34,2.22,0.7-0.27,0,3.6c0,0.6,0,1.8,0,2.4c-1.76-0.23-3.06,1.33-1.2,2.4
				c-1.33,1.03-2.98,2.96-2.4,4.8c-1.78-0.47-1.07,1.26-1.2,2.4c-0.39,0.73-1.51,2.72-1.2,3.6c-1.05,0.12-1.37-0.11-1.2-1.2
				c-0.44,0.89-5.36,4.2-2.4,3.6c-2.11-0.04-0.53,0.28,0,1.2c-3.23,4.07-1.58,6.85-8.4,3.6c-2.16-2.6-0.24,1.4-2.4-1.2
				c0,0-2.4,2.4-2.4,2.4c0.14,1.22-0.12,1.24-1.2,1.2c0,0,0,1.2,0,1.2c1.82-0.41,3.06,2.78,1.2,3.6c0,0,1.2,3.6,1.2,3.6
				c-0.89,2.72-3.91,4.49-4.8,7.2c-1.45,1.63-4.32,2.33-4.8,4.8c-2.71-0.29,0.57,3.37,2.4,2.4c0.54,3.97-2.71,8.7-3.6,12
				c-2.03,2.43-5.16,5.97-1.2,8.4c-2.07,4.1,0.35,13.41,3.6,16.8c0.56,2.17-3.54,3.68-4.8,4.8c0.91,0.62,1.99,2.6,2.4,3.6
				c-0.39,9.17,7.56,21.05-3.6,26.4c1.83,2.82,0.39,4.77-2.4,6c0.49,2.08-2.01,2.7-3.6,2.4c0.2,0.86-0.17,1.51-1.2,1.2
				c0.31,0.85-0.55,1.94-1.2,2.4C247.91,242.98,247.05,244.08,246.4,244.54z"/>
		</defs>
		<clipPath id="path2588_00000114063068953266384410000010468826746513965217_">
			<use xlink:href="#path2588_00000103981558221530495360000011004776029027728567_"  style="overflow:visible;"/>
		</clipPath>
		
			<path style="clip-path:url(#path2588_00000114063068953266384410000010468826746513965217_);fill:#808080;stroke:#808080;stroke-miterlimit:10;" d="
			M244,120.5c0.56,45.43-61.56,45.43-61,0C182.44,75.07,244.56,75.07,244,120.5z"/>
		
			<use xlink:href="#path2588_00000103981558221530495360000011004776029027728567_"  style="overflow:visible;fill-rule:evenodd;clip-rule:evenodd;fill:none;stroke:#808080;stroke-miterlimit:10;"/>
	</g>
</g>
</svg>
