<?xml version="1.0" encoding="utf-8"?>
<!-- Generator: Adobe Illustrator 27.9.0, SVG Export Plug-In . SVG Version: 6.00 Build 0)  -->
<svg version="1.1" id="Capa_1" xmlns="http://www.w3.org/2000/svg" xmlns:xlink="http://www.w3.org/1999/xlink" x="0px" y="0px"
	 viewBox="0 0 512 512" style="enable-background:new 0 0 512 512;" xml:space="preserve">
<style type="text/css">
	
		.st0{clip-path:url(#SVGID_00000042733907094594880160000003560605338703454596_);fill-rule:evenodd;clip-rule:evenodd;fill:#FFFFFF;stroke:#000000;stroke-width:2;stroke-linecap:round;stroke-linejoin:round;stroke-miterlimit:19.9999;}
	
		.st1{clip-path:url(#SVGID_00000182529308847803927880000017022320632616602043_);fill-rule:evenodd;clip-rule:evenodd;fill:#FFFFFF;stroke:#808080;stroke-width:2;stroke-linecap:round;stroke-linejoin:round;stroke-miterlimit:19.9999;}
	
		.st2{clip-path:url(#SVGID_00000084526404346666495970000009457597456126838170_);fill-rule:evenodd;clip-rule:evenodd;fill:#FFFFFF;stroke:#808080;stroke-width:2;stroke-linecap:round;stroke-linejoin:round;stroke-miterlimit:19.9999;}
	
		.st3{clip-path:url(#SVGID_00000016044153853042206910000007213850928988155286_);fill-rule:evenodd;clip-rule:evenodd;fill:#FFFFFF;stroke:#808080;stroke-width:2;stroke-linecap:round;stroke-linejoin:round;stroke-miterlimit:19.9999;}
	.st4{fill:none;stroke:#808080;stroke-width:2;stroke-linecap:round;stroke-linejoin:round;stroke-miterlimit:10;}
	.st5{fill:#D44400;stroke:#FFFFFF;stroke-miterlimit:10;}
	.st6{fill:#FFFFFF;stroke:#D44400;stroke-miterlimit:10;}
</style>
<g id="Capa_1_00000165918469072286491680000010550114894821216392_">
</g>
<g id="Capa_2_00000050643313349017063990000000637503019617639055_">
	<g>
		<g>
			<g>
				<g>
					<defs>
						<rect id="SVGID_1_" x="-1193.6" y="-37.5" width="3888.7" height="2066.4"/>
					</defs>
					<clipPath id="SVGID_00000097487770606550339950000006099646086164911284_">
						<use xlink:href="#SVGID_1_"  style="overflow:visible;"/>
					</clipPath>
					
						<path id="path2588" style="clip-path:url(#SVGID_00000097487770606550339950000006099646086164911284_);fill-rule:evenodd;clip-rule:evenodd;fill:#FFFFFF;stroke:#000000;stroke-width:2;stroke-linecap:round;stroke-linejoin:round;stroke-miterlimit:19.9999;" d="
						M246.4,244.5l-1.2-1.2l-1.2,1.2h-1.2l-1.2,1.2h-1.2l-1.2,1.2H238v-1.2h-1.2v-1.2h1.2h-1.2l-1.2-2.4h-1.2h-1.2l-1.2,1.2h-1.2
						h-1.2v1.2l-1.2-1.2v-1.2l-2.4,1.2h-1.2h-1.2v-1.2h-1.2v-1.2h-1.2H220v-1.2l-2.4,2.4l-1.2,1.2h-1.2v-1.2l-1.2,1.2l1.2,1.2
						l1.2,1.2l-1.2,1.2h-2.4l-1.2-1.2v-1.2l-1.2,1.2h-1.2l1.2-1.2h-1.2H208l-1.2,1.2l-1.2,1.2v1.2l-1.2,1.2l-1.2-1.2l-1.2-1.2v-1.2
						h1.2l-1.2-1.2h-1.2h-1.2l1.2-1.2l-1.2-1.2l-1.2,1.2v1.2l-1.2-2.4v1.2l-1.2-1.2l-1.2,1.2v1.2h1.2h1.2v1.2v1.2v1.2v2.4H196
						l1.2,1.2H196l-2.4,1.2v1.2v1.2l-1.2-1.2l-1.2-1.2l-1.2,1.2l-1.2-1.2h-1.2v1.2v1.2l-1.2-1.2l-1.2,1.2v1.2H184v1.2l1.2,1.2H184
						h-1.2l-1.2,1.2l-1.2,1.2l-1.2-1.2H178h-1.2l-1.2,1.2l-2.4-2.4l-1.2-1.2h-2.4l-1.2,1.2h-1.2v-1.2H166v1.2h-1.2v-1.2l-1.2-1.2
						h-1.2v1.2v1.2h-1.2l-1.2,1.2h-1.2h-1.2h-1.2l-1.2,3.6v1.2H154h-1.2h-1.2v-1.2h-2.4v-1.2H148v1.2h-2.4h-1.2v1.2l-4.8,1.2h-1.2
						l-1.2,1.2v1.2v1.2H136v1.2v1.2l-1.2,1.2l-1.2,1.2v-1.2v1.2l-1.2,1.2v1.2h-1.2H130v-1.2l-1.2,1.2l-1.2,1.2h-1.2l-1.2,1.2H124
						v-1.2v1.2l-1.2-1.2v-1.2h-1.2v-1.2l1.2-1.2v-1.2h-1.2h-1.2v-2.4l-1.2-1.2v-1.2v1.2v1.2v-1.2v1.2v2.4H118v1.2l-1.2,2.4h-1.2
						l1.2,1.2h1.2l1.2,1.2v1.2H118h-1.2h-1.2v1.2v1.2v1.2v1.2l-1.2-1.2v1.2v-1.2l-1.2-1.2H112l-1.2,1.2v-1.2h1.2v-1.2v-1.2h1.2v-1.2
						v-1.2l-2.4-1.2h-1.2h1.2h-1.2v1.2v1.2h-1.2l-1.2,1.2l-1.2,1.2l-1.2,1.2v-1.2v1.2l-1.2,1.2h1.2h-1.2l1.2,1.2l1.2,1.2v1.2h-1.2
						l-1.2,1.2v-1.2l-1.2,1.2v-1.2h-1.2l-1.2,1.2v1.2v1.2h-1.2h-2.4l-1.2,1.2v1.2v-1.2v1.2l1.2,1.2v1.2l-1.2,1.2l-1.2,1.2h-1.2
						l-1.2,1.2l1.2,2.4l-1.2-1.2v-1.2h-1.2v1.2h-1.2l-1.2-1.2v1.2l-1.2-1.2v1.2v-1.2v-1.2H88l-1.2-1.2H88v-1.2h1.2v-1.2l-1.2-2.4
						l-1.2-3.6h-1.2h-1.2h-1.2v1.2H82l-1.2-1.2v-1.2H82l1.2-1.2v-1.2H82l1.2-1.2h1.2l1.2-1.2v-1.2v-1.2v-1.2v1.2l1.2-1.2H88l1.2-3.6
						v-1.2v-1.2v-1.2v-1.2v-1.2h1.2v-1.2l1.2-3.6h-1.2h1.2v-1.2l1.2-1.2H94l1.2-2.4v-1.2h1.2l1.2-1.2v-1.2l1.2-1.2h1.2v1.2h1.2
						l1.2-1.2l1.2-1.2v-1.2h1.2l1.2-1.2v-1.2v-1.2h1.2v-1.2l2.4-1.2h1.2v1.2h1.2h1.2v1.2v-2.4H112h1.2v-1.2H112v-1.2l1.2-1.2v-1.2
						h1.2h1.2v-1.2v-1.2v2.4h-1.2l-1.2-1.2v-1.2H112h1.2l-1.2,1.2l-1.2,3.6l-1.2,1.2h-1.2v-1.2h-1.2v-1.2v1.2H106l-1.2,1.2h1.2
						l-1.2,1.2v1.2h-1.2l-1.2,1.2v-1.2v-1.2h-1.2v-1.2l-1.2,1.2v1.2h-1.2v1.2v-1.2h-1.2h-1.2v-1.2v1.2l-1.2-1.2v1.2v-2.4v-1.2
						l-1.2-1.2v1.2h-1.2v1.2h-1.2h-1.2v1.2v-1.2h-1.2l-1.2,1.2v-1.2l-1.2,1.2H88v1.2h1.2v1.2v1.2l-1.2,1.2h-1.2h-1.2l-1.2,1.2
						l1.2,1.2v1.2h-1.2h-1.2v-1.2l-1.2-2.4h-1.2h-1.2v1.2v-1.2v-1.2l-1.2-1.2v-1.2v-1.2l-1.2-2.4H76v-1.2h-1.2H76h-1.2v-1.2H76
						l1.2-1.2v1.2h1.2l1.2-1.2h1.2l1.2-1.2v-1.2v-2.4v-1.2l-1.2-1.2h-1.2v-1.2l-1.2,1.2v-1.2h-1.2v-1.2v-1.2H76l1.2-1.2H76v-1.2
						l1.2-1.2H76l1.2-1.2l1.2-1.2h-1.2v-1.2h1.2l1.2-1.2h1.2h-1.2v-1.2h-1.2h-1.2v-1.2l-1.2,1.2v-1.2h-1.2v-1.2v-1.2h-1.2v-1.2v-1.2
						v-1.2l-1.2-1.2v1.2v-1.2l-1.2-2.4v1.2v1.2v1.2v1.2l1.2,1.2l-1.2,1.2l1.2,1.2h-1.2H70h-1.2h-1.2l1.2-2.4h-1.2h-1.2l1.2-1.2
						l-1.2-1.2h-1.2l-1.2,1.2h1.2l-1.2,1.2h-1.2l-2.4,1.2l-1.2,1.2l1.2,1.2v1.2l-1.2,1.2v2.4l-1.2,1.2v-2.4h-1.2v-1.2l1.2-2.4v-1.2
						l-1.2-1.2h-1.2v-1.2h-1.2l1.2-1.2v-1.2h1.2l-1.2-1.2l1.2,1.2v-1.2H58v-2.4l1.2-1.2l1.2-2.4h1.2l-1.2-1.2l1.2-1.2v-1.2v-1.2
						v-1.2v-1.2l-1.2-1.2v1.2h-1.2v-1.2v-4.8l-1.2-1.2h-1.2v-1.2v-1.2l1.2-1.2v1.2v2.4l1.2-1.2v1.2h1.2v-1.2h1.2l1.2-1.2l1.2-2.4
						v-1.2v-1.2v-1.2v-1.2h1.2v1.2l1.2-1.2l1.2,1.2h1.2v-1.2v-1.2v-1.2v-1.2l1.2,1.2v1.2h1.2h1.2v1.2v1.2h1.2h1.2v-2.4h-1.2h1.2H76
						h1.2v-1.2l1.2-2.4v-1.2h-1.2v-1.2l1.2-2.4v-1.2l-1.2,1.2v1.2H76v1.2h-1.2v1.2h-1.2v1.2l-1.2-1.2v-1.2v1.2l-1.2-1.2h1.2v-2.4
						l-1.2-1.2v-1.2v-1.2h1.2l-1.2,1.2h1.2h1.2v-1.2h1.2v-1.2H76v-2.4l1.2-1.2v-1.2v1.2h1.2v1.2v-1.2v1.2h1.2l1.2-1.2v-1.2H82h1.2
						v-1.2l1.2,1.2h1.2v1.2l1.2,1.2l1.2-1.2h-1.2H88h1.2v2.4v-1.2h1.2v1.2h1.2v-1.2h1.2H94l3.6-1.2v-2.4v-1.2l1.2-1.2v1.2h1.2v-1.2
						l1.2-1.2h1.2l-1.2-1.2v-1.2l1.2,1.2l1.2,1.2l-1.2,1.2h1.2l1.2,1.2v-1.2h1.2v-1.2h1.2h1.2h1.2h1.2v-1.2v1.2h1.2l1.2-1.2
						l-1.2-1.2v-1.2l-1.2,1.2v-2.4v-1.2v-1.2h-1.2h-1.2h-1.2v-1.2l-1.2-1.2v-1.2l2.4-1.2h1.2l1.2-1.2h1.2l1.2,1.2l1.2,1.2h1.2
						l-1.2-1.2l1.2-1.2h1.2h1.2v-1.2v-1.2v-1.2v-1.2h1.2h1.2h1.2l1.2,1.2h1.2v-1.2h1.2v1.2l1.2-1.2v1.2v-1.2l1.2,1.2v-1.2v-1.2v-2.4
						h1.2v-1.2h1.2v1.2v2.4h1.2l1.2,1.2h1.2h-1.2l1.2,1.2v1.2h1.2v1.2v-1.2l1.2,1.2v1.2h1.2h1.2h1.2l1.2,1.2l1.2,1.2h2.4l1.2-1.2
						v1.2l1.2,1.2h2.4l3.6-2.4h2.4l2.4-1.2l2.4-1.2h1.2h1.2v-1.2l1.2,1.2l1.2-1.2v1.2h1.2h2.4v1.2h1.2h2.4l3.6-1.2v-1.2h1.2h1.2
						v-1.2l1.2-1.2l1.2-2.4h-1.2h1.2h-1.2l1.2-1.2h1.2l-1.2,1.2h1.2h1.2v-1.2h1.2h-1.2h1.2h1.2v-1.2v-1.2h1.2h1.2v-1.2l1.2-1.2v1.2
						h1.2h1.2v1.2l1.2,1.2l1.2-1.2v-1.2h-1.2v-1.2h1.2h-1.2h1.2h1.2l-1.2-1.2l2.4,1.2l-1.2,1.2v1.2l1.2,1.2v1.2v-1.2h-1.2h-1.2v1.2
						h1.2v1.2l1.2,1.2v1.2v1.2h1.2l1.2-1.2v1.2h1.2v-1.2h1.2h1.2l-1.2-1.2h1.2l-1.2-1.2h1.2h-1.2l1.2-1.2l1.2-1.2H202h1.2v-2.4H202
						h-1.2l1.2-1.2h1.2l-1.2-1.2l1.2-1.2h1.2h-1.2h1.2h1.2h1.2h1.2l1.2,1.2v-1.2v1.2v1.2v1.2h1.2h1.2h1.2h1.2v1.2v1.2l1.2,1.2
						l1.2,1.2v1.2h-1.2l1.2,2.4v-1.2l1.2,1.2l1.2,1.2l1.2,1.2l1.2,1.2h1.2l-1.2-2.4l1.2,1.2l-1.2-2.4l-1.2-1.2l1.2-1.2h1.2v-1.2
						h-1.2v-1.2v-1.2v-1.2l-1.2-1.2h1.2v-1.2l1.2-1.2v-1.2h1.2l1.2-1.2h1.2h2.4v-1.2h-1.2H226v-1.2h-1.2h-1.2v1.2h-1.2l-1.2-1.2
						l-2.4-1.2l-1.2,1.2l1.2,1.2h-1.2l-1.2-1.2h-1.2h1.2l-1.2-1.2l-2.4-1.2v-1.2h-1.2v1.2v-1.2h-1.2H208l-1.2-1.2h1.2h1.2v-1.2H208
						v-1.2h1.2h2.4l1.2-1.2v1.2l1.2-1.2v1.2h1.2v-1.2h1.2h1.2l1.2,1.2v-1.2l1.2,1.2h1.2h1.2h1.2h1.2v-1.2v1.2h1.2v-1.2h1.2v-1.2h1.2
						l1.2-1.2v-1.2l1.2-1.2v-1.2h-1.2h1.2v-1.2h1.2h-1.2l1.2-1.2v-1.2h-1.2h-1.2v1.2v-1.2l1.2,1.2l-1.2,1.2v1.2h-1.2l-1.2,1.2
						l-1.2,1.2l-1.2-1.2v1.2h1.2v1.2h-1.2h-1.2v-1.2h-1.2v1.2h-1.2H220v1.2l-1.2-1.2h1.2v-1.2l-1.2,1.2h-1.2v-1.2l1.2-1.2v-1.2h-1.2
						v1.2h-1.2v1.2v1.2h-1.2v1.2h-2.4v1.2h-1.2h-1.2v-1.2h-1.2H208v-1.2l-1.2,1.2h-1.2l-1.2,1.2l-1.2-1.2h1.2l-1.2-1.2h1.2v-1.2h1.2
						l1.2-1.2v-1.2l1.2-2.4h-1.2v-1.2h-1.2h1.2v-1.2h-1.2l1.2-2.4h1.2h1.2h1.2l1.2-1.2v-1.2l-1.2-1.2h-1.2v-1.2v-1.2H208v-1.2v-1.2
						h1.2h1.2v1.2l1.2,1.2h2.4v-1.2v1.2l1.2,1.2l2.4-1.2l1.2-1.2h1.2l1.2-1.2l1.2-1.2l1.2-1.2v-1.2h1.2v-1.2h1.2v-1.2h1.2l1.2-1.2
						h-1.2v-1.2h1.2v1.2v-1.2v-1.2h1.2v1.2l1.2,1.2l2.4-1.2h1.2v-1.2v-1.2h1.2l1.2-1.2h1.2v-1.2h1.2h1.2v-1.2l1.2,1.2v-1.2v-1.2h1.2
						v-1.2v-1.2h1.2l-1.2,1.2h1.2v1.2v1.2v1.2h1.2h1.2v-1.2h2.4v-2.4l-1.2,1.2l-1.2-1.2v1.2l-1.2-1.2h1.2h-1.2l1.2-1.2h-1.2h1.2
						l-1.2-1.2h1.2v-1.2v-1.2l1.2,1.2v-1.2h-1.2l1.2-1.2l-1.2-1.2l1.2,1.2v-1.2v-1.2h1.2v-1.2h1.2h1.2h1.2h1.2h1.2l1.2,1.2h1.2h1.2
						l2.4-1.2v-1.2h2.4l1.2-1.2l1.2-1.2l-1.2-1.2h2.4h1.2h1.2v-1.2h1.2l-1.2-1.2l1.2-1.2l1.2-1.2v-1.2l1.2,1.2h1.2h2.4l1.2-1.2
						l1.2,2.4h-1.2v1.2v1.2v1.2v1.2h-1.2v1.2l1.2,1.2h1.2v1.2v1.2v1.2l-1.2-1.2h-1.2l-1.2-1.2v-1.2v1.2v1.2h1.2v1.2h-1.2v1.2v1.2
						H274v1.2h1.2H274h-1.2v1.2h2.4v1.2v1.2l-1.2-1.2h-1.2l-1.2,1.2h-1.2l1.2,1.2h1.2h1.2l1.2,1.2v-1.2l1.2,1.2v-1.2l1.2-1.2h1.2
						v1.2h1.2v-1.2v-1.2h-1.2v-1.2h-1.2v-1.2l-1.2-2.4l2.4-1.2l1.2,1.2h1.2h1.2h-1.2H280l1.2,1.2H280h1.2v1.2v-1.2h2.4h-1.2l1.2,1.2
						h-1.2l2.4-1.2v1.2v-1.2h-1.2v-1.2h-1.2v-1.2v-1.2h1.2h1.2h1.2l-1.2-1.2v-1.2h1.2v1.2h1.2v-1.2l1.2-1.2h1.2h1.2v-1.2h1.2h1.2
						l1.2-1.2h1.2h1.2h1.2v-1.2h1.2v-2.4h1.2l2.4-1.2h1.2v-3.6v1.2h1.2l2.4,2.4h-1.2v1.2v-1.2l-1.2,1.2v1.2l-2.4,1.2l1.2,1.2h-1.2
						l1.2,1.2h-1.2l-1.2,1.2v2.4v1.2v1.2h-1.2v1.2v1.2v1.2h1.2l-1.2,1.2v1.2h-1.2l-1.2-1.2l1.2,2.4v1.2l1.2,1.2l1.2,2.4v1.2
						l-1.2,1.2l-1.2-1.2v1.2l-1.2-1.2v1.2v1.2l-1.2,1.2v1.2h-1.2h-1.2l1.2,1.2l1.2,1.2h-1.2l1.2,1.2h-1.2v1.2h1.2v2.4v1.2v1.2
						l-1.2-1.2h-2.4l-1.2,1.2h1.2v1.2l-1.2,1.2v1.2h-1.2l1.2,1.2h-1.2h1.2h-1.2v1.2h1.2v1.2l-1.2,1.2h1.2v1.2v1.2v1.2v1.2h-1.2
						l-1.2,1.2l1.2,1.2l-2.4,2.4v2.4h-1.2v1.2v1.2l-1.2,2.4v1.2h-1.2v-1.2l-2.4,2.4l-1.2,1.2h1.2h-1.2l1.2,1.2l-1.2,1.2l-1.2,3.6
						h-2.4h-1.2l-2.4-1.2l-1.2-1.2v1.2l-1.2-1.2l-2.4,2.4v1.2H268v1.2h1.2l1.2,2.4l-1.2,1.2l1.2,3.6l-1.2,2.4l-1.2,1.2l-1.2,1.2
						l-1.2,2.4l-1.2,1.2l-2.4,1.2l-1.2,2.4h-1.2l1.2,2.4h2.4v1.2l-1.2,6l-2.4,3.6v1.2l-3.6,4.8l1.2,2.4l1.2,1.2l-1.2,2.4l1.2,4.8
						v2.4l1.2,3.6l1.2,2.4l1.2,1.2v1.2l-1.2,1.2l-3.6,2.4l1.2,1.2l1.2,2.4v1.2v2.4l1.2,4.8v2.4l1.2,2.4v2.4v4.8l-2.4,3.6l-2.4,1.2
						l-1.2,1.2l1.2,3.6l-3.6,2.4v1.2l-1.2,1.2H250v1.2h-1.2v1.2l-1.2,1.2v1.2L246.4,244.5z"/>
				</g>
			</g>
		</g>
	</g>
	<g>
		<g>
			<g>
				<g>
					<defs>
						
							<rect id="SVGID_00000065040873691360542630000002448154188468154497_" x="-1193.6" y="-37.5" width="3888.7" height="2066.4"/>
					</defs>
					<clipPath id="SVGID_00000153697433635730736800000003458149593240375473_">
						<use xlink:href="#SVGID_00000065040873691360542630000002448154188468154497_"  style="overflow:visible;"/>
					</clipPath>
					
						<path id="path2626" style="clip-path:url(#SVGID_00000153697433635730736800000003458149593240375473_);fill-rule:evenodd;clip-rule:evenodd;fill:#FFFFFF;stroke:#808080;stroke-width:2;stroke-linecap:round;stroke-linejoin:round;stroke-miterlimit:19.9999;" d="
						M121.6,367l1.2-1.2v-2.4l1.2-1.2v1.2h1.2l1.2-1.2V361l1.2,1.2V361v1.2h-1.2v1.2v-1.2v1.2l1.2-1.2v1.2v-1.2h1.2V361v-1.2v1.2
						l1.2-1.2v1.2v-1.2h1.2h1.2h1.2v-1.2v-1.2v-1.2h1.2v1.2h1.2v-1.2v1.2v-1.2h1.2h1.2l1.2-2.4v-1.2h1.2v-1.2h1.2h1.2h1.2l1.2,1.2
						v-1.2h1.2l1.2,1.2v-1.2h-1.2v-1.2h1.2V349v-1.2l-1.2-1.2v1.2v-1.2l1.2-2.4h1.2L148,343l1.2-1.2l-1.2-1.2l1.2-1.2H148h-1.2v-1.2
						l-1.2,1.2l-1.2,1.2v1.2h1.2v2.4h-2.4v1.2l-1.2-1.2l-1.2,1.2v1.2h1.2v1.2v1.2l-1.2,1.2h-2.4v1.2h-1.2l-1.2,1.2l-1.2-1.2v1.2
						h-1.2h-1.2v-2.4v1.2h-1.2H130v-1.2v1.2l-1.2,1.2h1.2l-1.2,1.2h-2.4v1.2l-1.2,1.2L124,355h-2.4h1.2h-1.2v1.2h1.2h-1.2v1.2h-1.2
						v1.2v-1.2h-1.2L118,355h-1.2v1.2l-1.2,1.2l-1.2-1.2l-1.2-1.2h-2.4v1.2l-1.2,1.2v-1.2h-1.2l1.2-3.6v-1.2l1.2-2.4l1.2-2.4
						l-1.2-1.2h1.2v-1.2v1.2l1.2,1.2v1.2l1.2,1.2l1.2,1.2v1.2l1.2,1.2v-1.2v-1.2V349v-1.2v-1.2l1.2-2.4h-1.2V343v-1.2h-1.2l1.2-1.2
						h-1.2v-1.2h-1.2l1.2-1.2h1.2v1.2h1.2h1.2h1.2v1.2l1.2,1.2h1.2h1.2l1.2-1.2h1.2v-1.2h1.2v-1.2l1.2-1.2v-1.2v-1.2h1.2l1.2-2.4
						v1.2v-1.2l1.2-1.2h1.2v-1.2l2.4-1.2l1.2,1.2v-1.2h1.2l-1.2-1.2v1.2v-1.2h1.2v-1.2l1.2,1.2l2.4-3.6h1.2l1.2-1.2h-1.2v1.2v-1.2
						v1.2H142h-1.2h-1.2h-1.2l1.2-1.2l-1.2-1.2v-1.2l-1.2,1.2H136v1.2l-1.2,1.2h-1.2l-2.4,1.2H130l-1.2,2.4h-1.2v1.2h-1.2l-1.2,1.2
						l-1.2-1.2l-1.2-1.2h-1.2h-1.2l-1.2-1.2v1.2H118v1.2l-1.2,1.2v-1.2l-1.2,1.2h-1.2l1.2-1.2h-1.2v-1.2h-1.2v-1.2l-1.2-2.4h-1.2
						h-1.2v-1.2v-1.2h1.2v-1.2h-1.2h1.2V319v-2.4l-1.2-1.2v-1.2h-1.2h-1.2L106,313h-1.2v1.2l-1.2,1.2h-1.2v-1.2v1.2l-1.2-2.4
						l1.2-1.2v-1.2h-1.2l1.2-1.2h1.2l1.2,1.2v-1.2v1.2h1.2l2.4-1.2v-1.2l1.2,1.2v-1.2h1.2l-1.2-1.2v1.2V307l1.2-1.2v1.2l1.2-1.2v1.2
						l1.2-1.2v1.2l1.2,1.2l-1.2,1.2l1.2,1.2l-1.2,1.2h1.2h-1.2L112,313v1.2h-1.2l1.2,2.4h1.2l1.2-1.2v-1.2v1.2h1.2l-1.2-1.2h1.2v1.2
						h1.2v-1.2v1.2l1.2-1.2v1.2l1.2,1.2v-1.2v-1.2V313H118v-1.2v-1.2v-1.2h1.2l-1.2-1.2l1.2-1.2v1.2h1.2h1.2V307h1.2h-1.2h-1.2v-1.2
						v-1.2l-1.2,1.2v-1.2h1.2v-1.2v-1.2h1.2h-1.2l1.2-1.2h-1.2l-1.2,1.2v1.2v-1.2v-2.4v-1.2v-1.2l-1.2-1.2V295v-1.2h1.2l1.2,1.2
						l-1.2,1.2h1.2V295v-1.2l-1.2,1.2v-1.2v-1.2v-1.2h1.2v-1.2v1.2h2.4l1.2-1.2l1.2,1.2l-1.2-1.2l1.2-1.2v1.2V289h1.2v-1.2v-1.2v1.2
						h1.2h1.2v-1.2v1.2v-1.2v-1.2l-1.2-1.2l1.2-1.2v-1.2h1.2v-1.2l1.2-1.2v-1.2h1.2l1.2-1.2l1.2-2.4l1.2-1.2l1.2-2.4H136v-1.2h1.2
						v-1.2v-1.2l1.2-1.2h1.2l4.8-1.2v-1.2h1.2h2.4v-1.2h1.2v1.2h2.4v1.2h1.2h1.2h1.2v-1.2l1.2-3.6h1.2h1.2h1.2l1.2-1.2h1.2v-1.2
						v-1.2h1.2l1.2,1.2v1.2h1.2v-1.2h1.2v1.2h1.2l1.2-1.2h2.4l1.2,1.2l2.4,2.4l1.2-1.2h1.2h1.2l1.2,1.2l1.2-1.2l1.2-1.2h1.2h1.2
						l-1.2-1.2v-1.2h1.2v-1.2l1.2-1.2l1.2,1.2v-1.2V253h1.2l1.2,1.2l1.2-1.2l1.2,1.2l1.2,1.2v-1.2V253l2.4-1.2h1.2l-1.2-1.2h1.2
						v-2.4V247v-1.2v-1.2H196h-1.2v-1.2l1.2-1.2l1.2,1.2v-1.2l1.2,2.4v-1.2l1.2-1.2l1.2,1.2l-1.2,1.2h1.2h1.2l1.2,1.2H202v1.2
						l1.2,1.2l1.2,1.2l1.2-1.2V247l1.2-1.2l1.2-1.2h1.2h1.2l-1.2,1.2h1.2l1.2-1.2v1.2l1.2,1.2h2.4l1.2-1.2l-1.2-1.2l-1.2-1.2
						l1.2-1.2v1.2h1.2l1.2-1.2l2.4-2.4v1.2h1.2h1.2v1.2h1.2v1.2h1.2h1.2l2.4-1.2v1.2l1.2,1.2v-1.2h1.2h1.2l1.2-1.2h1.2h1.2l1.2,2.4
						h1.2h-1.2v1.2h1.2v1.2h1.2l1.2-1.2h1.2l1.2-1.2h1.2l1.2-1.2l1.2,1.2h1.2l1.2,1.2l1.2-1.2h1.2l1.2,1.2h1.2l-2.4,2.4l-1.2,2.4
						l-1.2,1.2v4.8v1.2l2.4,2.4l1.2,3.6h1.2v1.2l1.2,1.2l2.4,1.2l2.4,1.2l4.8,2.4h1.2l-1.2,1.2l1.2,2.4l-1.2,1.2h-1.2v1.2l-1.2,1.2
						l-1.2,1.2v1.2v2.4l-1.2,4.8v1.2v2.4h-1.2v1.2l-1.2,1.2v1.2v1.2l-1.2,2.4l-2.4,1.2h-2.4v1.2h-2.4h-1.2l-2.4-1.2H244l-1.2,1.2
						v1.2l-1.2,1.2v2.4h-1.2h-1.2l-1.2-1.2l-1.2-1.2h-1.2l-1.2,1.2l-1.2-1.2H232l-2.4-1.2l-1.2,1.2l-2.4-1.2h-2.4h-1.2l-1.2,1.2
						l-2.4-2.4v-1.2l-1.2-1.2l-1.2,1.2h-1.2v1.2l-2.4,1.2l-2.4,3.6l-1.2-1.2H208h-1.2l-1.2,1.2l-2.4,1.2v1.2H202v1.2v1.2h-2.4v1.2
						l-1.2,1.2l-1.2,1.2L196,313h-2.4h-1.2h-1.2v1.2l-1.2,1.2l-2.4-1.2l2.4,3.6h1.2v2.4v1.2v2.4v1.2l1.2,2.4l1.2,8.4v1.2l-1.2,1.2
						l1.2,2.4l-1.2,1.2v1.2h1.2l1.2,1.2v1.2l2.4,1.2v1.2v1.2h1.2h1.2h1.2v2.4l-1.2,1.2v2.4l-1.2,1.2l1.2,2.4v1.2v2.4h1.2l1.2,1.2
						h1.2v1.2l1.2,1.2h1.2h2.4l1.2-1.2h2.4h2.4h1.2l-1.2,1.2v1.2l1.2,1.2l-1.2,1.2h-1.2l-1.2,1.2h-1.2v1.2h1.2l1.2,1.2v1.2v2.4
						l1.2,1.2v1.2h-1.2l-1.2,1.2v1.2l-3.6,1.2v1.2l-1.2,1.2l-1.2,1.2h-1.2h-1.2L202,385l-2.4,1.2v1.2v1.2h-1.2h-1.2l-2.4,1.2h-1.2
						v1.2h-1.2l-2.4,1.2V391l-1.2,1.2v2.4l-1.2,1.2l-1.2-1.2H184h-2.4l-1.2,2.4h-1.2l-1.2-1.2h-1.2l-2.4,1.2h-1.2l-2.4-2.4h-1.2H166
						h-1.2h-2.4h-4.8v1.2l1.2,1.2l-3.6,2.4H154h-1.2h-2.4H148h-6l-1.2,1.2l-1.2,1.2l-1.2,1.2l-1.2,1.2v1.2v3.6l-3.6,2.4h-1.2
						l-1.2,1.2h-2.4l-2.4,1.2l-2.4,2.4l-1.2,1.2l1.2,1.2l-1.2,1.2l-1.2,1.2l-2.4,2.4l-2.4,1.2l-6,2.4l-1.2,1.2l-1.2,1.2v1.2
						l-1.2,1.2l-2.4,1.2h-1.2l-1.2-2.4v-1.2v-1.2h1.2l-1.2-1.2h1.2h-1.2l1.2-1.2l-1.2-1.2v-1.2V421v-1.2v-1.2v-2.4V415v-1.2v-2.4
						V409h1.2v-1.2l1.2-1.2h-1.2v-1.2v-1.2h-1.2h1.2V403v-1.2h-1.2l1.2-1.2l1.2-1.2l-1.2-1.2V397v-2.4l-1.2-1.2v-1.2V391l1.2-1.2
						v-3.6h-1.2V385v-1.2h2.4v1.2l1.2-1.2h1.2l1.2-1.2h1.2v-1.2h1.2v1.2l1.2,1.2v1.2h1.2l1.2-1.2l-1.2-1.2h1.2v-1.2l1.2-1.2
						l-1.2-1.2l-1.2-1.2H112l-1.2-1.2v-1.2h1.2l1.2,1.2l1.2-1.2l1.2-1.2l1.2-2.4l-1.2-2.4h1.2h1.2v-1.2l1.2,1.2v-1.2h1.2L121.6,367z
						 M116.8,351.4h1.2H116.8z"/>
				</g>
			</g>
		</g>
	</g>
	<g>
		<g>
			<g>
				<g>
					<defs>
						
							<rect id="SVGID_00000050644637939108683870000012679697482356471996_" x="-1193.6" y="-37.5" width="3888.7" height="2066.4"/>
					</defs>
					<clipPath id="SVGID_00000049933800587341154150000012687164682321853595_">
						<use xlink:href="#SVGID_00000050644637939108683870000012679697482356471996_"  style="overflow:visible;"/>
					</clipPath>
					
						<path id="path2662" style="clip-path:url(#SVGID_00000049933800587341154150000012687164682321853595_);fill-rule:evenodd;clip-rule:evenodd;fill:#FFFFFF;stroke:#808080;stroke-width:2;stroke-linecap:round;stroke-linejoin:round;stroke-miterlimit:19.9999;" d="
						M421.6,374.1v-1.2l-1.2,1.2v1.2l-1.2,1.2v1.2l1.2,1.2v2.4h1.2l-1.2,1.2l-1.2-2.4h-2.4l-2.4-1.2h-1.2h-2.4h-1.2h-1.2l-2.4,2.4
						l-1.2,1.2l1.2,1.2l-2.4,2.4h-1.2l-3.6,2.4h-1.2v1.2l-1.2,4.8v1.2l-1.2,2.4H394h-1.2h-1.2h-1.2v1.2v1.2h-1.2h1.2v1.2h-1.2v1.2
						H388v1.2v1.2v1.2h-1.2h-1.2l-2.4,1.2v1.2v1.2l1.2,1.2l1.2,1.2h2.4h3.6v3.6l1.2,1.2l1.2,1.2h-1.2l-1.2,2.4l-1.2,1.2v1.2
						l-1.2,1.2v1.2H388v1.2l1.2,2.4l-1.2,1.2h-1.2l-1.2,2.4h-1.2h-3.6v-1.2h-1.2v1.2h-1.2h-1.2h-2.4v-2.4l-1.2-2.4l-3.6-2.4h-1.2
						l-1.2-1.2h-1.2H364v2.4h-1.2l-2.4-1.2l-1.2,2.4v1.2v1.2v1.2L358,433h1.2l-1.2,1.2h1.2v1.2l1.2,2.4h-1.2l1.2,1.2l-1.2,1.2v1.2
						H358v1.2l-1.2,3.6h-1.2h-1.2l-1.2,1.2l-2.4,1.2h-1.2h-2.4l-2.4,1.2l-1.2,1.2H340l-1.2,1.2l-1.2,1.2v-1.2h-2.4H334l-2.4,1.2
						l-1.2-2.4l-3.6,1.2v1.2l-1.2,1.2v1.2h-1.2v1.2l-1.2,1.2H322l-1.2,1.2v-1.2l1.2-1.2l-1.2-1.2l1.2-1.2h-1.2l-2.4-2.4V451v-1.2
						v-1.2l-1.2-1.2H316h-1.2h-2.4v-1.2H310h-1.2v1.2v1.2l1.2,1.2l-2.4,1.2l-3.6,1.2h-1.2v1.2l-1.2-1.2l-2.4,1.2l-3.6-1.2l-2.4,1.2
						v-1.2v-2.4h1.2v-1.2l1.2-1.2v-1.2V445h1.2l1.2-1.2v-1.2l-1.2,1.2v-1.2l-2.4,1.2l-1.2-1.2H292h-1.2h-3.6l-1.2-1.2l-1.2-1.2h-1.2
						l-1.2-2.4l-1.2-1.2H280l-4.8,2.4H274h-1.2v-1.2h-1.2l-2.4,2.4h-2.4l-1.2,1.2h-1.2h-3.6h-2.4v2.4l-1.2,1.2H256h-1.2v1.2
						l-1.2,1.2l-1.2-1.2l-1.2-1.2l1.2-1.2v-3.6v-4.8l1.2-2.4v-1.2h-1.2l-2.4-1.2v1.2l-1.2,3.6l-1.2,4.8h-1.2l-1.2,1.2H244l-1.2,1.2
						l-1.2-1.2h-2.4H238l-1.2,1.2v1.2h-1.2v1.2l-1.2,1.2l-1.2,2.4l-1.2,1.2h-2.4h-1.2v1.2h-1.2H226v1.2h-1.2h-1.2h-1.2l-1.2,1.2
						v-1.2l-1.2,1.2h-1.2v-1.2h-1.2h-1.2l-1.2,1.2l-3.6-2.4h-2.4l1.2-8.4v-1.2l-1.2-2.4H208h-1.2h-2.4v-1.2h1.2h-1.2l1.2-1.2
						l-1.2-1.2l-1.2-1.2V433v-2.4l1.2-1.2l1.2-3.6l3.6-2.4v-1.2l1.2-1.2l1.2-2.4v-1.2l3.6-1.2l2.4-2.4v-1.2l1.2,1.2l1.2-1.2h1.2h1.2
						l1.2-1.2l1.2-2.4v-3.6l-1.2-1.2l-1.2-3.6l-1.2-1.2l-1.2-1.2h-1.2l-2.4,1.2l-1.2-1.2H214l-2.4,2.4h-1.2l-1.2-2.4v-2.4v-1.2v-7.2
						v-1.2V385h1.2h-1.2l-1.2-2.4l3.6-1.2v-1.2l1.2-1.2h1.2v-1.2l-1.2-1.2v-2.4V373l-1.2-1.2h-1.2v-1.2h1.2l1.2-1.2h1.2l1.2-1.2
						L214,367v-1.2l1.2-1.2H214h-2.4h-2.4l-1.2,1.2h-2.4h-1.2l-1.2-1.2v-1.2H202l-1.2-1.2h-1.2v-2.4v-1.2l-1.2-2.4l1.2-1.2v-2.4
						l1.2-1.2V349h-1.2h-1.2h-1.2v-1.2v-1.2l-2.4-1.2v-1.2l-1.2-1.2h-1.2v-1.2l1.2-1.2l-1.2-2.4l1.2-1.2v-1.2l-1.2-8.4l-1.2-2.4
						v-1.2v-2.4v-1.2v-2.4H190l-2.4-3.6l2.4,1.2l1.2-1.2V313h1.2h1.2h2.4l1.2,1.2l1.2-1.2l1.2-1.2v-1.2h2.4v-1.2v-1.2h1.2V307
						l2.4-1.2l1.2-1.2h1.2h1.2l1.2,1.2l2.4-3.6l2.4-1.2v-1.2h1.2l1.2-1.2l1.2,1.2v1.2l2.4,2.4l1.2-1.2h1.2h2.4l2.4,1.2l1.2-1.2
						l2.4,1.2h1.2l1.2,1.2l1.2-1.2h1.2l1.2,1.2l1.2,1.2h1.2h1.2v-2.4l1.2-1.2V301l1.2-1.2h1.2l2.4,1.2h1.2h2.4v-1.2h2.4h1.2l1.2,2.4
						v1.2l3.6,2.4v2.4l-1.2-1.2l-1.2,1.2l1.2,1.2h-1.2H256l-2.4,1.2h3.6v2.4H256l2.4,1.2l1.2-1.2h1.2v1.2v1.2h2.4l2.4,1.2v1.2h2.4
						h1.2l1.2,1.2l1.2,1.2h1.2l1.2-1.2l1.2-1.2h1.2h1.2v1.2h1.2l1.2,1.2v1.2h-1.2h-1.2h-1.2l-1.2,1.2l-1.2-1.2v1.2v1.2v-1.2h1.2v1.2
						l2.4,1.2v1.2h1.2l2.4-1.2l1.2,1.2h2.4l1.2,2.4v2.4l1.2,1.2l2.4,1.2h1.2h1.2l1.2,1.2h1.2l1.2,1.2l1.2,1.2v2.4h1.2v1.2h2.4
						l1.2-2.4l3.6-1.2l1.2,1.2l2.4,2.4l1.2,1.2h1.2l4.8-1.2l3.6-1.2l1.2-1.2h1.2h2.4l1.2-2.4h2.4l1.2-1.2l2.4-1.2v-1.2l1.2,1.2h1.2
						l2.4,2.4l1.2-1.2h1.2h1.2h-1.2h1.2h1.2h1.2h1.2h2.4l1.2,1.2v1.2l2.4,1.2h1.2l1.2,1.2v1.2h1.2v1.2l1.2,1.2h1.2l2.4,1.2l-1.2,1.2
						v1.2l-1.2,2.4l2.4,4.8l2.4,2.4V355l1.2-2.4v-1.2V349l2.4-1.2l-1.2-1.2h1.2l1.2-1.2l1.2-2.4v-1.2v-1.2v-1.2h1.2l1.2-2.4v-1.2
						v-1.2l2.4-1.2h1.2v-1.2h1.2V331l1.2-1.2h2.4v-1.2l1.2-1.2V325l1.2-1.2l1.2-1.2v-2.4h2.4h1.2h1.2l1.2,1.2l1.2,1.2h1.2l2.4-1.2
						v1.2h1.2l2.4,1.2h1.2l1.2-3.6V319h4.8h1.2l1.2,2.4h1.2l1.2,1.2l3.6,1.2l2.4,2.4h1.2h1.2l1.2-1.2h1.2v1.2l1.2,1.2v1.2l1.2,1.2
						v2.4l-2.4,1.2v2.4v1.2l1.2,1.2H418v1.2l-1.2,1.2v1.2h-1.2l-1.2,1.2l1.2,1.2l2.4,1.2v1.2h1.2h1.2v1.2h1.2h1.2l2.4,1.2v1.2v1.2
						h2.4h1.2l1.2,1.2v2.4v1.2l-1.2,2.4l1.2,1.2v1.2l-1.2-1.2l1.2,1.2v1.2l-1.2,1.2v1.2l-1.2,2.4l-1.2,1.2l-1.2,2.4v2.4H424v1.2
						l-1.2-1.2L421.6,374.1z"/>
				</g>
			</g>
		</g>
	</g>
	<g>
		<g>
			<g>
				<g>
					<defs>
						
							<rect id="SVGID_00000088123080350511709420000006780545940173015701_" x="-1193.6" y="-37.5" width="3888.7" height="2066.4"/>
					</defs>
					<clipPath id="SVGID_00000013913702691112744680000008668468287301861515_">
						<use xlink:href="#SVGID_00000088123080350511709420000006780545940173015701_"  style="overflow:visible;"/>
					</clipPath>
					
						<path id="path2996" style="clip-path:url(#SVGID_00000013913702691112744680000008668468287301861515_);fill-rule:evenodd;clip-rule:evenodd;fill:#FFFFFF;stroke:#808080;stroke-width:2;stroke-linecap:round;stroke-linejoin:round;stroke-miterlimit:19.9999;" d="
						M301.6,66.9l1.2,1.2c0.6,0,1.8,0,2.4,0c0-0.6,0-1.8,0-2.4l1.2-1.2v1.2c0.6,0,1.8,0,2.4,0v-1.2h2.4c0,1.5,0,3.3,0,4.8h1.2
						l-1.2,1.2l1.2,1.2c0.6,0,1.8,0,2.4,0v1.2h-1.2h1.2l-1.2,1.2v1.2h1.2v1.2l-1.2,1.2v2.4l1.2,1.2h1.2v-1.2c0,0.8,0,2.8,0,3.6
						c0-1.3,0-3.5,0-4.8h1.2v-1.2h1.2l1.2-1.2h-1.2c0-1.1,0-2.5,0-3.6c1.3,0,3.5,0,4.8,0c0-1.1,0-2.5,0-3.6h1.2l1.2,1.2l1.2-2.4
						c0.4,0.8,1.5,2.7,1.2,3.6h1.2v-1.2l1.2,1.2l1.2-1.2l1.2,1.2h2.4v1.2H334h1.2H334l-1.2,1.2l1.2,1.2h1.2v1.2c1.1,0,2.5,0,3.6,0
						v1.2h-1.2h1.2v-1.2h1.2l-1.2,1.2c0.6,0,1.8,0,2.4,0v1.2c0.6,0,1.8,0,2.4,0v1.2h1.2h-1.2h1.2c0.6,0.9,2.6,2,3.6,2.4v-1.2
						l1.2,1.2h1.2v2.4l1.2,1.2l-1.2-1.2v1.2l1.2,1.2v1.2h1.2v1.2h1.2v1.2h-1.2l1.2,1.2v-1.2v1.2h1.2v1.2c0.9,0.6,2,2.6,2.4,3.6
						l1.2,1.2v1.2h1.2l1.2,1.2h1.2v1.2c0.8,0.4,2.7,1.5,3.6,1.2l-1.2,1.2h1.2l-2.4,1.2v1.2h-1.2v-1.2l1.2,1.2h1.2v1.2H364v1.2
						l2.4-1.2c0-0.6,0-1.8,0-2.4h1.2v-1.2c1,0.4,3,1.5,3.6,2.4c1.5,0,3.3,0,4.8,0v1.2c0.6,0,1.8,0,2.4,0v1.2l4.8-1.2l1.2,1.2v-1.2
						h1.2h-1.2l1.2-1.2l1.2,1.2h1.2l1.2,1.2v-1.2h1.2l1.2,1.2h1.2v-1.2l1.2,1.2l-1.2-1.2h1.2v1.2h1.2v1.2v-1.2h1.2l1.2,1.2h-1.2v1.2
						h1.2c0.3,0.9-0.8,2.8-1.2,3.6c-0.6,1.2-1.8,3.6-2.4,4.8l1.2,1.2l-1.2,1.2v2.4l-1.2,1.2h-1.2l-1.2,1.2h-1.2l-1.2,2.4
						c0,0.6,0,1.8,0,2.4v-1.2l-1.2,1.2v1.2h-1.2v1.2c-0.6,0-1.8,0-2.4,0l-1.2,1.2v-1.2l-2.4-1.2l-1.2,1.2l-1.2-1.2H376l-1.2,1.2
						l1.2,1.2l-1.2,1.2l1.2,1.2v1.2l-1.2-1.2v1.2l-1.2,1.2v1.2h1.2v1.2c0.6,0.6,1.8,1.8,2.4,2.4c0.6-0.6,1.8-1.8,2.4-2.4h1.2v1.2
						l1.2,1.2l-1.2,2.4c0,1.8,0,4.2,0,6h1.2l1.2,1.2v2.4h1.2v2.4h1.2l1.2,1.2h1.2l1.2-1.2h1.2c0,0.8,0,2.8,0,3.6l-1.2,1.2
						c0,1.5,0,4.5,0,6c0.6,0.6,1.8,1.8,2.4,2.4v1.2l1.2,1.2h1.2l2.4,3.6c0-0.6,0-1.8,0-2.4h1.2l1.2,3.6h1.2l1.2,1.2l2.4-1.2
						c0,0.8,0,2.8,0,3.6c-0.6,1.2-1.8,3.6-2.4,4.8l1.2,3.6h1.2l1.2,1.2v1.2l2.4,1.2v-1.2l1.2-1.2h1.2l1.2-1.2h1.2l1.2-1.2
						c0.6,0,1.8,0,2.4,0c0-0.6,0-1.8,0-2.4l1.2-1.2v-2.4h1.2v-1.2v2.4h1.2l1.2,2.4h1.2l1.2,1.2v1.2l1.2,1.2v1.2l1.2,1.2H424
						c0,1.1,0,2.5,0,3.6c-1,0.4-3,1.5-3.6,2.4h-1.2v1.2H418l-1.2,2.4c-0.8,0-2.8,0-3.6,0c-1.1,1.1-2.5,2.5-3.6,3.6l-1.2-2.4h-1.2
						v-1.2l-1.2,1.2v1.2h-1.2v2.4l-1.2-1.2c0,0.6,0,1.8,0,2.4h-1.2c0,1.3,0,3.4,0,4.8h-1.2v1.2v-1.2l-1.2-1.2l-1.2,2.4h-1.2v1.2
						l1.2,1.2v2.4h1.2v1.2h1.2v1.2l1.2,1.2v-1.2h1.2l-1.2-1.2c0-1.9,0-4.1,0-6h1.2v-1.2l1.2,1.2l1.2,3.6c0.6,0.6,1.8,1.8,2.4,2.4
						l1.2,2.4c1.7,0,4.3,0,6,0l1.2,1.2v1.2l3.6,4.8v3.6l-1.2,2.4l1.2,2.4h1.2H418c0.9,0.6,2,2.6,2.4,3.6l1.2,1.2v2.4l1.2,2.4
						l-2.4-1.2v-1.2h-1.2h1.2l-6,1.2l2.4,4.8v2.4l1.2,1.2h1.2l-1.2,1.2h1.2l-2.4,1.2v1.2c-0.6,0.6-1.8,1.8-2.4,2.4l1.2,1.2
						c-1.1,1.1-2.5,2.5-3.6,3.6h-1.2l-1.2,1.2v1.2c-0.7,0.9-5,4-6,4.8h-1.2l-1.2-3.6H400l-1.2,1.2l1.2,1.2l-1.2,1.2
						c0,0.6,0,1.8,0,2.4l-2.4,1.2l-1.2-1.2c-0.6,0-1.8,0-2.4,0l-2.4,2.4h1.2c-0.6,0-1.8,0-2.4,0c-0.4,1-1.5,3-2.4,3.6l2.4,2.4v1.2
						l1.2,1.2v1.2h1.2l-1.2,1.2h1.2l-1.2,1.2c0.6,0.6,1.8,1.8,2.4,2.4h-1.2l-1.2-1.2v1.2h-1.2l-1.2,1.2h-1.2l-1.2,1.2l1.2,1.2
						l-1.2,2.4l1.2,1.2l-1.2,1.2l1.2,2.4h1.2v1.2c-1,0.4-3,1.5-3.6,2.4c0.3,0.9-0.8,2.8-1.2,3.6l-1.2-1.2l1.2,1.2l-1.2,2.4h1.2v2.4
						l-1.2,1.2v1.2l-1.2,1.2v2.4c-0.6,0.6-1.8,1.8-2.4,2.4v2.4l-1.2,1.2v1.2h-2.4l-1.2,1.2v1.2h-1.2v1.2c-0.9-0.3-2.8,0.8-3.6,1.2
						c0,0.6,0,1.8,0,2.4l-1.2,2.4h-1.2c0,1.1,0,2.5,0,3.6c-0.4,1-1.5,3-2.4,3.6h-1.2l1.2,1.2l-2.4,1.2c0,0.8,0,2.8,0,3.6
						c-0.4,0.8-1.5,2.7-1.2,3.6l-2.4-2.4l-2.4-4.8c0.4-0.8,1.5-2.7,1.2-3.6l1.2-1.2c-0.8-0.4-2.7-1.5-3.6-1.2l-1.2-1.2v-1.2H352
						v-1.2l-1.2-1.2c-0.9,0.3-2.8-0.8-3.6-1.2v-1.2l-1.2-1.2c-2.3,0-4.9,0-7.2,0h1.2c-0.6,0-1.8,0-2.4,0l-1.2,1.2l-2.4-2.4h-1.2
						l-1.2-1.2v1.2c-1,0.4-3,1.5-3.6,2.4h-2.4l-1.2,2.4c-0.8,0-2.8,0-3.6,0l-1.2,1.2l-3.6,1.2c-0.9,0.2-5.2,1.4-6,1.2
						c-1.3-1.3-3.5-3.5-4.8-4.8l-3.6,1.2l-1.2,2.4H298v-1.2h-1.2v-2.4c-0.6-0.6-1.8-1.8-2.4-2.4h-1.2l-1.2-1.2c-0.6,0-1.8,0-2.4,0
						c-1-0.4-3-1.5-3.6-2.4v-2.4l-1.2-2.4h-2.4l-1.2-1.2c-0.8,0.4-2.7,1.5-3.6,1.2v-1.2l-2.4-1.2v-1.2H274v1.2c0-0.6,0-1.8,0-2.4
						l1.2,1.2l1.2-1.2c1.1,0,2.5,0,3.6,0v-1.2l-1.2-1.2h-1.2v-1.2c-0.6,0-1.8,0-2.4,0c-0.6,0.6-1.8,1.8-2.4,2.4h-1.2
						c-0.6-0.6-1.8-1.8-2.4-2.4c-0.8,0-2.8,0-3.6,0v-1.2l-2.4-1.2h-2.4c0-0.6,0-1.8,0-2.4h-1.2l-1.2,1.2l-2.4-1.2h1.2v-2.4h-3.6
						l2.4-1.2c0.6,0,1.8,0,2.4,0l-1.2-1.2l1.2-1.2l1.2,1.2v-2.4l-3.6-2.4c0.3-0.9-0.8-2.8-1.2-3.6h-1.2l2.4-1.2l1.2-2.4
						c0-0.6,0-1.8,0-2.4l1.2-1.2v-1.2h1.2c0-0.8,0-2.8,0-3.6l1.2-4.8c0-0.8,0-2.8,0-3.6c0.6-0.6,1.8-1.8,2.4-2.4v-1.2h1.2l1.2-1.2
						l-1.2-2.4l1.2-1.2c-0.9,0.5-5.2-2.1-6-2.4c-1.8-1-4.7-1.9-6-3.6v-1.2h-1.2l-1.2-3.6l-2.4-2.4c0-0.8,0-5.1,0-6
						c0.9-0.6,2-2.6,2.4-3.6l2.4-2.4h-1.2l-1.2-1.2H250l-1.2,1.2l-1.2-1.2h-1.2l1.2-1.2v-1.2l1.2-1.2v-1.2h1.2v-1.2h2.4l1.2-1.2
						v-1.2l3.6-2.4l-1.2-3.6c0.6-0.9,2.6-2,3.6-2.4l2.4-3.6c0-1.6,0-5.6,0-7.2l-1.2-2.4v-2.4l-1.2-4.8c0-0.8,0-2.8,0-3.6
						c-0.4-1-1.5-3-2.4-3.6c1-0.7,4.1-2.6,4.8-3.6v-1.2c-1.9-1.5-2.9-5-3.6-7.2c0.3-1.6-0.8-5.6-1.2-7.2l1.2-2.4
						c-0.9-0.6-2-2.6-2.4-3.6l3.6-4.8v-1.2l2.4-3.6c0.1-0.9,1.4-6.4,1.2-7.2h-2.4l-1.2-2.4h1.2l1.2-2.4c2.7-1.1,3.7-2.1,4.8-4.8
						c0.6-0.6,1.8-1.8,2.4-2.4l1.2-2.4l-1.2-3.6l1.2-1.2l-1.2-2.4H268v-1.2h1.2v-1.2l2.4-2.4l1.2,1.2v-1.2c0.6,0.9,2.6,2,3.6,2.4
						c0.8,0,2.8,0,3.6,0l1.2-3.6l1.2-1.2l-1.2-1.2h1.2h-1.2c0.8-0.8,2.8-2.8,3.6-3.6v1.2h1.2c-0.3-0.9,0.8-2.8,1.2-3.6
						c0-0.6,0-1.8,0-2.4h1.2v-2.4l2.4-2.4l-1.2-1.2l1.2-1.2h1.2c0-1.5,0-3.3,0-4.8h-1.2l1.2-1.2v-1.2h-1.2v-1.2h1.2h-1.2h1.2
						l-1.2-1.2h1.2v-1.2l1.2-1.2v-1.2H292l1.2-1.2h2.4l1.2,1.2c0-1.3,0-3.4,0-4.8h-1.2v-1.2h1.2l-1.2-1.2h1.2
						c-0.6-0.6-1.8-1.8-2.4-2.4c0.6,0,1.8,0,2.4,0v-1.2l1.2-1.2c0-0.6,0-1.8,0-2.4l1.2,1.2v-1.2l1.2,1.2l1.2-1.2
						c0.2-1.6-1.2-3.8-2.4-4.8c0.3-0.9-0.8-2.8-1.2-3.6l1.2,1.2h1.2v-1.2l1.2-1.2h-1.2c0-1.1,0-2.5,0-3.6h1.2
						C301.6,70.4,301.6,68.3,301.6,66.9z"/>
				</g>
			</g>
		</g>
	</g>
	<g>
		<g>
			<path id="path2588_00000103981558221530495360000011004776029027728567_" class="st4" d="M246.4,244.5c-0.9-1.2-1.5-1.2-2.4,0
				c-0.9-0.3-1.9,0.5-2.4,1.2c-0.9-0.3-1.9,0.5-2.4,1.2c-1.1,0.1-1.4-0.1-1.2-1.2c-1.7,0.4-1.7-1.6,0-1.2c-2.4,0.3-1.3-3.4-4.8-2.4
				c-0.6,0.7-1.4,1.5-2.4,1.2c-1.2-0.1-1.2,0.1-1.2,1.2c-2.8-3.9-0.6-1.3-4.8-1.2c-1.2,0.2-1.3-0.2-1.2-1.2
				c-1.2,0.2-1.3-0.2-1.2-1.2c-1.2-0.1-2.8,0.6-2.4-1.2c-1.4,1-2.9,4-4.8,3.6c0.4-2.4-2.1,0.3,0,1.2c3.1,2.2-2.6,3.5-3.6,1.2
				c0.1-2-0.3-0.6-1.2,0c-2.1,0.2-0.5-0.4,0-1.2c-2.1-0.5-3.5,0.9-4.8,2.4c0.4,3.9-3.9,1.2-3.6-1.2c2,0.2,0.6-0.4,0-1.2
				c-0.6,0-1.8,0-2.4,0c2.1-1.2,0.1-3.3-1.2-1.2c0.3,3.1-0.8-0.9-1.2-1.2c0.1,2.6-1-1.4-2.4,1.2c-0.3,2.9,3.3-0.8,2.4,3.6
				c0,0.8,0,2.8,0,3.6c-2.1-0.2-0.6,0.4,0,1.2c-2.2-0.2-4.2,1.3-3.6,3.6c-3.4-4.5-2.6,0.3-4.8-2.4c-1.8-0.5-1.1,1.2-1.2,2.4
				c-1.1-1.9-2.6-0.6-2.4,1.2c-1.1-0.2-1.4,0.1-1.2,1.2c2.8,2.3-1.7,0.2-2.4,2.4c-1.6,2.3-2-0.8-4.8,0c-2.1,3.1-3.9-4-7.2-2.4
				c-2.8,3.1-1.6-0.4-3.6,0c0.2,1-0.2,1.4-1.2,1.2c0.3-0.9-0.6-1.9-1.2-2.4c-2.5-0.7,0.1,3.1-2.4,2.4c-1,1.7-3.1,1.1-4.8,1.2
				c-1.4,3.3-0.3,5.5-4.8,4.8c0.6-1.8-1.5-1-2.4-1.2c0.3-1.1-0.2-1.3-1.2-1.2c0.6,2.1-2.4,0.9-3.6,1.2c0.8,2-4.9,2.2-6,2.4
				c-2,0.8-0.2,4.1-2.4,3.6c0.9,1.7-2.8,6.5-2.4,3.6c0.4,1.5-1.6,2.1-1.2,3.6c-1.1-0.1-2.9,0.6-2.4-1.2c-0.8,1.1-6.7,5.7-6,2.4
				c0.2,2-0.4,0.6-1.2,0c0.2-1.1-0.1-1.4-1.2-1.2c-0.4-1.5,1.7-2.1,1.2-3.6c-2.2,0.3-2.7-0.3-2.4-2.4c-0.7-0.5-1.5-1.5-1.2-2.4
				c0,0.6,0,1.8,0,2.4v-1.2c-0.3,1.2,0.9,4.2-1.2,3.6c0.1,1.2-0.7,4.2-2.4,3.6c0.8,1.4,2.8,1,3.6,2.4c0.6,2.1-2.3,0.9-3.6,1.2
				c0.5,8.3-1.2,1.7-1.2,4.8c0.4-2.3-2.4-3.3-3.6-1.2c-0.2-2.3,1.8,0.1,1.2-3.6c3.3,0,0-4.4-2.4-3.6h1.2c-1.8-0.5-1.1,1.2-1.2,2.4
				c-1.9-1-5,5.5-4.8,2.4c0.8,1.4-2.6,2.7,0,2.4c-3-0.3,2.2,1.9,1.2,3.6c-1.4-0.8-2.7,2.6-2.4,0c-2.4,2.6,0.1-0.6-2.4,0
				c-1.3,0.8-1.3,2.2-1.2,3.6c-1.8,0-5.3-0.4-4.8,2.4v-1.2c-0.4,1.5,1.7,2.1,1.2,3.6c-1.7,2.9-6.6,2-3.6,6c-0.7-0.5-1.5-1.5-1.2-2.4
				c-1.1-0.2-1.3,0.1-1.2,1.2c-1.4,0.8-2.7-2.6-2.4,0c-0.8-0.6-1.4-2-1.2,0c-0.7-3.9,2.4-1.3,0-3.6c1.1,0.1,1.4-0.1,1.2-1.2
				c2.6,0.6,0.4-2.6,0-3.6c-0.6-3.1-1.5-4.1-4.8-3.6c0.4,2.2-1.7,1-2.4,0c-0.1-1.1,0.1-1.4,1.2-1.2c1-0.7,2.2-2.8,0-2.4
				c3.1-2.5,4-0.8,3.6-6c-0.3,2.6,1-0.8,2.4,0c0.9-2,1.4-5,1.2-7.2c0.1-1.1-0.6-2.9,1.2-2.4c-0.7-1.2,2.7-5.6,0-4.8
				c1.1,0.1,1.3-0.1,1.2-1.2c1.2-1.3,3.2-1.4,3.6-3.6c-0.5-1.8,3.1-1.1,2.4-3.6c2.8-3.6,2,2.4,4.8-1.2c0.7-0.5,1.5-1.5,1.2-2.4
				c0.9,0.3,1.9-0.5,2.4-1.2c0.1-1.1-0.6-2.9,1.2-2.4c-0.8-1.6,4.3-3.8,3.6-1.2c1.1,0.1,2.9-0.6,2.4,1.2c-0.2-1,0.6-3-1.2-2.4
				c1.1,0.1,1.3-0.1,1.2-1.2c-2.2,0.4-1-1.7,0-2.4c-0.3-2.9,3.3,0.8,2.4-3.6c0.4,2.4-0.8,3.4-2.4,1.2c0.2-1.1-0.1-1.4-1.2-1.2
				c2-0.2,0.6,0.4,0,1.2c-0.4,1.1-1.2,4.2-2.4,4.8c-1.1,0.1-1.4-0.1-1.2-1.2c-1.1,0.1-1.4-0.1-1.2-1.2c0.5,1.7-1.7,1-2.4,2.4
				c2.6-0.3-0.8,1,0,2.4c-0.9-0.3-1.9,0.5-2.4,1.2c0.6-3.8-1.4-1.2-1.2-3.6c-0.7,0.5-1.5,1.5-1.2,2.4c-1.1-0.2-1.4,0.1-1.2,1.2
				c0.7-2.5-3.1,0.1-2.4-2.4c0.3,2.9-1.5-1.7-1.2,1.2c0.6-1.3-1-6.9-1.2-3.6c-1.1-0.2-1.4,0.1-1.2,1.2c-1.2,0.1-2.9-0.6-2.4,1.2
				c0.4-2.2-1.7-1-2.4,0c0.2-2-0.4-0.6-1.2,0c1.1-0.1,1.4,0.1,1.2,1.2c1.1-0.1,1.4,0.1,1.2,1.2c1.2,3.6-7.4,1.5-3.6,4.8
				c0.7,1.8-3.1,1.8-2.4,0c-0.2-2-3.8-3.9-3.6-1.2c0.6-2-1.3-3.1-1.2-4.8c0.1-1.2-0.7-4.1-2.4-3.6c0.2-1.1-0.1-1.4-1.2-1.2H76
				c-1.1,0.1-1.4-0.1-1.2-1.2c0.9,0.3,1.9-0.5,2.4-1.2c-0.3,3.1,2.2-0.6,3.6,0c1.8-1.4,1.8-5.8,0-7.2c-2.3,0.6-0.2-2.4-2.4,0
				c0.2-1.1-0.1-1.4-1.2-1.2c-0.1-1.1,0.6-2.9-1.2-2.4c2.6-2-2.2-0.5,1.2-3.6c-2.6,0.4,0.7-1.5,1.2-2.4c-1.7,0.4-1.7-1.6,0-1.2
				c0.5-0.6,1.5-1.5,2.4-1.2c-1.1,0.1-1.3-0.1-1.2-1.2c-1.2-0.1-2.9,0.6-2.4-1.2c-2.2,2.4-0.1-0.6-2.4,0c-0.1-1.1,0.6-2.9-1.2-2.4
				c0.6-1.4-1-6.8-1.2-3.6c-0.5-3.8-1.6-4.4-1.2,0c-0.4,1.8,2.2,2.3,0,3.6c2,1.7,0.4,1.1-1.2,1.2c-2.8,0.3-2.3-0.4-1.2-2.4
				c-0.6,0-1.8,0-2.4,0c2.7-1.8-1.2-3.6-2.4-1.2c3.6,0.1-4.3,2-4.8,3.6c1.5,1,1.5,2.6,0,3.6c0.5,2.3-1.7,5.5-1.2,1.2
				c-3.6,0.3,3.2-6.4-2.4-6c0.2-1.1-0.2-1.4-1.2-1.2c0.7-0.5,1.5-1.5,1.2-2.4c2.1,0.2,0.6-0.4,0-1.2c2.3,2.5,0-0.6,2.4,0
				c-0.6-2.3,1.7-4,2.4-6c2,0.2,0.6-0.4,0-1.2c2-1.3,1-4,1.2-6c-0.8-0.6-1.4-2-1.2,0c-3,0.4,0.4-6.3-2.4-7.2c-3.3,0.6,0.9-8,0,0
				c2.3-2.5,0,0.6,2.4,0c-0.4-1.6,3.9-1.6,3.6-6c0-1.1,0-2.5,0-3.6c1.1-0.1,1.4,0.1,1.2,1.2c1.3-2.2,1.8,0.4,3.6,0
				c0-1.5,0-3.3,0-4.8c1.9,1.5,0.5,2.9,3.6,2.4c-0.3,2.2,0.2,2.7,2.4,2.4c-0.2-0.9,0.6-3-1.2-2.4c1.1,0,2.5,0,3.6,0
				c-0.4-1.5,1.6-3.3,1.2-4.8c-3.1,0.4,0.6-3.4,0-4.8c-1.4,0.7-0.7,2.9-2.4,2.4c0.2,1.1-0.1,1.4-1.2,1.2c0.2,1.1-0.1,1.4-1.2,1.2
				c0.4,2.4-1.6-0.1-1.2-1.2c0.7,2.5-2.5-0.7,0,0c0.6-2.3-1.8-3.7-1.2-6c2.1-0.2,0.6,0.4,0,1.2c1.2-0.1,2.9,0.6,2.4-1.2
				c1.9,0.5,0.5-1.7,2.4-1.2c-0.7-1.9,1.3-3.2,1.2-4.8c-0.5,1.9,1.7,0.5,1.2,2.4v-1.2c-0.5,2.7,3.1,0.5,2.4-1.2
				c1.2-0.1,2.9,0.6,2.4-1.2c0.5,0.7,1.5,1.5,2.4,1.2c-0.3,0.9,0.5,1.9,1.2,2.4c0.6-0.8,2.1-1.4,0-1.2c2.2-0.3,2.7,0.3,2.4,2.4
				c-0.1-1.1,0.1-1.3,1.2-1.2c-0.1,1.1,0.1,1.4,1.2,1.2c-0.3-2.8,7.4,0.2,6-4.8c-0.3-0.9,0.5-1.9,1.2-2.4c-0.2,1.1,0.1,1.4,1.2,1.2
				c-0.7-3,3.9-1.6,1.2-3.6c-0.2-2,0.4-0.6,1.2,0c1.2,0.9,1.2,1.5,0,2.4c0.9-0.3,1.9,0.5,2.4,1.2c-0.2-1.1,0.2-1.4,1.2-1.2
				c-0.7-3.1,5.5,0.7,4.8-2.4c-0.4,2.2,1.7,1,2.4,0c-1.9-0.9-0.4-3.6-2.4-1.2c-0.1-3.7,1-5.4-3.6-4.8c-0.2-2.7-3.1-3.3,1.2-4.8
				c3.6-0.8,2.6-2.6,6,1.2h1.2c-2.6-1.7,0.6-2.7,2.4-2.4c0-1.5,0-3.3,0-4.8c3.9-0.6,3.5,1,6,1.2c-0.4-1.7,1.7-1.7,1.2,0
				c0.8-0.6,1.4-2.1,1.2,0c-0.3-2.9,1.5,1.7,1.2-1.2c0.3-1.2-0.9-4.2,1.2-3.6c-0.2-1.1,0.1-1.4,1.2-1.2c0,0.8,0,2.8,0,3.6
				c1.5-0.4,2.1,1.6,3.6,1.2c-2.6-0.3,0.8,1,0,2.4c1.1-0.2,1.4,0.1,1.2,1.2c-0.1-2,0.3-0.6,1.2,0c-0.1,1.1,0.1,1.4,1.2,1.2
				c3.2-1,5.6,5.1,8.4,1.2c-0.1,4.5,5.4,1.6,7.2,0c3.4,0.7,6.2-3.1,9.6-2.4c-0.1-2.6,0.9,1.4,2.4-1.2c-0.6,2.1,2.4,0.9,3.6,1.2
				c-0.6,2.1,2.4,0.9,3.6,1.2l3.6-1.2c-0.5-1.8,1.3-1.1,2.4-1.2c-0.7-1.4,4.3-5.1,1.2-4.8h1.2c-2.4,0.4,0.1-1.6,1.2-1.2
				c-2,1.7-0.4,1.1,1.2,1.2c-0.2-1.1,0.1-1.4,1.2-1.2h-1.2c2.2,0.3,2.7-0.2,2.4-2.4c3.1,0.5,1.7-0.9,3.6-2.4
				c-0.5,1.8,1.2,1.1,2.4,1.2c-0.3,0.9,0.5,1.9,1.2,2.4c1-0.7,2.2-2.8,0-2.4c-0.2-1.1,0.1-1.4,1.2-1.2h-1.2c1.6-0.1,3.2,0.5,1.2-1.2
				c3.7,1.5,1.2,1,1.2,3.6c0.7,0.5,1.5,1.5,1.2,2.4c0.7-1.8-3.1-1.8-2.4,0c1.7-0.5,1,1.7,2.4,2.4c-0.4,2.4,0.8,3.3,2.4,1.2
				c-0.4,1.7,1.6,1.7,1.2,0c0.6,0,1.8,0,2.4,0c-0.6-0.8-2-1.4,0-1.2c-0.6-0.8-2-1.4,0-1.2c-3.6,0.5,3.6-2.9,0-2.4
				c1.8,0.6,1.1-1.4,1.2-2.4c-0.6,0-1.8,0-2.4,0c0.5-0.7,1.5-1.5,2.4-1.2c-1.9-1.1-0.6-2.6,1.2-2.4h-1.2c1.5,0,3.3,0,4.8,0
				c0.8,0.6,1.4,2,1.2,0c0,1.1,0,2.5,0,3.6c1.5,0.4,5.3-1.1,4.8,1.2c-0.6,2.1,2.9,2.7,2.4,4.8c-2.6-1.2,0.8,4.4,0,1.2
				c1.6,1.7,7.8,8.2,4.8,2.4l1.2,1.2c-0.3-1.9-3.6-3.5-1.2-4.8c1.1,0.1,1.4-0.1,1.2-1.2c-2.6,0.4,0.1-3.9-2.4-4.8
				c1.1,0.1,1.4-0.1,1.2-1.2c0.7-0.5,1.5-1.5,1.2-2.4c2.3-0.3,2.8-1.8,6-1.2c0.4-1.8-1.2-1.1-2.4-1.2c0.1-1.1-0.1-1.4-1.2-1.2h-1.2
				c0.3,3.3-3.3-1.1-4.8-1.2c-1.2,0.9-1.2,1.5,0,2.4c-1.5,0.4-2.1-1.7-3.6-1.2c3,0.3-1.6-2-2.4-2.4c0.4-1.7-1.6-1.7-1.2,0
				c0.6-2.1-2.4-0.9-3.6-1.2c-2-1.7-0.4-1.1,1.2-1.2c0.2-1.1-0.1-1.3-1.2-1.2c-0.5-2.6,3.9,0,4.8-2.4c-0.2,2.1,0.4,0.6,1.2,0
				c-0.2,1.1,0.1,1.3,1.2,1.2c-0.2-1.1,0.1-1.4,1.2-1.2c1.4-0.8,2.7,2.6,2.4,0c0.6,1.5,6.9,2.1,6,0c-0.4,1.7,1.6,1.7,1.2,0
				c1.1,0.2,1.4-0.1,1.2-1.2c1.4,0.3,2.7-1,2.4-2.4c1-0.7,2.2-2.8,0-2.4c1.9,0.5,0.5-1.7,2.4-1.2c-2.6,0.3,0.8-1,0-2.4
				c-1.1,0.1-2.9-0.6-2.4,1.2c-0.3-2.4,2.1,0.3,0,1.2c0.1,1.1-0.1,1.3-1.2,1.2c-0.6,0.6-1.8,1.8-2.4,2.4c-0.9-0.6-1.4-2-1.2,0
				c1-0.2,1.4,0.1,1.2,1.2c-3.6,0.6-1.3-1.4-3.6-1.2c0.7,2.5-3.1-0.1-2.4,2.4c-0.6-0.8-2-1.4,0-1.2c0.3-2.6-1,0.8-2.4,0
				c-0.6-1.4,3.1-3.9,0-3.6c0.1,1.1-0.1,1.3-1.2,1.2c-0.1,1.2,0.6,2.9-1.2,2.4c0.6,1.8-1.4,1.1-2.4,1.2c0.5,1.8-1.2,1.1-2.4,1.2
				c0.2-1.1-0.1-1.3-1.2-1.2c-1,0.2-1.4-0.1-1.2-1.2c-0.5,0.7-1.5,1.5-2.4,1.2c-0.9,1.2-1.5,1.2-2.4,0c2.1,0.2,0.5-0.4,0-1.2
				c1.9,0.5,0.5-1.7,2.4-1.2c1.4-0.9,1.4-3.4,2.4-4.8c-1.9,0.5-0.5-1.7-2.4-1.2c1.1,0.1,1.4-0.1,1.2-1.2c-2.4,0.6-0.1-1.5,0-2.4
				c1.9,0,5.2,0.4,4.8-2.4c-1.5-1.9-2.9-0.5-2.4-3.6c-1.8,0.5-1.1-1.2-1.2-2.4c1.1,0.1,2.9-0.6,2.4,1.2c0.6,1.2,4.2,2.2,3.6,0
				c-0.9,5.7,10.2-2.3,9.6-4.8c1.9,0.5,0.5-1.7,2.4-1.2c-0.5-1.7,1.7-0.9,2.4-2.4c-3.1,0.4,0.4-3.1,0,0c-0.1-4.6,0.8-1.8,2.4,0
				c0.8-0.4,2.7-1.5,3.6-1.2c0.1-1.2-0.6-2.9,1.2-2.4c0.5-0.7,1.5-1.5,2.4-1.2c-0.5-1.8,1.2-1.1,2.4-1.2c-0.2-2,0.4-0.6,1.2,0
				c-0.5-4,1.7-0.8,1.2-4.8c2.9-0.3-1.7,1.5,1.2,1.2c0,1.1,0,2.5,0,3.6c1.1-0.1,2.9,0.6,2.4-1.2c2.1,0.3,2.7-0.3,2.4-2.4
				c-0.9,1.2-1.5,1.2-2.4,0c0.7,2.5-2.5-0.7,0,0c-2.9,0.3,1.7-1.5-1.2-1.2c2.1,0.2,0.6-0.4,0-1.2c1.8,0.5,1.1-1.2,1.2-2.4
				c1.5,2.2,1.9-0.4,0,0c1.2-0.9,1.2-1.5,0-2.4c1.7,2,1,0.4,1.2-1.2c1.9,0.5,0.5-1.7,2.4-1.2c5.5-0.9,6.1,3,10.8,0
				c-0.5-2.2,2.9-0.4,3.6-2.4c2.8-2.4-3.1-2.5,4.8-2.4c-0.2-1.1,0.1-1.4,1.2-1.2c-1.2-0.9-1.2-1.5,0-2.4c0.6-0.5,1.5-1.5,1.2-2.4
				c0.5,0.7,1.5,1.5,2.4,1.2c1.2,0.2,3,0,3.6-1.2c0,0.9,2.5,3,0,2.4c0,1.5,0,3.3,0,4.8c-1.1-0.2-1.3,0.1-1.2,1.2
				c2.7,2.3,2.6,0.5,2.4,4.8c-1-1.6-4.1-1-3.6-3.6c-0.6,3.8,1.5,1.2,1.2,3.6c-1.8-0.5-1.1,1.2-1.2,2.4c-1.7-0.4-1.7,1.6,0,1.2
				c-3.3-0.5-3.2,1.7,0,1.2c-0.1,1.6,0.5,3.2-1.2,1.2c-1.5-0.4-2.1,1.7-3.6,1.2c1.1,2,3.7,0.4,4.8,2.4c-0.2-2.1,0.4-0.6,1.2,0
				c-0.3-0.9,0.5-1.9,1.2-2.4c1.9-0.5,0.5,1.7,2.4,1.2c0.6-3.8-1.5-1.2-1.2-3.6c-1.1,0.2-1.4-0.1-1.2-1.2c-1.4-2-1.1-2.9,1.2-3.6
				c0.8,1.3,2.3,1.3,3.6,1.2c-0.6,0-1.8,0-2.4,0c0.6,0.8,2,1.4,0,1.2c1.1-0.2,1.4,0.1,1.2,1.2c-0.6-1.8,1.4-1.1,2.4-1.2
				c-2-0.2-0.6,0.4,0,1.2c-3.2,0.8,2.4-2.6,1.2,0c0.5-1.9-1.7-0.5-1.2-2.4c-1.8,0.4-1.1-1.2-1.2-2.4c1.1,0,2.5,0,3.6,0
				c-1-0.7-2.2-2.8,0-2.4c-0.1,1.1,0.1,1.4,1.2,1.2c-0.4-2.2,1.9-2.6,3.6-2.4c-0.5-1.8,1.2-1.1,2.4-1.2c1-1.7,3.1-1.1,4.8-1.2
				c-0.2-2.1,1.8-0.2,1.2-3.6c1.5,0.4,3.3-1.6,4.8-1.2v-3.6c-0.1,1.1,0.1,1.3,1.2,1.2l2.4,2.4c-1.1-0.2-1.4,0.1-1.2,1.2
				c0.4-2.4-1.6,0.1-1.2,1.2c-1.2,0.8-3.4,0.9-1.2,2.4c-2-0.2-0.6,0.4,0,1.2c-2.1-0.5-2.6,2-2.4,3.6c0.6,3.8-1.5,1.2-1.2,3.6
				c0.1,1.1-0.6,2.9,1.2,2.4c-1.6,1.4-1.3,4-3.6,1.2c0.8,2.9,3.4,5.4,3.6,8.4c-0.9,1.2-1.5,1.2-2.4,0c0.2,2.1-0.4,0.6-1.2,0
				c0.1,1.3,0.1,2.8-1.2,3.6c0.5,1.8-1.2,1.1-2.4,1.2c0.5,0.9,3.8,2.8,1.2,2.4c0.6,0.8,2,1.4,0,1.2c-0.2,1.1,0.1,1.4,1.2,1.2
				c0,1.3,0,3.5,0,4.8c-1-1.7-3.8-1.7-4.8,0c1.1-0.2,1.4,0.2,1.2,1.2c-1.4,0.7-0.7,2.9-2.4,2.4c0.6,0.8,2,1.4,0,1.2h1.2
				c-1.1-0.1-1.4,0.1-1.2,1.2c1.1-0.1,1.4,0.1,1.2,1.2c-2.3,2.2,0.7-0.3,0,3.6c0,0.6,0,1.8,0,2.4c-1.8-0.2-3.1,1.3-1.2,2.4
				c-1.3,1-3,3-2.4,4.8c-1.8-0.5-1.1,1.3-1.2,2.4c-0.4,0.7-1.5,2.7-1.2,3.6c-1,0.1-1.4-0.1-1.2-1.2c-0.4,0.9-5.4,4.2-2.4,3.6
				c-2.1,0-0.5,0.3,0,1.2c-3.2,4.1-1.6,6.9-8.4,3.6c-2.2-2.6-0.2,1.4-2.4-1.2l-2.4,2.4c0.1,1.2-0.1,1.2-1.2,1.2v1.2
				c1.8-0.4,3.1,2.8,1.2,3.6l1.2,3.6c-0.9,2.7-3.9,4.5-4.8,7.2c-1.5,1.6-4.3,2.3-4.8,4.8c-2.7-0.3,0.6,3.4,2.4,2.4
				c0.5,4-2.7,8.7-3.6,12c-2,2.4-5.2,6-1.2,8.4c-2.1,4.1,0.4,13.4,3.6,16.8c0.6,2.2-3.5,3.7-4.8,4.8c0.9,0.6,2,2.6,2.4,3.6
				c-0.4,9.2,7.6,21.1-3.6,26.4c1.8,2.8,0.4,4.8-2.4,6c0.5,2.1-2,2.7-3.6,2.4c0.2,0.9-0.2,1.5-1.2,1.2c0.3,0.9-0.6,1.9-1.2,2.4
				C247.9,243,247.1,244.1,246.4,244.5z"/>
		</g>
	</g>
</g>
<g>
	<path class="st5" d="M163.2,244c-0.4-0.6-0.7-1.2-1-1.7c-3.5-5.7-7.1-11.3-10.5-17.1c-6.6-11.4,0.5-26.1,13.5-28.3
		c14.9-2.5,26.7,11.8,21.3,25.9c-0.8,2.2-2.1,4.1-3.3,6.1c-2.8,4.6-5.7,9.2-8.6,13.8c-0.2,0.4-0.5,0.7-0.8,1.3
		c1.3,0.1,2.4,0.3,3.5,0.4c3.8,0.5,7.6,1.1,11.2,2.6c1.2,0.5,2.4,1.2,3.4,2c1.7,1.4,1.8,3.3,0,4.6c-1.4,1.1-3,1.9-4.6,2.5
		c-4.4,1.7-9.1,2.3-13.8,2.5c-7.6,0.4-15.1,0.1-22.5-2.1c-1.9-0.6-3.8-1.4-5.5-2.5c-2.5-1.6-2.4-3.8,0-5.6c2.8-2,6.1-2.9,9.4-3.5
		c2.4-0.5,4.9-0.7,7.3-1C162.4,244.1,162.8,244.1,163.2,244z M160,215.9c0,4.7,3.8,8.5,8.4,8.5c4.7,0,8.5-3.8,8.5-8.4
		c0-4.7-3.8-8.5-8.5-8.6C163.9,207.4,160,211.2,160,215.9z M168.5,252.2c-1.2-1.8-2.2-3.5-3.4-5.1c-0.3-0.4-0.9-0.7-1.3-0.7
		c-3,0.5-5.9,1-8.8,1.7c-1,0.2-2,0.9-2.8,1.5c-1,0.7-1,1.5,0,2.2s2.2,1.3,3.4,1.7c8.4,2.4,16.9,2.4,25.3,0.1c1.3-0.3,2.5-1,3.6-1.7
		c1.1-0.7,1.1-1.5,0.1-2.3c-0.6-0.4-1.2-0.8-1.8-1.1c-3.1-1.4-6.5-1.8-9.8-2.1c-0.4,0-0.9,0.3-1.1,0.6
		C170.8,248.6,169.7,250.3,168.5,252.2z"/>
	<path class="st6" d="M160,215.9c0-4.7,3.8-8.5,8.5-8.5s8.5,3.8,8.5,8.6c0,4.7-3.9,8.4-8.5,8.4C163.8,224.4,160,220.6,160,215.9z"/>
</g>
<g>
	<path class="st5" d="M242.7,240.9c-0.4-0.6-0.7-1.2-1-1.7c-3.5-5.7-7.1-11.3-10.5-17.1c-6.6-11.4,0.5-26.1,13.5-28.3
		c14.9-2.5,26.7,11.8,21.3,25.9c-0.8,2.2-2.1,4.1-3.3,6.1c-2.8,4.6-5.7,9.2-8.6,13.8c-0.2,0.4-0.5,0.7-0.8,1.3
		c1.3,0.1,2.4,0.3,3.5,0.4c3.8,0.5,7.6,1.1,11.2,2.6c1.2,0.5,2.4,1.2,3.4,2c1.7,1.4,1.8,3.3,0,4.6c-1.4,1.1-3,1.9-4.6,2.5
		c-4.4,1.7-9.1,2.3-13.8,2.5c-7.6,0.4-15.1,0.1-22.5-2.1c-1.9-0.6-3.8-1.4-5.5-2.5c-2.5-1.6-2.4-3.8,0-5.6c2.8-2,6.1-2.9,9.4-3.5
		c2.4-0.5,4.9-0.7,7.3-1C241.9,241.1,242.2,241,242.7,240.9z M239.5,212.8c0,4.7,3.8,8.5,8.4,8.5c4.7,0,8.5-3.8,8.5-8.4
		c0-4.7-3.8-8.5-8.5-8.6C243.3,204.3,239.5,208.1,239.5,212.8z M248,249.1c-1.2-1.8-2.2-3.5-3.4-5.1c-0.3-0.4-0.9-0.7-1.3-0.7
		c-3,0.5-5.9,1-8.8,1.7c-1,0.2-2,0.9-2.8,1.5c-1,0.7-1,1.5,0,2.2s2.2,1.3,3.4,1.7c8.4,2.4,16.9,2.4,25.3,0.1c1.3-0.3,2.5-1,3.6-1.7
		s1.1-1.5,0.1-2.3c-0.6-0.4-1.2-0.8-1.8-1.1c-3.1-1.4-6.5-1.8-9.8-2.1c-0.4,0-0.9,0.3-1.1,0.6C250.2,245.6,249.2,247.2,248,249.1z"
		/>
	<path class="st6" d="M239.5,212.8c0-4.7,3.8-8.5,8.5-8.5s8.5,3.8,8.5,8.6c0,4.7-3.9,8.4-8.5,8.4
		C243.3,221.3,239.5,217.5,239.5,212.8z"/>
</g>
<g>
	<path class="st5" d="M201.5,231.2c-0.4-0.6-0.7-1.2-1-1.7c-3.5-5.7-7.1-11.3-10.5-17.1c-6.6-11.4,0.5-26.1,13.5-28.3
		c14.9-2.5,26.7,11.8,21.3,25.9c-0.8,2.2-2.1,4.1-3.3,6.1c-2.8,4.6-5.7,9.2-8.6,13.8c-0.2,0.4-0.5,0.7-0.8,1.3
		c1.3,0.1,2.4,0.3,3.5,0.4c3.8,0.5,7.6,1.1,11.2,2.6c1.2,0.5,2.4,1.2,3.4,2c1.7,1.4,1.8,3.3,0,4.6c-1.4,1.1-3,1.9-4.6,2.5
		c-4.4,1.7-9.1,2.3-13.8,2.5c-7.6,0.4-15.1,0.1-22.5-2.1c-1.9-0.6-3.8-1.4-5.5-2.5c-2.5-1.6-2.4-3.8,0-5.6c2.8-2,6.1-2.9,9.4-3.5
		c2.4-0.5,4.9-0.7,7.3-1C200.7,231.4,201,231.3,201.5,231.2z M198.3,203.1c0,4.7,3.8,8.5,8.4,8.5c4.7,0,8.5-3.8,8.5-8.4
		c0-4.7-3.8-8.5-8.5-8.6C202.1,194.6,198.3,198.4,198.3,203.1z M206.8,239.4c-1.2-1.8-2.2-3.5-3.4-5.1c-0.3-0.4-0.9-0.7-1.3-0.7
		c-3,0.5-5.9,1-8.8,1.7c-1,0.2-2,0.9-2.8,1.5c-1,0.7-1,1.5,0,2.2s2.2,1.3,3.4,1.7c8.4,2.4,16.9,2.4,25.3,0.1c1.3-0.3,2.5-1,3.6-1.7
		c1.1-0.7,1.1-1.5,0.1-2.3c-0.6-0.4-1.2-0.8-1.8-1.1c-3.1-1.4-6.5-1.8-9.8-2.1c-0.4,0-0.9,0.3-1.1,0.6
		C209,235.9,208,237.5,206.8,239.4z"/>
	<path class="st6" d="M198.3,203.1c0-4.7,3.8-8.5,8.5-8.5s8.5,3.8,8.5,8.6c0,4.7-3.9,8.4-8.5,8.4
		C202.1,211.6,198.3,207.8,198.3,203.1z"/>
</g>
</svg>
