<?xml version="1.0" encoding="utf-8"?>
<!-- Generator: Adobe Illustrator 27.9.0, SVG Export Plug-In . SVG Version: 6.00 Build 0)  -->
<svg version="1.1" id="Capa_1" xmlns="http://www.w3.org/2000/svg" xmlns:xlink="http://www.w3.org/1999/xlink" x="0px" y="0px"
	 viewBox="0 0 512 512" style="enable-background:new 0 0 512 512;" xml:space="preserve">
<style type="text/css">
	.st0{fill:#FFFFFF;stroke:#B7B7B7;stroke-width:2;stroke-linecap:round;stroke-linejoin:round;stroke-miterlimit:19.9999;}
	
		.st1{fill-rule:evenodd;clip-rule:evenodd;fill:#B7B7B7;stroke:#FFFFFF;stroke-width:2;stroke-linecap:round;stroke-linejoin:round;stroke-miterlimit:19.9999;}
	
		.st2{fill-rule:evenodd;clip-rule:evenodd;fill:#FFFFFF;stroke:#B7B7B7;stroke-width:2;stroke-linecap:round;stroke-linejoin:round;stroke-miterlimit:19.9999;}
</style>
<g id="Capa_1_00000165918469072286491680000010550114894821216392_">
</g>
<g>
	<g>
		<path id="path2588_00000170988860307727709590000012874379787039870612_" class="st0" d="M246.2,246.5c-0.9-1.2-1.5-1.2-2.4,0
			c-0.9-0.3-1.9,0.5-2.4,1.2c-0.9-0.3-1.9,0.5-2.4,1.2c-1.1,0.1-1.4-0.1-1.2-1.2c-1.7,0.4-1.7-1.6,0-1.2c-2.4,0.3-1.3-3.4-4.8-2.4
			c-0.6,0.7-1.4,1.5-2.4,1.2c-1.2-0.1-1.2,0.1-1.2,1.2c-2.8-3.9-0.6-1.3-4.8-1.2c-1.2,0.2-1.3-0.2-1.2-1.2c-1.2,0.2-1.3-0.2-1.2-1.2
			c-1.2-0.1-2.8,0.6-2.4-1.2c-1.4,1-2.9,4-4.8,3.6c0.4-2.4-2.1,0.3,0,1.2c3.1,2.2-2.6,3.5-3.6,1.2c0.1-2-0.3-0.6-1.2,0
			c-2.1,0.2-0.5-0.4,0-1.2c-2.1-0.5-3.5,0.9-4.8,2.4c0.4,3.9-3.9,1.2-3.6-1.2c2,0.2,0.6-0.4,0-1.2c-0.6,0-1.8,0-2.4,0
			c2.1-1.2,0.1-3.3-1.2-1.2c0.3,3.1-0.8-0.9-1.2-1.2c0.1,2.6-1-1.4-2.4,1.2c-0.3,2.9,3.3-0.8,2.4,3.6c0,0.8,0,2.8,0,3.6
			c-2.1-0.2-0.6,0.4,0,1.2c-2.2-0.2-4.2,1.3-3.6,3.6c-3.4-4.5-2.6,0.3-4.8-2.4c-1.8-0.5-1.1,1.2-1.2,2.4c-1.1-1.9-2.6-0.6-2.4,1.2
			c-1.1-0.2-1.4,0.1-1.2,1.2c2.8,2.3-1.7,0.2-2.4,2.4c-1.6,2.3-2-0.8-4.8,0c-2.1,3.1-3.9-4-7.2-2.4c-2.8,3.1-1.6-0.4-3.6,0
			c0.2,1-0.2,1.4-1.2,1.2c0.3-0.9-0.6-1.9-1.2-2.4c-2.5-0.7,0.1,3.1-2.4,2.4c-1,1.7-3.1,1.1-4.8,1.2c-1.4,3.3-0.3,5.5-4.8,4.8
			c0.6-1.8-1.5-1-2.4-1.2c0.3-1.1-0.2-1.3-1.2-1.2c0.6,2.1-2.4,0.9-3.6,1.2c0.8,2-4.9,2.2-6,2.4c-2,0.8-0.2,4.1-2.4,3.6
			c0.9,1.7-2.8,6.5-2.4,3.6c0.4,1.5-1.6,2.1-1.2,3.6c-1.1-0.1-2.9,0.6-2.4-1.2c-0.8,1.1-6.7,5.7-6,2.4c0.2,2-0.4,0.6-1.2,0
			c0.2-1.1-0.1-1.4-1.2-1.2c-0.4-1.5,1.7-2.1,1.2-3.6c-2.2,0.3-2.7-0.3-2.4-2.4c-0.7-0.5-1.5-1.5-1.2-2.4c0,0.6,0,1.8,0,2.4v-1.2
			c-0.3,1.2,0.9,4.2-1.2,3.6c0.1,1.2-0.7,4.2-2.4,3.6c0.8,1.4,2.8,1,3.6,2.4c0.6,2.1-2.3,0.9-3.6,1.2c0.5,8.3-1.2,1.7-1.2,4.8
			c0.4-2.3-2.4-3.3-3.6-1.2c-0.2-2.3,1.8,0.1,1.2-3.6c3.3,0,0-4.4-2.4-3.6h1.2c-1.8-0.5-1.1,1.2-1.2,2.4c-1.9-1-5,5.5-4.8,2.4
			c0.8,1.4-2.6,2.7,0,2.4c-3-0.3,2.2,1.9,1.2,3.6c-1.4-0.8-2.7,2.6-2.4,0c-2.4,2.6,0.1-0.6-2.4,0c-1.3,0.8-1.3,2.2-1.2,3.6
			c-1.8,0-5.3-0.4-4.8,2.4v-1.2c-0.4,1.5,1.7,2.1,1.2,3.6c-1.7,2.9-6.6,2-3.6,6c-0.7-0.5-1.5-1.5-1.2-2.4c-1.1-0.2-1.3,0.1-1.2,1.2
			c-1.4,0.8-2.7-2.6-2.4,0c-0.8-0.6-1.4-2-1.2,0c-0.7-3.9,2.4-1.3,0-3.6c1.1,0.1,1.4-0.1,1.2-1.2c2.6,0.6,0.4-2.6,0-3.6
			c-0.6-3.1-1.5-4.1-4.8-3.6c0.4,2.2-1.7,1-2.4,0c-0.1-1.1,0.1-1.4,1.2-1.2c1-0.7,2.2-2.8,0-2.4c3.1-2.5,4-0.8,3.6-6
			c-0.3,2.6,1-0.8,2.4,0c0.9-2,1.4-5,1.2-7.2c0.1-1.1-0.6-2.9,1.2-2.4c-0.7-1.2,2.7-5.6,0-4.8c1.1,0.1,1.3-0.1,1.2-1.2
			c1.2-1.3,3.2-1.4,3.6-3.6c-0.5-1.8,3.1-1.1,2.4-3.6c2.8-3.6,2,2.4,4.8-1.2c0.7-0.5,1.5-1.5,1.2-2.4c0.9,0.3,1.9-0.5,2.4-1.2
			c0.1-1.1-0.6-2.9,1.2-2.4c-0.8-1.6,4.3-3.8,3.6-1.2c1.1,0.1,2.9-0.6,2.4,1.2c-0.2-1,0.6-3-1.2-2.4c1.1,0.1,1.3-0.1,1.2-1.2
			c-2.2,0.4-1-1.7,0-2.4c-0.3-2.9,3.3,0.8,2.4-3.6c0.4,2.4-0.8,3.4-2.4,1.2c0.2-1.1-0.1-1.4-1.2-1.2c2-0.2,0.6,0.4,0,1.2
			c-0.4,1.1-1.2,4.2-2.4,4.8c-1.1,0.1-1.4-0.1-1.2-1.2c-1.1,0.1-1.4-0.1-1.2-1.2c0.5,1.7-1.7,1-2.4,2.4c2.6-0.3-0.8,1,0,2.4
			c-0.9-0.3-1.9,0.5-2.4,1.2c0.6-3.8-1.4-1.2-1.2-3.6c-0.7,0.5-1.5,1.5-1.2,2.4c-1.1-0.2-1.4,0.1-1.2,1.2c0.7-2.5-3.1,0.1-2.4-2.4
			c0.3,2.9-1.5-1.7-1.2,1.2c0.6-1.3-1-6.9-1.2-3.6c-1.1-0.2-1.4,0.1-1.2,1.2c-1.2,0.1-2.9-0.6-2.4,1.2c0.4-2.2-1.7-1-2.4,0
			c0.2-2-0.4-0.6-1.2,0c1.1-0.1,1.4,0.1,1.2,1.2c1.1-0.1,1.4,0.1,1.2,1.2c1.2,3.6-7.4,1.5-3.6,4.8c0.7,1.8-3.1,1.8-2.4,0
			c-0.2-2-3.8-3.9-3.6-1.2c0.6-2-1.3-3.1-1.2-4.8c0.1-1.2-0.7-4.1-2.4-3.6c0.2-1.1-0.1-1.4-1.2-1.2h1.2c-1.1,0.1-1.4-0.1-1.2-1.2
			c0.9,0.3,1.9-0.5,2.4-1.2c-0.3,3.1,2.2-0.6,3.6,0c1.8-1.4,1.8-5.8,0-7.2c-2.3,0.6-0.2-2.4-2.4,0c0.2-1.1-0.1-1.4-1.2-1.2
			c-0.1-1.1,0.6-2.9-1.2-2.4c2.6-2-2.2-0.5,1.2-3.6c-2.6,0.4,0.7-1.5,1.2-2.4c-1.7,0.4-1.7-1.6,0-1.2c0.5-0.6,1.5-1.5,2.4-1.2
			c-1.1,0.1-1.3-0.1-1.2-1.2c-1.2-0.1-2.9,0.6-2.4-1.2c-2.2,2.4-0.1-0.6-2.4,0c-0.1-1.1,0.6-2.9-1.2-2.4c0.6-1.4-1-6.8-1.2-3.6
			c-0.5-3.8-1.6-4.4-1.2,0c-0.4,1.8,2.2,2.3,0,3.6c2,1.7,0.4,1.1-1.2,1.2c-2.8,0.3-2.3-0.4-1.2-2.4c-0.6,0-1.8,0-2.4,0
			c2.7-1.8-1.2-3.6-2.4-1.2c3.6,0.1-4.3,2-4.8,3.6c1.5,1,1.5,2.6,0,3.6c0.5,2.3-1.7,5.5-1.2,1.2c-3.6,0.3,3.2-6.4-2.4-6
			c0.2-1.1-0.2-1.4-1.2-1.2c0.7-0.5,1.5-1.5,1.2-2.4c2.1,0.2,0.6-0.4,0-1.2c2.3,2.5,0-0.6,2.4,0c-0.6-2.3,1.7-4,2.4-6
			c2,0.2,0.6-0.4,0-1.2c2-1.3,1-4,1.2-6c-0.8-0.6-1.4-2-1.2,0c-3,0.4,0.4-6.3-2.4-7.2c-3.3,0.6,0.9-8,0,0c2.3-2.5,0,0.6,2.4,0
			c-0.4-1.6,3.9-1.6,3.6-6c0-1.1,0-2.5,0-3.6c1.1-0.1,1.4,0.1,1.2,1.2c1.3-2.2,1.8,0.4,3.6,0c0-1.5,0-3.3,0-4.8
			c1.9,1.5,0.5,2.9,3.6,2.4c-0.3,2.2,0.2,2.7,2.4,2.4c-0.2-0.9,0.6-3-1.2-2.4c1.1,0,2.5,0,3.6,0c-0.4-1.5,1.6-3.3,1.2-4.8
			c-3.1,0.4,0.6-3.4,0-4.8c-1.4,0.7-0.7,2.9-2.4,2.4c0.2,1.1-0.1,1.4-1.2,1.2c0.2,1.1-0.1,1.4-1.2,1.2c0.4,2.4-1.6-0.1-1.2-1.2
			c0.7,2.5-2.5-0.7,0,0c0.6-2.3-1.8-3.7-1.2-6c2.1-0.2,0.6,0.4,0,1.2c1.2-0.1,2.9,0.6,2.4-1.2c1.9,0.5,0.5-1.7,2.4-1.2
			c-0.7-1.9,1.3-3.2,1.2-4.8c-0.5,1.9,1.7,0.5,1.2,2.4v-1.2c-0.5,2.7,3.1,0.5,2.4-1.2c1.2-0.1,2.9,0.6,2.4-1.2
			c0.5,0.7,1.5,1.5,2.4,1.2c-0.3,0.9,0.5,1.9,1.2,2.4c0.6-0.8,2.1-1.4,0-1.2c2.2-0.3,2.7,0.3,2.4,2.4c-0.1-1.1,0.1-1.3,1.2-1.2
			c-0.1,1.1,0.1,1.4,1.2,1.2c-0.3-2.8,7.4,0.2,6-4.8c-0.3-0.9,0.5-1.9,1.2-2.4c-0.2,1.1,0.1,1.4,1.2,1.2c-0.7-3,3.9-1.6,1.2-3.6
			c-0.2-2,0.4-0.6,1.2,0c1.2,0.9,1.2,1.5,0,2.4c0.9-0.3,1.9,0.5,2.4,1.2c-0.2-1.1,0.2-1.4,1.2-1.2c-0.7-3.1,5.5,0.7,4.8-2.4
			c-0.4,2.2,1.7,1,2.4,0c-1.9-0.9-0.4-3.6-2.4-1.2c-0.1-3.7,1-5.4-3.6-4.8c-0.2-2.7-3.1-3.3,1.2-4.8c3.6-0.8,2.6-2.6,6,1.2h1.2
			c-2.6-1.7,0.6-2.7,2.4-2.4c0-1.5,0-3.3,0-4.8c3.9-0.6,3.5,1,6,1.2c-0.4-1.7,1.7-1.7,1.2,0c0.8-0.6,1.4-2.1,1.2,0
			c-0.3-2.9,1.5,1.7,1.2-1.2c0.3-1.2-0.9-4.2,1.2-3.6c-0.2-1.1,0.1-1.4,1.2-1.2c0,0.8,0,2.8,0,3.6c1.5-0.4,2.1,1.6,3.6,1.2
			c-2.6-0.3,0.8,1,0,2.4c1.1-0.2,1.4,0.1,1.2,1.2c-0.1-2,0.3-0.6,1.2,0c-0.1,1.1,0.1,1.4,1.2,1.2c3.2-1,5.6,5.1,8.4,1.2
			c-0.1,4.5,5.4,1.6,7.2,0c3.4,0.7,6.2-3.1,9.6-2.4c-0.1-2.6,0.9,1.4,2.4-1.2c-0.6,2.1,2.4,0.9,3.6,1.2c-0.6,2.1,2.4,0.9,3.6,1.2
			l3.6-1.2c-0.5-1.8,1.3-1.1,2.4-1.2c-0.7-1.4,4.3-5.1,1.2-4.8h1.2c-2.4,0.4,0.1-1.6,1.2-1.2c-2,1.7-0.4,1.1,1.2,1.2
			c-0.2-1.1,0.1-1.4,1.2-1.2h-1.2c2.2,0.3,2.7-0.2,2.4-2.4c3.1,0.5,1.7-0.9,3.6-2.4c-0.5,1.8,1.2,1.1,2.4,1.2
			c-0.3,0.9,0.5,1.9,1.2,2.4c1-0.7,2.2-2.8,0-2.4c-0.2-1.1,0.1-1.4,1.2-1.2h-1.2c1.6-0.1,3.2,0.5,1.2-1.2c3.7,1.5,1.2,1,1.2,3.6
			c0.7,0.5,1.5,1.5,1.2,2.4c0.7-1.8-3.1-1.8-2.4,0c1.7-0.5,1,1.7,2.4,2.4c-0.4,2.4,0.8,3.3,2.4,1.2c-0.4,1.7,1.6,1.7,1.2,0
			c0.6,0,1.8,0,2.4,0c-0.6-0.8-2-1.4,0-1.2c-0.6-0.8-2-1.4,0-1.2c-3.6,0.5,3.6-2.9,0-2.4c1.8,0.6,1.1-1.4,1.2-2.4
			c-0.6,0-1.8,0-2.4,0c0.5-0.7,1.5-1.5,2.4-1.2c-1.9-1.1-0.6-2.6,1.2-2.4H203c1.5,0,3.3,0,4.8,0c0.8,0.6,1.4,2,1.2,0
			c0,1.1,0,2.5,0,3.6c1.5,0.4,5.3-1.1,4.8,1.2c-0.6,2.1,2.9,2.7,2.4,4.8c-2.6-1.2,0.8,4.4,0,1.2c1.6,1.7,7.8,8.2,4.8,2.4l1.2,1.2
			c-0.3-1.9-3.6-3.5-1.2-4.8c1.1,0.1,1.4-0.1,1.2-1.2c-2.6,0.4,0.1-3.9-2.4-4.8c1.1,0.1,1.4-0.1,1.2-1.2c0.7-0.5,1.5-1.5,1.2-2.4
			c2.3-0.3,2.8-1.8,6-1.2c0.4-1.8-1.2-1.1-2.4-1.2c0.1-1.1-0.1-1.4-1.2-1.2h-1.2c0.3,3.3-3.3-1.1-4.8-1.2c-1.2,0.9-1.2,1.5,0,2.4
			c-1.5,0.4-2.1-1.7-3.6-1.2c3,0.3-1.6-2-2.4-2.4c0.4-1.7-1.6-1.7-1.2,0c0.6-2.1-2.4-0.9-3.6-1.2c-2-1.7-0.4-1.1,1.2-1.2
			c0.2-1.1-0.1-1.3-1.2-1.2c-0.5-2.6,3.9,0,4.8-2.4c-0.2,2.1,0.4,0.6,1.2,0c-0.2,1.1,0.1,1.3,1.2,1.2c-0.2-1.1,0.1-1.4,1.2-1.2
			c1.4-0.8,2.7,2.6,2.4,0c0.6,1.5,6.9,2.1,6,0c-0.4,1.7,1.6,1.7,1.2,0c1.1,0.2,1.4-0.1,1.2-1.2c1.4,0.3,2.7-1,2.4-2.4
			c1-0.7,2.2-2.8,0-2.4c1.9,0.5,0.5-1.7,2.4-1.2c-2.6,0.3,0.8-1,0-2.4c-1.1,0.1-2.9-0.6-2.4,1.2c-0.3-2.4,2.1,0.3,0,1.2
			c0.1,1.1-0.1,1.3-1.2,1.2c-0.6,0.6-1.8,1.8-2.4,2.4c-0.9-0.6-1.4-2-1.2,0c1-0.2,1.4,0.1,1.2,1.2c-3.6,0.6-1.3-1.4-3.6-1.2
			c0.7,2.5-3.1-0.1-2.4,2.4c-0.6-0.8-2-1.4,0-1.2c0.3-2.6-1,0.8-2.4,0c-0.6-1.4,3.1-3.9,0-3.6c0.1,1.1-0.1,1.3-1.2,1.2
			c-0.1,1.2,0.6,2.9-1.2,2.4c0.6,1.8-1.4,1.1-2.4,1.2c0.5,1.8-1.2,1.1-2.4,1.2c0.2-1.1-0.1-1.3-1.2-1.2c-1,0.2-1.4-0.1-1.2-1.2
			c-0.5,0.7-1.5,1.5-2.4,1.2c-0.9,1.2-1.5,1.2-2.4,0c2.1,0.2,0.5-0.4,0-1.2c1.9,0.5,0.5-1.7,2.4-1.2c1.4-0.9,1.4-3.4,2.4-4.8
			c-1.9,0.5-0.5-1.7-2.4-1.2c1.1,0.1,1.4-0.1,1.2-1.2c-2.4,0.6-0.1-1.5,0-2.4c1.9,0,5.2,0.4,4.8-2.4c-1.5-1.9-2.9-0.5-2.4-3.6
			c-1.8,0.5-1.1-1.2-1.2-2.4c1.1,0.1,2.9-0.6,2.4,1.2c0.6,1.2,4.2,2.2,3.6,0c-0.9,5.7,10.2-2.3,9.6-4.8c1.9,0.5,0.5-1.7,2.4-1.2
			c-0.5-1.7,1.7-0.9,2.4-2.4c-3.1,0.4,0.4-3.1,0,0c-0.1-4.6,0.8-1.8,2.4,0c0.8-0.4,2.7-1.5,3.6-1.2c0.1-1.2-0.6-2.9,1.2-2.4
			c0.5-0.7,1.5-1.5,2.4-1.2c-0.5-1.8,1.2-1.1,2.4-1.2c-0.2-2,0.4-0.6,1.2,0c-0.5-4,1.7-0.8,1.2-4.8c2.9-0.3-1.7,1.5,1.2,1.2
			c0,1.1,0,2.5,0,3.6c1.1-0.1,2.9,0.6,2.4-1.2c2.1,0.3,2.7-0.3,2.4-2.4c-0.9,1.2-1.5,1.2-2.4,0c0.7,2.5-2.5-0.7,0,0
			c-2.9,0.3,1.7-1.5-1.2-1.2c2.1,0.2,0.6-0.4,0-1.2c1.8,0.5,1.1-1.2,1.2-2.4c1.5,2.2,1.9-0.4,0,0c1.2-0.9,1.2-1.5,0-2.4
			c1.7,2,1,0.4,1.2-1.2c1.9,0.5,0.5-1.7,2.4-1.2c5.5-0.9,6.1,3,10.8,0c-0.5-2.2,2.9-0.4,3.6-2.4c2.8-2.4-3.1-2.5,4.8-2.4
			c-0.2-1.1,0.1-1.4,1.2-1.2c-1.2-0.9-1.2-1.5,0-2.4c0.6-0.5,1.5-1.5,1.2-2.4c0.5,0.7,1.5,1.5,2.4,1.2c1.2,0.2,3,0,3.6-1.2
			c0,0.9,2.5,3,0,2.4c0,1.5,0,3.3,0,4.8c-1.1-0.2-1.3,0.1-1.2,1.2c2.7,2.3,2.6,0.5,2.4,4.8c-1-1.6-4.1-1-3.6-3.6
			c-0.6,3.8,1.5,1.2,1.2,3.6c-1.8-0.5-1.1,1.2-1.2,2.4c-1.7-0.4-1.7,1.6,0,1.2c-3.3-0.5-3.2,1.7,0,1.2c-0.1,1.6,0.5,3.2-1.2,1.2
			c-1.5-0.4-2.1,1.7-3.6,1.2c1.1,2,3.7,0.4,4.8,2.4c-0.2-2.1,0.4-0.6,1.2,0c-0.3-0.9,0.5-1.9,1.2-2.4c1.9-0.5,0.5,1.7,2.4,1.2
			c0.6-3.8-1.5-1.2-1.2-3.6c-1.1,0.2-1.4-0.1-1.2-1.2c-1.4-2-1.1-2.9,1.2-3.6c0.8,1.3,2.3,1.3,3.6,1.2c-0.6,0-1.8,0-2.4,0
			c0.6,0.8,2,1.4,0,1.2c1.1-0.2,1.4,0.1,1.2,1.2c-0.6-1.8,1.4-1.1,2.4-1.2c-2-0.2-0.6,0.4,0,1.2c-3.2,0.8,2.4-2.6,1.2,0
			c0.5-1.9-1.7-0.5-1.2-2.4c-1.8,0.4-1.1-1.2-1.2-2.4c1.1,0,2.5,0,3.6,0c-1-0.7-2.2-2.8,0-2.4c-0.1,1.1,0.1,1.4,1.2,1.2
			c-0.4-2.2,1.9-2.6,3.6-2.4c-0.5-1.8,1.2-1.1,2.4-1.2c1-1.7,3.1-1.1,4.8-1.2c-0.2-2.1,1.8-0.2,1.2-3.6c1.5,0.4,3.3-1.6,4.8-1.2
			v-3.6c-0.1,1.1,0.1,1.3,1.2,1.2l2.4,2.4c-1.1-0.2-1.4,0.1-1.2,1.2c0.4-2.4-1.6,0.1-1.2,1.2c-1.2,0.8-3.4,0.9-1.2,2.4
			c-2-0.2-0.6,0.4,0,1.2c-2.1-0.5-2.6,2-2.4,3.6c0.6,3.8-1.5,1.2-1.2,3.6c0.1,1.1-0.6,2.9,1.2,2.4c-1.6,1.4-1.3,4-3.6,1.2
			c0.8,2.9,3.4,5.4,3.6,8.4c-0.9,1.2-1.5,1.2-2.4,0c0.2,2.1-0.4,0.6-1.2,0c0.1,1.3,0.1,2.8-1.2,3.6c0.5,1.8-1.2,1.1-2.4,1.2
			c0.5,0.9,3.8,2.8,1.2,2.4c0.6,0.8,2,1.4,0,1.2c-0.2,1.1,0.1,1.4,1.2,1.2c0,1.3,0,3.5,0,4.8c-1-1.7-3.8-1.7-4.8,0
			c1.1-0.2,1.4,0.2,1.2,1.2c-1.4,0.7-0.7,2.9-2.4,2.4c0.6,0.8,2,1.4,0,1.2h1.2c-1.1-0.1-1.4,0.1-1.2,1.2c1.1-0.1,1.4,0.1,1.2,1.2
			c-2.3,2.2,0.7-0.3,0,3.6c0,0.6,0,1.8,0,2.4c-1.8-0.2-3.1,1.3-1.2,2.4c-1.3,1-3,3-2.4,4.8c-1.8-0.5-1.1,1.3-1.2,2.4
			c-0.4,0.7-1.5,2.7-1.2,3.6c-1,0.1-1.4-0.1-1.2-1.2c-0.4,0.9-5.4,4.2-2.4,3.6c-2.1,0-0.5,0.3,0,1.2c-3.2,4.1-1.6,6.9-8.4,3.6
			c-2.2-2.6-0.2,1.4-2.4-1.2l-2.4,2.4c0.1,1.2-0.1,1.2-1.2,1.2v1.2c1.8-0.4,3.1,2.8,1.2,3.6l1.2,3.6c-0.9,2.7-3.9,4.5-4.8,7.2
			c-1.5,1.6-4.3,2.3-4.8,4.8c-2.7-0.3,0.6,3.4,2.4,2.4c0.5,4-2.7,8.7-3.6,12c-2,2.4-5.2,6-1.2,8.4c-2.1,4.1,0.4,13.4,3.6,16.8
			c0.6,2.2-3.5,3.7-4.8,4.8c0.9,0.6,2,2.6,2.4,3.6c-0.4,9.2,7.6,21.1-3.6,26.4c1.8,2.8,0.4,4.8-2.4,6c0.5,2.1-2,2.7-3.6,2.4
			c0.2,0.9-0.2,1.5-1.2,1.2c0.3,0.9-0.6,1.9-1.2,2.4C247.7,245,246.9,246.1,246.2,246.5z"/>
	</g>
</g>
<path id="path2996_00000021814582006708923420000013043513236619912624_" class="st1" d="M300.2,68.6l1.2,1.2c0.6,0,1.8,0,2.4,0
	c0-0.6,0-1.8,0-2.4l1.2-1.2v1.2c0.6,0,1.8,0,2.4,0v-1.2h2.4c0,1.5,0,3.3,0,4.8h1.2l-1.2,1.2l1.2,1.2c0.6,0,1.8,0,2.4,0v1.2h-1.2h1.2
	l-1.2,1.2V77h1.2v1.2l-1.2,1.2v2.4l1.2,1.2h1.2v-1.2c0,0.8,0,2.8,0,3.6c0-1.3,0-3.5,0-4.8h1.2v-1.2h1.2l1.2-1.2H317
	c0-1.1,0-2.5,0-3.6c1.3,0,3.5,0,4.8,0c0-1.1,0-2.5,0-3.6h1.2l1.2,1.2l1.2-2.4c0.4,0.8,1.5,2.7,1.2,3.6h1.2v-1.2l1.2,1.2l1.2-1.2
	l1.2,1.2h2.4v1.2h-1.2h1.2h-1.2l-1.2,1.2l1.2,1.2h1.2v1.2c1.1,0,2.5,0,3.6,0v1.2h-1.2h1.2v-1.2h1.2l-1.2,1.2c0.6,0,1.8,0,2.4,0v1.2
	c0.6,0,1.8,0,2.4,0v1.2h1.2h-1.2h1.2c0.6,0.9,2.6,2,3.6,2.4V83l1.2,1.2h1.2v2.4l1.2,1.2l-1.2-1.2v1.2l1.2,1.2v1.2h1.2v1.2h1.2v1.2
	h-1.2l1.2,1.2v-1.2v1.2h1.2V95c0.9,0.6,2,2.6,2.4,3.6l1.2,1.2v1.2h1.2l1.2,1.2h1.2v1.2c0.8,0.4,2.7,1.5,3.6,1.2l-1.2,1.2h1.2
	l-2.4,1.2v1.2h-1.2V107l1.2,1.2h1.2v1.2h-1.2v1.2l2.4-1.2c0-0.6,0-1.8,0-2.4h1.2v-1.2c1,0.4,3,1.5,3.6,2.4c1.5,0,3.3,0,4.8,0v1.2
	c0.6,0,1.8,0,2.4,0v1.2l4.8-1.2l1.2,1.2v-1.2h1.2H383l1.2-1.2l1.2,1.2h1.2l1.2,1.2v-1.2h1.2l1.2,1.2h1.2v-1.2l1.2,1.2l-1.2-1.2h1.2
	v1.2h1.2v1.2v-1.2h1.2l1.2,1.2H395v1.2h1.2c0.3,0.9-0.8,2.8-1.2,3.6c-0.6,1.2-1.8,3.6-2.4,4.8l1.2,1.2l-1.2,1.2v2.4l-1.2,1.2h-1.2
	l-1.2,1.2h-1.2l-1.2,2.4c0,0.6,0,1.8,0,2.4v-1.2l-1.2,1.2v1.2h-1.2v1.2c-0.6,0-1.8,0-2.4,0l-1.2,1.2v-1.2l-2.4-1.2l-1.2,1.2
	l-1.2-1.2h-1.2l-1.2,1.2l1.2,1.2l-1.2,1.2l1.2,1.2v1.2l-1.2-1.2v1.2l-1.2,1.2v1.2h1.2v1.2c0.6,0.6,1.8,1.8,2.4,2.4
	c0.6-0.6,1.8-1.8,2.4-2.4h1.2v1.2l1.2,1.2l-1.2,2.4c0,1.8,0,4.2,0,6h1.2l1.2,1.2v2.4h1.2v2.4h1.2l1.2,1.2h1.2l1.2-1.2h1.2
	c0,0.8,0,2.8,0,3.6l-1.2,1.2c0,1.5,0,4.5,0,6c0.6,0.6,1.8,1.8,2.4,2.4v1.2l1.2,1.2h1.2l2.4,3.6c0-0.6,0-1.8,0-2.4h1.2l1.2,3.6h1.2
	l1.2,1.2l2.4-1.2c0,0.8,0,2.8,0,3.6c-0.6,1.2-1.8,3.6-2.4,4.8l1.2,3.6h1.2l1.2,1.2v1.2l2.4,1.2v-1.2l1.2-1.2h1.2l1.2-1.2h1.2
	l1.2-1.2c0.6,0,1.8,0,2.4,0c0-0.6,0-1.8,0-2.4l1.2-1.2v-2.4h1.2V185v2.4h1.2l1.2,2.4h1.2l1.2,1.2v1.2l1.2,1.2v1.2l1.2,1.2h-1.2
	c0,1.1,0,2.5,0,3.6c-1,0.4-3,1.5-3.6,2.4h-1.2v1.2h-1.2l-1.2,2.4c-0.8,0-2.8,0-3.6,0c-1.1,1.1-2.5,2.5-3.6,3.6l-1.2-2.4h-1.2v-1.2
	l-1.2,1.2v1.2h-1.2v2.4l-1.2-1.2c0,0.6,0,1.8,0,2.4H401c0,1.3,0,3.4,0,4.8h-1.2v1.2v-1.2l-1.2-1.2l-1.2,2.4h-1.2v1.2l1.2,1.2v2.4
	h1.2v1.2h1.2v1.2l1.2,1.2v-1.2h1.2l-1.2-1.2c0-1.9,0-4.1,0-6h1.2v-1.2l1.2,1.2l1.2,3.6c0.6,0.6,1.8,1.8,2.4,2.4l1.2,2.4
	c1.7,0,4.3,0,6,0l1.2,1.2v1.2l3.6,4.8v3.6l-1.2,2.4l1.2,2.4h1.2h-3.6c0.9,0.6,2,2.6,2.4,3.6l1.2,1.2v2.4l1.2,2.4l-2.4-1.2v-1.2h-1.2
	h1.2l-6,1.2l2.4,4.8v2.4l1.2,1.2h1.2l-1.2,1.2h1.2l-2.4,1.2v1.2c-0.6,0.6-1.8,1.8-2.4,2.4l1.2,1.2c-1.1,1.1-2.5,2.5-3.6,3.6h-1.2
	l-1.2,1.2v1.2c-0.7,0.9-5,4-6,4.8H401l-1.2-3.6h-1.2l-1.2,1.2l1.2,1.2l-1.2,1.2c0,0.6,0,1.8,0,2.4l-2.4,1.2l-1.2-1.2
	c-0.6,0-1.8,0-2.4,0L389,281h1.2c-0.6,0-1.8,0-2.4,0c-0.4,1-1.5,3-2.4,3.6l2.4,2.4v1.2l1.2,1.2v1.2h1.2l-1.2,1.2h1.2L389,293
	c0.6,0.6,1.8,1.8,2.4,2.4h-1.2l-1.2-1.2v1.2h-1.2l-1.2,1.2h-1.2l-1.2,1.2l1.2,1.2l-1.2,2.4l1.2,1.2l-1.2,1.2l1.2,2.4h1.2v1.2
	c-1,0.4-3,1.5-3.6,2.4c0.3,0.9-0.8,2.8-1.2,3.6l-1.2-1.2l1.2,1.2l-1.2,2.4h1.2v2.4l-1.2,1.2v1.2l-1.2,1.2v2.4
	c-0.6,0.6-1.8,1.8-2.4,2.4v2.4l-1.2,1.2v1.2h-2.4l-1.2,1.2v1.2H371v1.2c-0.9-0.3-2.8,0.8-3.6,1.2c0,0.6,0,1.8,0,2.4l-1.2,2.4H365
	c0,1.1,0,2.5,0,3.6c-0.4,1-1.5,3-2.4,3.6h-1.2l1.2,1.2l-2.4,1.2c0,0.8,0,2.8,0,3.6c-0.4,0.8-1.5,2.7-1.2,3.6l-2.4-2.4l-2.4-4.8
	c0.4-0.8,1.5-2.7,1.2-3.6l1.2-1.2c-0.8-0.4-2.7-1.5-3.6-1.2l-1.2-1.2v-1.2h-1.2V341l-1.2-1.2c-0.9,0.3-2.8-0.8-3.6-1.2v-1.2
	l-1.2-1.2c-2.3,0-4.9,0-7.2,0h1.2c-0.6,0-1.8,0-2.4,0l-1.2,1.2l-2.4-2.4h-1.2l-1.2-1.2v1.2c-1,0.4-3,1.5-3.6,2.4h-2.4l-1.2,2.4
	c-0.8,0-2.8,0-3.6,0l-1.2,1.2l-3.6,1.2c-0.9,0.2-5.2,1.4-6,1.2c-1.3-1.3-3.5-3.5-4.8-4.8l-3.6,1.2l-1.2,2.4h-2.4V341h-1.2v-2.4
	c-0.6-0.6-1.8-1.8-2.4-2.4h-1.2l-1.2-1.2c-0.6,0-1.8,0-2.4,0c-1-0.4-3-1.5-3.6-2.4v-2.4l-1.2-2.4H281l-1.2-1.2
	c-0.8,0.4-2.7,1.5-3.6,1.2v-1.2l-2.4-1.2v-1.2h-1.2v1.2c0-0.6,0-1.8,0-2.4l1.2,1.2l1.2-1.2c1.1,0,2.5,0,3.6,0v-1.2l-1.2-1.2h-1.2
	v-1.2c-0.6,0-1.8,0-2.4,0c-0.6,0.6-1.8,1.8-2.4,2.4h-1.2c-0.6-0.6-1.8-1.8-2.4-2.4c-0.8,0-2.8,0-3.6,0v-1.2l-2.4-1.2h-2.4
	c0-0.6,0-1.8,0-2.4h-1.2l-1.2,1.2l-2.4-1.2h1.2v-2.4h-3.6l2.4-1.2c0.6,0,1.8,0,2.4,0l-1.2-1.2l1.2-1.2l1.2,1.2v-2.4l-3.6-2.4
	c0.3-0.9-0.8-2.8-1.2-3.6h-1.2l2.4-1.2l1.2-2.4c0-0.6,0-1.8,0-2.4l1.2-1.2V293h1.2c0-0.8,0-2.8,0-3.6l1.2-4.8c0-0.8,0-2.8,0-3.6
	c0.6-0.6,1.8-1.8,2.4-2.4v-1.2h1.2l1.2-1.2l-1.2-2.4l1.2-1.2c-0.9,0.5-5.2-2.1-6-2.4c-1.8-1-4.7-1.9-6-3.6v-1.2H251l-1.2-3.6
	l-2.4-2.4c0-0.8,0-5.1,0-6c0.9-0.6,2-2.6,2.4-3.6l2.4-2.4H251l-1.2-1.2h-1.2l-1.2,1.2l-1.2-1.2H245l1.2-1.2v-1.2l1.2-1.2v-1.2h1.2
	v-1.2h2.4l1.2-1.2v-1.2l3.6-2.4l-1.2-3.6c0.6-0.9,2.6-2,3.6-2.4l2.4-3.6c0-1.6,0-5.6,0-7.2l-1.2-2.4v-2.4l-1.2-4.8
	c0-0.8,0-2.8,0-3.6c-0.4-1-1.5-3-2.4-3.6c1-0.7,4.1-2.6,4.8-3.6V197c-1.9-1.5-2.9-5-3.6-7.2c0.3-1.6-0.8-5.6-1.2-7.2l1.2-2.4
	c-0.9-0.6-2-2.6-2.4-3.6l3.6-4.8v-1.2l2.4-3.6c0.1-0.9,1.4-6.4,1.2-7.2h-2.4l-1.2-2.4h1.2l1.2-2.4c2.7-1.1,3.7-2.1,4.8-4.8
	c0.6-0.6,1.8-1.8,2.4-2.4l1.2-2.4l-1.2-3.6l1.2-1.2l-1.2-2.4h-1.2V137h1.2v-1.2l2.4-2.4l1.2,1.2v-1.2c0.6,0.9,2.6,2,3.6,2.4
	c0.8,0,2.8,0,3.6,0l1.2-3.6l1.2-1.2l-1.2-1.2h1.2h-1.2c0.8-0.8,2.8-2.8,3.6-3.6v1.2h1.2c-0.3-0.9,0.8-2.8,1.2-3.6c0-0.6,0-1.8,0-2.4
	h1.2V119l2.4-2.4l-1.2-1.2l1.2-1.2h1.2c0-1.5,0-3.3,0-4.8h-1.2l1.2-1.2V107h-1.2v-1.2h1.2h-1.2h1.2l-1.2-1.2h1.2v-1.2l1.2-1.2V101
	h-1.2l1.2-1.2h2.4l1.2,1.2c0-1.3,0-3.4,0-4.8h-1.2V95h1.2l-1.2-1.2h1.2c-0.6-0.6-1.8-1.8-2.4-2.4c0.6,0,1.8,0,2.4,0v-1.2l1.2-1.2
	c0-0.6,0-1.8,0-2.4l1.2,1.2v-1.2l1.2,1.2l1.2-1.2c0.2-1.6-1.2-3.8-2.4-4.8c0.3-0.9-0.8-2.8-1.2-3.6l1.2,1.2h1.2v-1.2l1.2-1.2H299
	c0-1.1,0-2.5,0-3.6h1.2C300.2,72.1,300.2,70,300.2,68.6z"/>
<path id="path2662_00000134230645456183290630000017492830185296829096_" class="st2" d="M420.1,375.1v-1.2l-1.2,1.2v1.2l-1.2,1.2
	v1.2l1.2,1.2v2.4h1.2l-1.2,1.2l-1.2-2.4h-2.4l-2.4-1.2h-1.2h-2.4h-1.2h-1.2l-2.4,2.4l-1.2,1.2l1.2,1.2l-2.4,2.4h-1.2l-3.6,2.4h-1.2
	v1.2l-1.2,4.8v1.2l-1.2,2.4h-1.2h-1.2h-1.2h-1.2v1.2v1.2h-1.2h1.2v1.2h-1.2v1.2h-1.2v1.2v1.2v1.2h-1.2h-1.2l-2.4,1.2v1.2v1.2
	l1.2,1.2l1.2,1.2h2.4h3.6v3.6l1.2,1.2l1.2,1.2h-1.2l-1.2,2.4l-1.2,1.2v1.2l-1.2,1.2v1.2h-1.2v1.2l1.2,2.4l-1.2,1.2h-1.2l-1.2,2.4
	h-1.2h-3.6v-1.2h-1.2v1.2h-1.2h-1.2h-2.4v-2.4l-1.2-2.4l-3.6-2.4h-1.2l-1.2-1.2h-1.2h-2.4v2.4h-1.2l-2.4-1.2l-1.2,2.4v1.2v1.2v1.2
	l-1.2,1.3h1.2l-1.2,1.2h1.2v1.2l1.2,2.4h-1.2l1.2,1.2l-1.2,1.2v1.2h-1.2v1.2l-1.2,3.6h-1.2h-1.2l-1.2,1.2l-2.4,1.2h-1.2h-2.4
	l-2.4,1.2l-1.2,1.2h-3.6l-1.2,1.2l-1.2,1.2v-1.2h-2.4h-1.2l-2.4,1.2l-1.2-2.4l-3.6,1.2v1.2l-1.2,1.2v1.2h-1.2v1.2l-1.2,1.2h-1.2
	l-1.2,1.2v-1.2l1.2-1.2l-1.2-1.2l1.2-1.2h-1.2l-2.4-2.4V452v-1.2v-1.2l-1.2-1.2h-1.2h-1.2h-2.4v-1.2h-2.4h-1.2v1.2v1.2l1.2,1.2
	l-2.4,1.2l-3.6,1.2h-1.2v1.2l-1.2-1.2l-2.4,1.2l-3.6-1.2l-2.4,1.2v-1.2v-2.4h1.2v-1.2l1.2-1.2v-1.2V446h1.2l1.2-1.2v-1.2l-1.2,1.2
	v-1.2l-2.4,1.2l-1.2-1.2h-1.2h-1.2h-3.6l-1.2-1.2l-1.2-1.2h-1.2l-1.2-2.4l-1.2-1.2h-1.2l-4.8,2.4h-1.2h-1.2v-1.2h-1.2l-2.4,2.4h-2.4
	l-1.2,1.2h-1.2h-3.6h-2.4v2.4l-1.2,1.2h-1.2h-1.2v1.2l-1.2,1.2l-1.2-1.2l-1.2-1.2l1.2-1.2v-3.6v-4.8l1.2-2.4v-1.2h-1.2l-2.4-1.2v1.2
	l-1.2,3.6l-1.2,4.8h-1.2l-1.2,1.2h-1.2l-1.2,1.2l-1.2-1.2h-2.4h-1.2l-1.2,1.2v1.2h-1.2v1.2l-1.2,1.2l-1.2,2.4l-1.2,1.2h-2.4h-1.2
	v1.2h-1.2h-1.2v1.2h-1.2h-1.2h-1.2l-1.2,1.2v-1.2l-1.2,1.2h-1.2v-1.2h-1.2h-1.2l-1.2,1.2l-3.6-2.4h-2.4l1.2-8.4v-1.2l-1.2-2.4h-1.2
	h-1.2h-2.4v-1.2h1.2h-1.2l1.2-1.2l-1.2-1.2l-1.2-1.2V434v-2.4l1.2-1.2l1.2-3.6l3.6-2.4v-1.2l1.2-1.2l1.2-2.4v-1.2l3.6-1.2l2.4-2.4
	v-1.2l1.2,1.2l1.2-1.2h1.2h1.2l1.2-1.2l1.2-2.4v-3.6l-1.2-1.2l-1.2-3.6l-1.2-1.2l-1.2-1.2h-1.2l-2.4,1.2l-1.2-1.2h-1.2l-2.4,2.4
	h-1.2l-1.2-2.4v-2.4v-1.2v-7.2v-1.2V386h1.2h-1.2l-1.2-2.4l3.6-1.2v-1.2l1.2-1.2h1.2v-1.2l-1.2-1.2v-2.4V374l-1.2-1.2h-1.2v-1.2h1.2
	l1.2-1.2h1.2l1.2-1.2l-1.2-1.2v-1.2l1.2-1.2h-1.2h-2.4h-2.4l-1.2,1.2h-2.4h-1.2l-1.2-1.2v-1.2h-1.2l-1.2-1.2h-1.2v-2.4v-1.2
	l-1.2-2.4l1.2-1.2v-2.4l1.2-1.2V350h-1.2h-1.2h-1.2v-1.2v-1.2l-2.4-1.2v-1.2l-1.2-1.2h-1.2v-1.2l1.2-1.2l-1.2-2.4l1.2-1.2v-1.2
	l-1.2-8.4l-1.2-2.4v-1.2v-2.4v-1.2v-2.4h-1.2l-2.4-3.6l2.4,1.2l1.2-1.2V314h1.2h1.2h2.4l1.2,1.2l1.2-1.2l1.2-1.2v-1.2h2.4v-1.2v-1.2
	h1.2V308l2.4-1.2l1.2-1.2h1.2h1.2l1.2,1.2l2.4-3.6l2.4-1.2v-1.2h1.2l1.2-1.2l1.2,1.2v1.2l2.4,2.4l1.2-1.2h1.2h2.4l2.4,1.2l1.2-1.2
	l2.4,1.2h1.2l1.2,1.2l1.2-1.2h1.2l1.2,1.2l1.2,1.2h1.2h1.2v-2.4l1.2-1.2V302l1.2-1.2h1.2l2.4,1.2h1.2h2.4v-1.2h2.4h1.2l1.2,2.4v1.2
	l3.6,2.4v2.4l-1.2-1.2l-1.2,1.2l1.2,1.2h-1.2h-1.2l-2.4,1.2h3.6v2.4h-1.2l2.4,1.2l1.2-1.2h1.2v1.2v1.2h2.4l2.4,1.2v1.2h2.4h1.2
	l1.2,1.2l1.2,1.2h1.2l1.2-1.2l1.2-1.2h1.2h1.2v1.2h1.2l1.2,1.2v1.2h-1.2h-1.2h-1.2l-1.2,1.2l-1.2-1.2v1.2v1.2v-1.2h1.2v1.2l2.4,1.2
	v1.2h1.2l2.4-1.2l1.2,1.2h2.4l1.2,2.4v2.4l1.2,1.2l2.4,1.2h1.2h1.2l1.2,1.2h1.2l1.2,1.2l1.2,1.2v2.4h1.2v1.2h2.4l1.2-2.4l3.6-1.2
	l1.2,1.2l2.4,2.4l1.2,1.2h1.2l4.8-1.2l3.6-1.2l1.2-1.2h1.2h2.4l1.2-2.4h2.4l1.2-1.2l2.4-1.2v-1.2l1.2,1.2h1.2l2.4,2.4l1.2-1.2h1.2
	h1.2h-1.2h1.2h1.2h1.2h1.2h2.4l1.2,1.2v1.2l2.4,1.2h1.2l1.2,1.2v1.2h1.2v1.2l1.2,1.2h1.2l2.4,1.2l-1.2,1.2v1.2l-1.2,2.4l2.4,4.8
	l2.4,2.4V356l1.2-2.4v-1.2V350l2.4-1.2l-1.2-1.2h1.2l1.2-1.2l1.2-2.4v-1.2v-1.2v-1.2h1.2l1.2-2.4v-1.2v-1.2l2.4-1.2h1.2v-1.2h1.2
	V332l1.2-1.2h2.4v-1.2l1.2-1.2V326l1.2-1.2l1.2-1.2v-2.4h2.4h1.2h1.2l1.2,1.2l1.2,1.2h1.2l2.4-1.2v1.2h1.2l2.4,1.2h1.2l1.2-3.6V320
	h4.8h1.2l1.2,2.4h1.2l1.2,1.2l3.6,1.2l2.4,2.4h1.2h1.2l1.2-1.2h1.2v1.2l1.2,1.2v1.2l1.2,1.2v2.4l-2.4,1.2v2.4v1.2l1.2,1.2h-1.2v1.2
	l-1.2,1.2v1.2h-1.2l-1.2,1.2l1.2,1.2l2.4,1.2v1.2h1.2h1.2v1.2h1.2h1.2l2.4,1.2v1.2v1.2h2.4h1.2l1.2,1.2v2.4v1.2l-1.2,2.4l1.2,1.2
	v1.2l-1.2-1.2l1.2,1.2v1.2l-1.2,1.2v1.2l-1.2,2.4l-1.2,1.2l-1.2,2.4v2.4h-1.2v1.2l-1.2-1.2L420.1,375.1z"/>
<path id="path2626_00000160156426966603857100000016367288668362707592_" class="st2" d="M120.8,368.1l1.2-1.2v-2.4l1.2-1.2v1.2h1.2
	l1.2-1.2v-1.2l1.2,1.2v-1.2v1.2h-1.2v1.2v-1.2v1.2l1.2-1.2v1.2v-1.2h1.2v-1.2v-1.2v1.2l1.2-1.2v1.2v-1.2h1.2h1.2h1.2v-1.2v-1.2v-1.2
	h1.2v1.2h1.2v-1.2v1.2v-1.2h1.2h1.2l1.2-2.4v-1.2h1.2v-1.2h1.2h1.2h1.2l1.2,1.2v-1.2h1.2l1.2,1.2v-1.2H146v-1.2h1.2v-1.2v-1.2
	l-1.2-1.2v1.2v-1.2l1.2-2.4h1.2l-1.2-1.2l1.2-1.2l-1.2-1.2l1.2-1.2h-1.2H146v-1.2l-1.2,1.2l-1.2,1.2v1.2h1.2v2.4h-2.4v1.2l-1.2-1.2
	l-1.2,1.2v1.2h1.2v1.2v1.2l-1.2,1.2h-2.4v1.2h-1.2l-1.2,1.2l-1.2-1.2v1.2h-1.2h-1.2v-2.4v1.2h-1.2h-1.2v-1.2v1.2l-1.2,1.2h1.2
	l-1.2,1.2h-2.4v1.2l-1.2,1.2l-1.2-1.2h-2.4h1.2h-1.2v1.2h1.2h-1.2v1.2h-1.2v1.2v-1.2h-1.2l-1.2-2.4H116v1.2l-1.2,1.2l-1.2-1.2
	l-1.2-1.2H110v1.2l-1.2,1.2v-1.2h-1.2l1.2-3.6v-1.2l1.2-2.4l1.2-2.4l-1.2-1.2h1.2v-1.2v1.2l1.2,1.2v1.2l1.2,1.2l1.2,1.2v1.2l1.2,1.2
	v-1.2v-1.2v-1.2v-1.2v-1.2l1.2-2.4H116v-1.2v-1.2h-1.2l1.2-1.2h-1.2v-1.2h-1.2l1.2-1.2h1.2v1.2h1.2h1.2h1.2v1.2l1.2,1.2h1.2h1.2
	l1.2-1.2h1.2v-1.2h1.2v-1.2l1.2-1.2v-1.2v-1.2h1.2l1.2-2.4v1.2v-1.2l1.2-1.2h1.2v-1.2l2.4-1.2l1.2,1.2v-1.2h1.2l-1.2-1.2v1.2v-1.2
	h1.2v-1.2l1.2,1.2l2.4-3.6h1.2l1.2-1.2h-1.2v1.2v-1.2v1.2h-1.2H140h-1.2h-1.2l1.2-1.2l-1.2-1.2v-1.2l-1.2,1.2h-1.2v1.2l-1.2,1.2
	h-1.2l-2.4,1.2h-1.2l-1.2,2.4h-1.2v1.2h-1.2l-1.2,1.2l-1.2-1.2l-1.2-1.2h-1.2h-1.2l-1.2-1.2v1.2h-1.2v1.2l-1.2,1.2v-1.2l-1.2,1.2
	h-1.2l1.2-1.2h-1.2v-1.2h-1.2v-1.2l-1.2-2.4H110h-1.2v-1.2v-1.2h1.2v-1.2h-1.2h1.2v-1.2v-2.4l-1.2-1.2v-1.2h-1.2h-1.2l-1.2-1.2H104
	v1.2l-1.2,1.2h-1.2v-1.2v1.2l-1.2-2.4l1.2-1.2v-1.2h-1.2l1.2-1.2h1.2l1.2,1.2v-1.2v1.2h1.2l2.4-1.2v-1.2l1.2,1.2v-1.2h1.2l-1.2-1.2
	v1.2v-1.2l1.2-1.2v1.2l1.2-1.2v1.2l1.2-1.2v1.2l1.2,1.2l-1.2,1.2l1.2,1.2l-1.2,1.2h1.2h-1.2l-1.2,1.2v1.2H110l1.2,2.4h1.2l1.2-1.2
	v-1.2v1.2h1.2l-1.2-1.2h1.2v1.2h1.2v-1.2v1.2l1.2-1.2v1.2l1.2,1.2v-1.2v-1.2v-1.2h-1.2v-1.2v-1.2v-1.2h1.2l-1.2-1.2l1.2-1.2v1.2h1.2
	h1.2v-1.2h1.2h-1.2h-1.2v-1.2v-1.2l-1.2,1.2v-1.2h1.2v-1.2v-1.2h1.2h-1.2l1.2-1.2h-1.2l-1.2,1.2v1.2v-1.2v-2.4v-1.2v-1.2l-1.2-1.2
	v-1.2v-1.2h1.2l1.2,1.2l-1.2,1.2h1.2v-1.2v-1.2l-1.2,1.2v-1.2v-1.2v-1.2h1.2v-1.2v1.2h2.4l1.2-1.2l1.2,1.2l-1.2-1.2l1.2-1.2v1.2
	v-1.2h1.2v-1.2v-1.2v1.2h1.2h1.2v-1.2v1.2v-1.2v-1.2l-1.2-1.2l1.2-1.2v-1.2h1.2v-1.2l1.2-1.2v-1.2h1.2l1.2-1.2l1.2-2.4l1.2-1.2
	l1.2-2.4h-1.2v-1.2h1.2v-1.2v-1.2l1.2-1.2h1.2l4.8-1.2v-1.2h1.2h2.4v-1.2h1.2v1.2h2.4v1.2h1.2h1.2h1.2v-1.2l1.2-3.6h1.2h1.2h1.2
	l1.2-1.2h1.2v-1.2v-1.2h1.2l1.2,1.2v1.2h1.2v-1.2h1.2v1.2h1.2l1.2-1.2h2.4l1.2,1.2l2.4,2.4l1.2-1.2h1.2h1.2l1.2,1.2l1.2-1.2l1.2-1.2
	h1.2h1.2l-1.2-1.2v-1.2h1.2v-1.2l1.2-1.2l1.2,1.2v-1.2v-1.2h1.2l1.2,1.2l1.2-1.2l1.2,1.2l1.2,1.2v-1.2v-1.2l2.4-1.2h1.2l-1.2-1.2
	h1.2v-2.4v-1.2v-1.2v-1.2h-1.2H194v-1.2l1.2-1.2l1.2,1.2v-1.2l1.2,2.4v-1.2l1.2-1.2l1.2,1.2l-1.2,1.2h1.2h1.2l1.2,1.2h-1.2v1.2
	l1.2,1.2l1.2,1.2l1.2-1.2v-1.2l1.2-1.2l1.2-1.2h1.2h1.2l-1.2,1.2h1.2l1.2-1.2v1.2l1.2,1.2h2.4l1.2-1.2l-1.2-1.2l-1.2-1.2l1.2-1.2
	v1.2h1.2l1.2-1.2l2.4-2.4v1.2h1.2h1.2v1.2h1.2v1.2h1.2h1.2l2.4-1.2v1.2l1.2,1.2v-1.2h1.2h1.2l1.2-1.2h1.2h1.2l1.2,2.4h1.2H236v1.2
	h1.2v1.2h1.2l1.2-1.2h1.2l1.2-1.2h1.2l1.2-1.2l1.2,1.2h1.2l1.2,1.2l1.2-1.2h1.2l1.2,1.2h1.2l-2.4,2.4l-1.2,2.4l-1.2,1.2v4.8v1.2
	l2.4,2.4l1.2,3.6h1.2v1.2l1.2,1.2l2.4,1.2l2.4,1.2l4.8,2.4h1.2l-1.2,1.2l1.2,2.4l-1.2,1.2h-1.2v1.2l-1.2,1.2l-1.2,1.2v1.2v2.4
	l-1.2,4.8v1.2v2.4h-1.2v1.2l-1.2,1.2v1.2v1.2l-1.2,2.4l-2.4,1.2h-2.4v1.2H248h-1.2l-2.4-1.2h-1.2l-1.2,1.2v1.2l-1.2,1.2v2.4h-1.2
	h-1.2l-1.2-1.2l-1.2-1.2h-1.2l-1.2,1.2l-1.2-1.2h-1.2l-2.4-1.2l-1.2,1.2l-2.4-1.2h-2.4h-1.2l-1.2,1.2l-2.4-2.4v-1.2l-1.2-1.2
	l-1.2,1.2h-1.2v1.2l-2.4,1.2l-2.4,3.6l-1.2-1.2h-1.2H206l-1.2,1.2l-2.4,1.2v1.2h-1.2v1.2v1.2h-2.4v1.2l-1.2,1.2l-1.2,1.2l-1.2-1.2
	h-2.4h-1.2h-1.2v1.2l-1.2,1.2l-2.4-1.2l2.4,3.6h1.2v2.4v1.2v2.4v1.2l1.2,2.4l1.2,8.4v1.2l-1.2,1.2l1.2,2.4l-1.2,1.2v1.2h1.2l1.2,1.2
	v1.2l2.4,1.2v1.2v1.2h1.2h1.2h1.2v2.4l-1.2,1.2v2.4l-1.2,1.2l1.2,2.4v1.2v2.4h1.2l1.2,1.2h1.2v1.2l1.2,1.2h1.2h2.4l1.2-1.2h2.4h2.4
	h1.2l-1.2,1.2v1.2l1.2,1.2l-1.2,1.2H212l-1.2,1.2h-1.2v1.2h1.2l1.2,1.2v1.2v2.4l1.2,1.2v1.2H212l-1.2,1.2v1.2l-3.6,1.2v1.2l-1.2,1.2
	l-1.2,1.2h-1.2h-1.2l-1.2-1.2l-2.4,1.2v1.2v1.2h-1.2h-1.2l-2.4,1.2h-1.2v1.2h-1.2l-2.4,1.2v-1.2l-1.2,1.2v2.4l-1.2,1.2l-1.2-1.2
	h-2.4h-2.4l-1.2,2.4h-1.2l-1.2-1.2H176l-2.4,1.2h-1.2l-2.4-2.4h-1.2h-3.6H164h-2.4h-4.8v1.2l1.2,1.2l-3.6,2.4h-1.2H152h-2.4h-2.4h-6
	l-1.2,1.2l-1.2,1.2l-1.2,1.2l-1.2,1.2v1.2v3.6l-3.6,2.4h-1.2l-1.2,1.2H128l-2.4,1.2l-2.4,2.4l-1.2,1.2l1.2,1.2l-1.2,1.2l-1.2,1.2
	l-2.4,2.4l-2.4,1.2l-6,2.4l-1.2,1.2l-1.2,1.2v1.2l-1.2,1.2l-2.4,1.2h-1.2l-1.2-2.4v-1.2v-1.2h1.2l-1.2-1.2h1.2h-1.2l1.2-1.2
	l-1.2-1.2v-1.2v-2.4v-1.2v-1.2v-2.4v-1.2v-1.2v-2.4v-2.4h1.2v-1.2l1.2-1.2h-1.2v-1.2v-1.2h-1.2h1.2v-1.2v-1.2h-1.2l1.2-1.2l1.2-1.2
	l-1.2-1.2v-1.2v-2.4l-1.2-1.2v-1.2v-1.2l1.2-1.2v-3.6h-1.2v-1.2v-1.2h2.4v1.2l1.2-1.2h1.2l1.2-1.2h1.2v-1.2h1.2v1.2l1.2,1.2v1.2h1.2
	l1.2-1.2l-1.2-1.2h1.2v-1.2l1.2-1.2l-1.2-1.2l-1.2-1.2h-1.2l-1.2-1.2v-1.2h1.2l1.2,1.2l1.2-1.2l1.2-1.2l1.2-2.4l-1.2-2.4h1.2h1.2
	v-1.2l1.2,1.2v-1.2h1.2L120.8,368.1z M116,352.5h1.2H116z"/>
</svg>
